STARTFONT 2.1
FONT -Adobe-Times-Medium-R-Normal--24-240-75-75-P-124-ISO10646-1
SIZE 24 75 75
FONTBOUNDINGBOX 29 35 -4 -8
COMMENT $XFree86$
COMMENT ISO10646-1 extension by Markus Kuhn <mkuhn@acm.org>, 2001-03-20
COMMENT 
COMMENT +
COMMENT  Copyright 1984-1989, 1994 Adobe Systems Incorporated.
COMMENT  Copyright 1988, 1994 Digital Equipment Corporation.
COMMENT
COMMENT  Adobe is a trademark of Adobe Systems Incorporated which may be
COMMENT  registered in certain jurisdictions.
COMMENT  Permission to use these trademarks is hereby granted only in
COMMENT  association with the images described in this file.
COMMENT
COMMENT  Permission to use, copy, modify, distribute and sell this software
COMMENT  and its documentation for any purpose and without fee is hereby
COMMENT  granted, provided that the above copyright notices appear in all
COMMENT  copies and that both those copyright notices and this permission
COMMENT  notice appear in supporting documentation, and that the names of
COMMENT  Adobe Systems and Digital Equipment Corporation not be used in
COMMENT  advertising or publicity pertaining to distribution of the software
COMMENT  without specific, written prior permission.  Adobe Systems and
COMMENT  Digital Equipment Corporation make no representations about the
COMMENT  suitability of this software for any purpose.  It is provided "as
COMMENT  is" without express or implied warranty.
COMMENT -
STARTPROPERTIES 26
FOUNDRY "Adobe"
FAMILY_NAME "Times"
WEIGHT_NAME "Medium"
SLANT "R"
SETWIDTH_NAME "Normal"
ADD_STYLE_NAME ""
PIXEL_SIZE 24
POINT_SIZE 240
RESOLUTION_X 75
RESOLUTION_Y 75
SPACING "P"
AVERAGE_WIDTH 124
CHARSET_REGISTRY "ISO10646"
CHARSET_ENCODING "1"
CAP_HEIGHT 17
X_HEIGHT 12
FONT_ASCENT 20
FONT_DESCENT 6
FACE_NAME "Times Roman"
COPYRIGHT "Copyright (c) 1984, 1987 Adobe Systems Incorporated. All Rights Reserved. Copyright (c) 1988, 1991 Digital Equipment Corporation. All Rights Reserved."

STARTCHAR char0
ENCODING 0
SWIDTH 722 0
DWIDTH 19 0
BBX 17 17 1 0
BITMAP
AAAA80
000000
800080
000000
800080
000000
800080
000000
800080
000000
800080
000000
800080
000000
800080
000000
AAAA80
ENDCHAR
STARTCHAR space
ENCODING 32
SWIDTH 250 0
DWIDTH 6 0
BBX 1 1 0 0
BITMAP
00
ENDCHAR
STARTCHAR exclam
ENCODING 33
SWIDTH 333 0
DWIDTH 8 0
BBX 2 17 3 0
BITMAP
C0
C0
C0
C0
C0
C0
C0
C0
C0
C0
C0
C0
00
00
00
C0
C0
ENDCHAR
STARTCHAR quotedbl
ENCODING 34
SWIDTH 408 0
DWIDTH 10 0
BBX 6 5 1 12
BITMAP
CC
CC
CC
CC
88
ENDCHAR
STARTCHAR numbersign
ENCODING 35
SWIDTH 500 0
DWIDTH 13 0
BBX 11 17 1 0
BITMAP
0880
0880
0880
0880
0880
7FE0
7FE0
1100
1100
1100
FFC0
FFC0
2200
2200
2200
2200
2200
ENDCHAR
STARTCHAR dollar
ENCODING 36
SWIDTH 500 0
DWIDTH 12 0
BBX 11 21 0 -2
BITMAP
0400
0400
1F80
34E0
6460
6420
6400
7400
3C00
1E00
0780
07C0
04E0
0460
8460
8460
C4C0
E5C0
3F00
0400
0400
ENDCHAR
STARTCHAR percent
ENCODING 37
SWIDTH 833 0
DWIDTH 19 0
BBX 17 16 1 0
BITMAP
1E0C00
33FC00
611800
C11000
C13000
C26000
E44000
78C000
018F00
011980
033080
066080
046080
0C6100
187200
303C00
ENDCHAR
STARTCHAR ampersand
ENCODING 38
SWIDTH 778 0
DWIDTH 18 0
BBX 16 17 1 0
BITMAP
0780
0CC0
1840
1840
18C0
1D80
0F00
0E3E
1E18
3710
6320
C1A0
C1C0
C0C0
E1E1
7F7E
3C3C
ENDCHAR
STARTCHAR quotesingle
ENCODING 39
SWIDTH 180 0
DWIDTH 6 0
BBX 2 5 2 12
BITMAP
C0
C0
C0
C0
80
ENDCHAR
STARTCHAR parenleft
ENCODING 40
SWIDTH 333 0
DWIDTH 8 0
BBX 6 22 1 -5
BITMAP
04
08
10
30
20
60
60
C0
C0
C0
C0
C0
C0
C0
C0
60
60
20
30
10
08
04
ENDCHAR
STARTCHAR parenright
ENCODING 41
SWIDTH 333 0
DWIDTH 8 0
BBX 6 22 1 -5
BITMAP
80
40
20
30
10
18
18
0C
0C
0C
0C
0C
0C
0C
0C
18
18
10
30
20
40
80
ENDCHAR
STARTCHAR asterisk
ENCODING 42
SWIDTH 500 0
DWIDTH 12 0
BBX 9 9 2 8
BITMAP
0800
1C00
C980
EB80
1C00
EB80
C980
1C00
0800
ENDCHAR
STARTCHAR plus
ENCODING 43
SWIDTH 564 0
DWIDTH 14 0
BBX 12 12 1 1
BITMAP
0600
0600
0600
0600
0600
FFF0
FFF0
0600
0600
0600
0600
0600
ENDCHAR
STARTCHAR comma
ENCODING 44
SWIDTH 250 0
DWIDTH 7 0
BBX 3 5 2 -3
BITMAP
C0
E0
20
60
C0
ENDCHAR
STARTCHAR hyphen
ENCODING 45
SWIDTH 333 0
DWIDTH 9 0
BBX 7 2 1 5
BITMAP
FE
FE
ENDCHAR
STARTCHAR period
ENCODING 46
SWIDTH 250 0
DWIDTH 6 0
BBX 2 2 2 0
BITMAP
C0
C0
ENDCHAR
STARTCHAR slash
ENCODING 47
SWIDTH 278 0
DWIDTH 7 0
BBX 8 20 -1 -3
BITMAP
03
03
03
06
06
04
0C
0C
08
18
18
10
30
30
20
60
60
C0
C0
C0
ENDCHAR
STARTCHAR zero
ENCODING 48
SWIDTH 500 0
DWIDTH 12 0
BBX 10 17 1 0
BITMAP
1E00
3300
6180
6180
C0C0
C0C0
C0C0
C0C0
C0C0
C0C0
C0C0
C0C0
E1C0
6180
6180
3300
1E00
ENDCHAR
STARTCHAR one
ENCODING 49
SWIDTH 500 0
DWIDTH 12 0
BBX 8 17 2 0
BITMAP
08
18
78
18
18
18
18
18
18
18
18
18
18
18
18
18
FF
ENDCHAR
STARTCHAR two
ENCODING 50
SWIDTH 500 0
DWIDTH 12 0
BBX 10 17 1 0
BITMAP
1C00
7F00
4380
8180
8180
0180
0180
0300
0300
0600
0400
0C00
1800
3000
6040
FFC0
FF80
ENDCHAR
STARTCHAR three
ENCODING 51
SWIDTH 500 0
DWIDTH 12 0
BBX 9 17 1 0
BITMAP
1C00
7E00
4700
8300
8300
0600
0C00
1E00
0700
0380
0180
0180
0180
0100
C300
E600
7800
ENDCHAR
STARTCHAR four
ENCODING 52
SWIDTH 500 0
DWIDTH 12 0
BBX 10 17 1 0
BITMAP
0300
0700
0700
0B00
1B00
1300
3300
2300
6300
4300
C300
FFC0
FFC0
0300
0300
0300
0300
ENDCHAR
STARTCHAR five
ENCODING 53
SWIDTH 500 0
DWIDTH 12 0
BBX 10 17 1 0
BITMAP
1FC0
1F80
2000
2000
6000
7800
7E00
0F80
0380
01C0
00C0
00C0
00C0
00C0
C180
E380
7E00
ENDCHAR
STARTCHAR six
ENCODING 54
SWIDTH 500 0
DWIDTH 12 0
BBX 10 17 1 0
BITMAP
03C0
0E00
1800
3000
7000
6000
EE00
F380
C180
C0C0
C0C0
C0C0
C0C0
E0C0
6180
7B80
1E00
ENDCHAR
STARTCHAR seven
ENCODING 55
SWIDTH 500 0
DWIDTH 12 0
BBX 10 17 1 0
BITMAP
7FC0
FFC0
C0C0
8180
0180
0100
0300
0300
0200
0600
0600
0400
0C00
0C00
0C00
1800
1800
ENDCHAR
STARTCHAR eight
ENCODING 56
SWIDTH 500 0
DWIDTH 12 0
BBX 10 17 1 0
BITMAP
1E00
3300
6180
6180
6180
3300
1E00
1E00
3700
6180
41C0
C0C0
C0C0
C0C0
E180
7380
1E00
ENDCHAR
STARTCHAR nine
ENCODING 57
SWIDTH 500 0
DWIDTH 12 0
BBX 10 17 1 0
BITMAP
1E00
7780
6180
C1C0
C0C0
C0C0
C0C0
C0C0
61C0
73C0
1D80
0180
0380
0300
0600
1C00
F000
ENDCHAR
STARTCHAR colon
ENCODING 58
SWIDTH 278 0
DWIDTH 6 0
BBX 2 11 2 0
BITMAP
C0
C0
00
00
00
00
00
00
00
C0
C0
ENDCHAR
STARTCHAR semicolon
ENCODING 59
SWIDTH 278 0
DWIDTH 7 0
BBX 3 14 2 -3
BITMAP
C0
C0
00
00
00
00
00
00
00
C0
E0
20
60
C0
ENDCHAR
STARTCHAR less
ENCODING 60
SWIDTH 564 0
DWIDTH 13 0
BBX 11 11 1 1
BITMAP
0060
01C0
0700
1C00
7000
C000
7000
1C00
0700
01C0
0060
ENDCHAR
STARTCHAR equal
ENCODING 61
SWIDTH 564 0
DWIDTH 14 0
BBX 12 6 1 4
BITMAP
FFF0
FFF0
0000
0000
FFF0
FFF0
ENDCHAR
STARTCHAR greater
ENCODING 62
SWIDTH 564 0
DWIDTH 13 0
BBX 11 11 1 1
BITMAP
C000
7000
1C00
0700
01C0
0060
01C0
0700
1C00
7000
C000
ENDCHAR
STARTCHAR question
ENCODING 63
SWIDTH 444 0
DWIDTH 11 0
BBX 8 17 2 0
BITMAP
7C
C6
83
C3
C3
07
0E
0C
18
18
10
10
10
00
00
30
30
ENDCHAR
STARTCHAR at
ENCODING 64
SWIDTH 921 0
DWIDTH 22 0
BBX 18 20 2 -3
BITMAP
03F800
0F0E00
1C0300
380180
700080
60ECC0
E1FC40
C38C40
C30C40
C60C40
C61840
C618C0
C61880
C63980
637B00
61DE00
300000
180000
0E0C00
03F000
ENDCHAR
STARTCHAR A
ENCODING 65
SWIDTH 722 0
DWIDTH 17 0
BBX 17 17 0 0
BITMAP
008000
01C000
01C000
016000
026000
023000
063000
043000
041800
0C1800
0FF800
080C00
180C00
100C00
100600
300600
FC1F80
ENDCHAR
STARTCHAR B
ENCODING 66
SWIDTH 667 0
DWIDTH 16 0
BBX 14 17 1 0
BITMAP
FFC0
3070
3030
3018
3018
3018
3030
3040
3FE0
3038
3018
300C
300C
300C
3018
3078
FFE0
ENDCHAR
STARTCHAR C
ENCODING 67
SWIDTH 667 0
DWIDTH 16 0
BBX 14 17 1 0
BITMAP
07E4
1C3C
380C
6004
6004
C000
C000
C000
C000
C000
C000
C000
6000
6004
3808
1E38
07E0
ENDCHAR
STARTCHAR D
ENCODING 68
SWIDTH 722 0
DWIDTH 17 0
BBX 15 17 1 0
BITMAP
FFC0
3070
3038
300C
300C
3006
3006
3006
3006
3006
3006
3006
300C
300C
3038
3070
FFC0
ENDCHAR
STARTCHAR E
ENCODING 69
SWIDTH 611 0
DWIDTH 15 0
BBX 13 17 1 0
BITMAP
FFF0
3030
3010
3010
3000
3000
3040
3040
3FC0
3040
3040
3000
3000
3008
3008
3018
FFF8
ENDCHAR
STARTCHAR F
ENCODING 70
SWIDTH 556 0
DWIDTH 14 0
BBX 12 17 1 0
BITMAP
FFF0
3030
3010
3010
3000
3000
3020
3020
3FE0
3020
3020
3000
3000
3000
3000
3000
FC00
ENDCHAR
STARTCHAR G
ENCODING 71
SWIDTH 722 0
DWIDTH 18 0
BBX 16 17 1 0
BITMAP
07E4
1C3C
380C
6004
6004
C000
C000
C000
C000
C03F
C00C
C00C
600C
600C
381C
1E38
07E0
ENDCHAR
STARTCHAR H
ENCODING 72
SWIDTH 722 0
DWIDTH 19 0
BBX 17 17 1 0
BITMAP
FC1F80
300600
300600
300600
300600
300600
300600
300600
3FFE00
300600
300600
300600
300600
300600
300600
300600
FC1F80
ENDCHAR
STARTCHAR I
ENCODING 73
SWIDTH 333 0
DWIDTH 8 0
BBX 6 17 1 0
BITMAP
FC
30
30
30
30
30
30
30
30
30
30
30
30
30
30
30
FC
ENDCHAR
STARTCHAR J
ENCODING 74
SWIDTH 389 0
DWIDTH 11 0
BBX 9 17 1 0
BITMAP
1F80
0600
0600
0600
0600
0600
0600
0600
0600
0600
0600
0600
0600
0600
C600
CC00
7800
ENDCHAR
STARTCHAR K
ENCODING 75
SWIDTH 722 0
DWIDTH 17 0
BBX 16 17 1 0
BITMAP
FC7E
3018
3030
3060
30C0
3180
3300
3E00
3F00
3380
31C0
30E0
3070
3038
301C
300E
FC1F
ENDCHAR
STARTCHAR L
ENCODING 76
SWIDTH 611 0
DWIDTH 14 0
BBX 13 17 1 0
BITMAP
FC00
3000
3000
3000
3000
3000
3000
3000
3000
3000
3000
3000
3000
3008
3008
3018
FFF8
ENDCHAR
STARTCHAR M
ENCODING 77
SWIDTH 889 0
DWIDTH 22 0
BBX 21 17 1 0
BITMAP
F000F8
3000E0
380160
380160
2C0260
2C0260
260260
260460
230460
230860
218860
218860
20D060
20D060
206060
206060
F821F8
ENDCHAR
STARTCHAR N
ENCODING 78
SWIDTH 722 0
DWIDTH 18 0
BBX 16 17 1 0
BITMAP
F01F
3004
3804
3804
2C04
2604
2604
2304
2184
2184
20C4
2064
2064
2034
201C
201C
F80C
ENDCHAR
STARTCHAR O
ENCODING 79
SWIDTH 722 0
DWIDTH 18 0
BBX 16 17 1 0
BITMAP
07E0
1C38
381C
6006
6006
C003
C003
C003
C003
C003
C003
C003
6006
6006
381C
1C38
07E0
ENDCHAR
STARTCHAR P
ENCODING 80
SWIDTH 556 0
DWIDTH 15 0
BBX 13 17 1 0
BITMAP
FFC0
3070
3030
3018
3018
3018
3030
3070
3FC0
3000
3000
3000
3000
3000
3000
3000
FC00
ENDCHAR
STARTCHAR Q
ENCODING 81
SWIDTH 722 0
DWIDTH 18 0
BBX 16 22 1 -5
BITMAP
07E0
1C38
381C
6006
6006
C003
C003
C003
C003
C003
C003
C003
6006
6006
381C
1C38
07E0
01C0
00E0
0070
0038
000F
ENDCHAR
STARTCHAR R
ENCODING 82
SWIDTH 667 0
DWIDTH 16 0
BBX 15 17 1 0
BITMAP
FFC0
3070
3030
3038
3018
3038
3030
3070
3FC0
3380
31C0
30C0
3060
3070
3038
301C
FC1E
ENDCHAR
STARTCHAR S
ENCODING 83
SWIDTH 556 0
DWIDTH 13 0
BBX 11 17 1 0
BITMAP
1E40
63C0
C0C0
C040
C040
E000
7800
1E00
0F80
03C0
00E0
0060
8060
8060
C0C0
F180
9E00
ENDCHAR
STARTCHAR T
ENCODING 84
SWIDTH 611 0
DWIDTH 16 0
BBX 14 17 1 0
BITMAP
FFFC
C30C
8304
8304
0300
0300
0300
0300
0300
0300
0300
0300
0300
0300
0300
0300
0FC0
ENDCHAR
STARTCHAR U
ENCODING 85
SWIDTH 722 0
DWIDTH 18 0
BBX 16 17 1 0
BITMAP
FC1F
3004
3004
3004
3004
3004
3004
3004
3004
3004
3004
3004
3004
3008
1808
1C30
07E0
ENDCHAR
STARTCHAR V
ENCODING 86
SWIDTH 722 0
DWIDTH 17 0
BBX 17 17 0 0
BITMAP
FC1F80
300600
300400
180C00
180800
180800
0C1800
0C1000
063000
062000
062000
036000
034000
03C000
018000
018000
018000
ENDCHAR
STARTCHAR W
ENCODING 87
SWIDTH 944 0
DWIDTH 23 0
BBX 23 17 0 0
BITMAP
FC7E7E
301818
301810
181810
181830
182C20
0C2C20
0C2C60
064C60
064C40
064640
0346C0
034680
038780
018380
018300
018300
ENDCHAR
STARTCHAR X
ENCODING 88
SWIDTH 722 0
DWIDTH 18 0
BBX 18 17 0 0
BITMAP
7E0F80
1C0600
0E0C00
060800
031000
03A000
01C000
00C000
00E000
017000
023800
061800
040C00
080E00
180700
300380
FC0FC0
ENDCHAR
STARTCHAR Y
ENCODING 89
SWIDTH 722 0
DWIDTH 16 0
BBX 16 17 0 0
BITMAP
FC3F
300C
3808
1818
1C10
0C30
0620
0660
0340
03C0
0180
0180
0180
0180
0180
0180
07E0
ENDCHAR
STARTCHAR Z
ENCODING 90
SWIDTH 611 0
DWIDTH 15 0
BBX 13 17 1 0
BITMAP
FFF0
C070
80E0
80C0
01C0
0380
0300
0700
0600
0E00
1C00
1800
3800
3008
7008
E018
FFF8
ENDCHAR
STARTCHAR bracketleft
ENCODING 91
SWIDTH 333 0
DWIDTH 8 0
BBX 5 21 2 -4
BITMAP
F8
C0
C0
C0
C0
C0
C0
C0
C0
C0
C0
C0
C0
C0
C0
C0
C0
C0
C0
C0
F8
ENDCHAR
STARTCHAR backslash
ENCODING 92
SWIDTH 278 0
DWIDTH 7 0
BBX 7 17 0 0
BITMAP
C0
C0
40
60
60
20
30
30
10
18
18
08
0C
0C
04
06
06
ENDCHAR
STARTCHAR bracketright
ENCODING 93
SWIDTH 333 0
DWIDTH 8 0
BBX 5 21 1 -4
BITMAP
F8
18
18
18
18
18
18
18
18
18
18
18
18
18
18
18
18
18
18
18
F8
ENDCHAR
STARTCHAR asciicircum
ENCODING 94
SWIDTH 469 0
DWIDTH 11 0
BBX 9 9 1 8
BITMAP
0800
1C00
1400
3600
2200
6300
4100
C180
8080
ENDCHAR
STARTCHAR underscore
ENCODING 95
SWIDTH 500 0
DWIDTH 13 0
BBX 13 2 0 -5
BITMAP
FFF8
FFF8
ENDCHAR
STARTCHAR grave
ENCODING 96
SWIDTH 333 0
DWIDTH 8 0
BBX 5 4 1 13
BITMAP
C0
E0
30
08
ENDCHAR
STARTCHAR a
ENCODING 97
SWIDTH 444 0
DWIDTH 11 0
BBX 9 12 1 0
BITMAP
3E00
6700
6300
0300
0F00
3B00
6300
C300
C300
C700
FB00
7180
ENDCHAR
STARTCHAR b
ENCODING 98
SWIDTH 500 0
DWIDTH 12 0
BBX 10 17 1 0
BITMAP
E000
6000
6000
6000
6000
6E00
7380
6180
60C0
60C0
60C0
60C0
60C0
60C0
6180
7380
5E00
ENDCHAR
STARTCHAR c
ENCODING 99
SWIDTH 444 0
DWIDTH 11 0
BBX 9 12 1 0
BITMAP
1F00
6380
4180
C000
C000
C000
C000
C000
E000
7080
7F00
1E00
ENDCHAR
STARTCHAR d
ENCODING 100
SWIDTH 500 0
DWIDTH 12 0
BBX 10 17 1 0
BITMAP
0380
0180
0180
0180
0180
1D80
7380
6180
C180
C180
C180
C180
C180
C180
6180
7380
1EC0
ENDCHAR
STARTCHAR e
ENCODING 101
SWIDTH 444 0
DWIDTH 11 0
BBX 9 12 1 0
BITMAP
1E00
6300
4180
C180
FF80
C000
C000
C000
E000
7080
7F00
1E00
ENDCHAR
STARTCHAR f
ENCODING 102
SWIDTH 333 0
DWIDTH 7 0
BBX 7 17 0 0
BITMAP
0E
16
30
30
30
FE
30
30
30
30
30
30
30
30
30
30
78
ENDCHAR
STARTCHAR g
ENCODING 103
SWIDTH 500 0
DWIDTH 12 0
BBX 11 17 1 -5
BITMAP
1FC0
3300
6180
6180
6180
6180
3300
3E00
3000
6000
7F00
3FC0
6060
C020
C060
F1C0
3F00
ENDCHAR
STARTCHAR h
ENCODING 104
SWIDTH 500 0
DWIDTH 13 0
BBX 11 17 1 0
BITMAP
E000
6000
6000
6000
6000
6700
6F80
71C0
60C0
60C0
60C0
60C0
60C0
60C0
60C0
60C0
F1E0
ENDCHAR
STARTCHAR i
ENCODING 105
SWIDTH 278 0
DWIDTH 6 0
BBX 4 17 1 0
BITMAP
60
60
00
00
00
E0
60
60
60
60
60
60
60
60
60
60
F0
ENDCHAR
STARTCHAR j
ENCODING 106
SWIDTH 278 0
DWIDTH 6 0
BBX 4 22 0 -5
BITMAP
30
30
00
00
00
70
30
30
30
30
30
30
30
30
30
30
30
30
30
30
E0
C0
ENDCHAR
STARTCHAR k
ENCODING 107
SWIDTH 500 0
DWIDTH 12 0
BBX 11 17 1 0
BITMAP
E000
6000
6000
6000
6000
67C0
6300
6600
6400
6800
7800
6C00
6E00
6700
6380
61C0
F3E0
ENDCHAR
STARTCHAR l
ENCODING 108
SWIDTH 278 0
DWIDTH 6 0
BBX 4 17 1 0
BITMAP
E0
60
60
60
60
60
60
60
60
60
60
60
60
60
60
60
F0
ENDCHAR
STARTCHAR m
ENCODING 109
SWIDTH 778 0
DWIDTH 20 0
BBX 18 12 1 0
BITMAP
E70E00
6F9F00
71E380
60C180
60C180
60C180
60C180
60C180
60C180
60C180
60C180
F1E3C0
ENDCHAR
STARTCHAR n
ENCODING 110
SWIDTH 500 0
DWIDTH 13 0
BBX 11 12 1 0
BITMAP
E700
6F80
71C0
60C0
60C0
60C0
60C0
60C0
60C0
60C0
60C0
F1E0
ENDCHAR
STARTCHAR o
ENCODING 111
SWIDTH 500 0
DWIDTH 12 0
BBX 10 12 1 0
BITMAP
1E00
7380
6180
C0C0
C0C0
C0C0
C0C0
C0C0
C0C0
6180
7380
1E00
ENDCHAR
STARTCHAR p
ENCODING 112
SWIDTH 500 0
DWIDTH 12 0
BBX 10 17 1 -5
BITMAP
EE00
7380
6180
60C0
60C0
60C0
60C0
60C0
60C0
6180
7380
6E00
6000
6000
6000
6000
F000
ENDCHAR
STARTCHAR q
ENCODING 113
SWIDTH 500 0
DWIDTH 12 0
BBX 10 17 1 -5
BITMAP
1D80
7380
6180
C180
C180
C180
C180
C180
C180
6180
7380
1D80
0180
0180
0180
0180
03C0
ENDCHAR
STARTCHAR r
ENCODING 114
SWIDTH 333 0
DWIDTH 8 0
BBX 7 12 1 0
BITMAP
E6
6E
76
60
60
60
60
60
60
60
60
F0
ENDCHAR
STARTCHAR s
ENCODING 115
SWIDTH 389 0
DWIDTH 10 0
BBX 8 12 1 0
BITMAP
3E
66
C2
E0
70
7C
1E
07
03
83
C6
F8
ENDCHAR
STARTCHAR t
ENCODING 116
SWIDTH 278 0
DWIDTH 7 0
BBX 7 15 0 0
BITMAP
10
30
70
FE
30
30
30
30
30
30
30
30
30
32
1C
ENDCHAR
STARTCHAR u
ENCODING 117
SWIDTH 500 0
DWIDTH 13 0
BBX 11 12 1 0
BITMAP
E1C0
60C0
60C0
60C0
60C0
60C0
60C0
60C0
60C0
71C0
3EC0
1CE0
ENDCHAR
STARTCHAR v
ENCODING 118
SWIDTH 500 0
DWIDTH 11 0
BBX 11 12 0 0
BITMAP
F1E0
60C0
6080
3080
3080
3100
1900
1900
1A00
0E00
0E00
0400
ENDCHAR
STARTCHAR w
ENCODING 119
SWIDTH 722 0
DWIDTH 17 0
BBX 17 12 0 0
BITMAP
F1E780
60C300
60C200
30C200
30C200
316400
196400
1A6400
1A2800
0E3800
0E3800
041000
ENDCHAR
STARTCHAR x
ENCODING 120
SWIDTH 500 0
DWIDTH 13 0
BBX 11 12 1 0
BITMAP
F1E0
60C0
3180
3900
1A00
0C00
0E00
1B00
3380
2180
60C0
F1E0
ENDCHAR
STARTCHAR y
ENCODING 121
SWIDTH 500 0
DWIDTH 11 0
BBX 11 17 0 -5
BITMAP
F1E0
60C0
6080
3080
3080
3100
1900
1900
1A00
0E00
0E00
0400
0C00
0800
1800
F000
E000
ENDCHAR
STARTCHAR z
ENCODING 122
SWIDTH 444 0
DWIDTH 10 0
BBX 8 12 1 0
BITMAP
FF
C3
86
0E
1C
18
38
30
70
61
C3
FF
ENDCHAR
STARTCHAR braceleft
ENCODING 123
SWIDTH 480 0
DWIDTH 10 0
BBX 8 22 1 -5
BITMAP
07
0C
18
18
18
18
18
10
30
20
C0
20
30
10
18
18
18
18
18
18
0C
07
ENDCHAR
STARTCHAR bar
ENCODING 124
SWIDTH 200 0
DWIDTH 6 0
BBX 2 17 2 0
BITMAP
C0
C0
C0
C0
C0
C0
C0
C0
C0
C0
C0
C0
C0
C0
C0
C0
C0
ENDCHAR
STARTCHAR braceright
ENCODING 125
SWIDTH 480 0
DWIDTH 10 0
BBX 8 22 1 -5
BITMAP
E0
30
18
18
18
18
18
08
0C
04
03
04
0C
08
18
18
18
18
18
18
30
E0
ENDCHAR
STARTCHAR asciitilde
ENCODING 126
SWIDTH 541 0
DWIDTH 13 0
BBX 11 4 1 5
BITMAP
3820
7C60
C7C0
8380
ENDCHAR
STARTCHAR space
ENCODING 160
SWIDTH 250 0
DWIDTH 6 0
BBX 1 1 0 0
BITMAP
00
ENDCHAR
STARTCHAR exclamdown
ENCODING 161
SWIDTH 333 0
DWIDTH 8 0
BBX 2 17 4 -5
BITMAP
C0
C0
00
00
00
C0
C0
C0
C0
C0
C0
C0
C0
C0
C0
C0
C0
ENDCHAR
STARTCHAR cent
ENCODING 162
SWIDTH 500 0
DWIDTH 12 0
BBX 9 16 1 -2
BITMAP
0100
0100
1F00
6380
4380
C400
C400
C800
C800
C800
D000
7080
7F00
3E00
4000
4000
ENDCHAR
STARTCHAR sterling
ENCODING 163
SWIDTH 500 0
DWIDTH 12 0
BBX 10 17 1 0
BITMAP
0F00
1980
3180
3000
3000
3000
3000
FC00
3000
3000
3000
3000
3000
3000
7840
BEC0
E780
ENDCHAR
STARTCHAR currency
ENCODING 164
SWIDTH 500 0
DWIDTH 13 0
BBX 11 12 1 3
BITMAP
C060
EEE0
7FC0
3180
60C0
60C0
60C0
60C0
3180
7FC0
EEE0
C060
ENDCHAR
STARTCHAR yen
ENCODING 165
SWIDTH 500 0
DWIDTH 14 0
BBX 14 17 0 0
BITMAP
F87C
7030
3020
1860
1840
0CC0
0C80
0780
0300
1FE0
0300
1FE0
0300
0300
0300
0300
0FC0
ENDCHAR
STARTCHAR brokenbar
ENCODING 166
SWIDTH 200 0
DWIDTH 6 0
BBX 2 17 2 0
BITMAP
C0
C0
C0
C0
C0
C0
C0
00
00
00
C0
C0
C0
C0
C0
C0
C0
ENDCHAR
STARTCHAR section
ENCODING 167
SWIDTH 500 0
DWIDTH 12 0
BBX 8 20 2 -2
BITMAP
1C
26
46
60
70
38
3C
4E
87
83
C3
E2
74
38
1C
0E
06
62
64
38
ENDCHAR
STARTCHAR dieresis
ENCODING 168
SWIDTH 333 0
DWIDTH 8 0
BBX 6 2 1 14
BITMAP
CC
CC
ENDCHAR
STARTCHAR copyright
ENCODING 169
SWIDTH 760 0
DWIDTH 19 0
BBX 17 17 1 0
BITMAP
07F000
1C1C00
300600
61E300
473100
C41980
8C0080
880080
880080
880080
8C0080
C41980
477100
61C300
300600
1C1C00
07F000
ENDCHAR
STARTCHAR ordfeminine
ENCODING 170
SWIDTH 276 0
DWIDTH 8 0
BBX 7 9 0 8
BITMAP
78
CC
0C
7C
CC
CC
76
00
7E
ENDCHAR
STARTCHAR guillemotleft
ENCODING 171
SWIDTH 500 0
DWIDTH 13 0
BBX 9 10 2 1
BITMAP
0880
1980
3300
6600
CC00
CC00
6600
3300
1980
0880
ENDCHAR
STARTCHAR logicalnot
ENCODING 172
SWIDTH 564 0
DWIDTH 14 0
BBX 12 7 1 3
BITMAP
FFF0
FFF0
0030
0030
0030
0030
0030
ENDCHAR
STARTCHAR hyphen
ENCODING 173
SWIDTH 333 0
DWIDTH 9 0
BBX 7 2 1 5
BITMAP
FE
FE
ENDCHAR
STARTCHAR registered
ENCODING 174
SWIDTH 760 0
DWIDTH 19 0
BBX 17 17 1 0
BITMAP
07F000
1C1C00
300600
67E300
423100
C21180
821080
823080
83E080
824080
822080
C23180
471900
600300
300600
1C1C00
07F000
ENDCHAR
STARTCHAR macron
ENCODING 175
SWIDTH 333 0
DWIDTH 8 0
BBX 6 2 1 14
BITMAP
FC
FC
ENDCHAR
STARTCHAR degree
ENCODING 176
SWIDTH 400 0
DWIDTH 9 0
BBX 7 7 1 10
BITMAP
38
44
82
82
82
44
38
ENDCHAR
STARTCHAR plusminus
ENCODING 177
SWIDTH 564 0
DWIDTH 14 0
BBX 12 15 1 0
BITMAP
0600
0600
0600
0600
0600
FFF0
FFF0
0600
0600
0600
0600
0600
0000
FFF0
FFF0
ENDCHAR
STARTCHAR twosuperior
ENCODING 178
SWIDTH 300 0
DWIDTH 7 0
BBX 6 10 0 7
BITMAP
38
4C
8C
0C
08
10
30
20
44
FC
ENDCHAR
STARTCHAR threesuperior
ENCODING 179
SWIDTH 300 0
DWIDTH 7 0
BBX 6 10 0 7
BITMAP
38
4C
8C
08
30
08
0C
8C
88
70
ENDCHAR
STARTCHAR acute
ENCODING 180
SWIDTH 333 0
DWIDTH 8 0
BBX 5 4 2 13
BITMAP
18
38
60
80
ENDCHAR
STARTCHAR mu
ENCODING 181
SWIDTH 500 0
DWIDTH 13 0
BBX 11 17 1 -5
BITMAP
E1C0
60C0
60C0
60C0
60C0
60C0
60C0
60C0
60C0
71C0
7EC0
5CE0
4000
4000
C000
E000
4000
ENDCHAR
STARTCHAR paragraph
ENCODING 182
SWIDTH 453 0
DWIDTH 11 0
BBX 9 22 1 -5
BITMAP
1F80
3900
7900
7900
F900
F900
F900
7900
7900
3900
1900
0900
0900
0900
0900
0900
0900
0900
0900
0900
0900
0900
ENDCHAR
STARTCHAR periodcentered
ENCODING 183
SWIDTH 250 0
DWIDTH 6 0
BBX 2 2 2 6
BITMAP
C0
C0
ENDCHAR
STARTCHAR cedilla
ENCODING 184
SWIDTH 333 0
DWIDTH 8 0
BBX 6 6 1 -6
BITMAP
10
30
3C
0C
CC
78
ENDCHAR
STARTCHAR onesuperior
ENCODING 185
SWIDTH 300 0
DWIDTH 7 0
BBX 5 10 1 7
BITMAP
20
60
A0
20
20
20
20
20
20
F8
ENDCHAR
STARTCHAR ordmasculine
ENCODING 186
SWIDTH 310 0
DWIDTH 8 0
BBX 6 9 1 8
BITMAP
78
CC
CC
CC
CC
CC
78
00
FC
ENDCHAR
STARTCHAR guillemotright
ENCODING 187
SWIDTH 500 0
DWIDTH 12 0
BBX 9 10 2 1
BITMAP
8800
CC00
6600
3300
1980
1980
3300
6600
CC00
8800
ENDCHAR
STARTCHAR onequarter
ENCODING 188
SWIDTH 750 0
DWIDTH 18 0
BBX 16 17 1 0
BITMAP
2008
6018
A030
2020
2060
2040
20C0
2184
210C
FB1C
0214
0624
0C64
0844
18FF
1004
3004
ENDCHAR
STARTCHAR onehalf
ENCODING 189
SWIDTH 750 0
DWIDTH 18 0
BBX 15 17 1 0
BITMAP
2008
6018
A030
2020
2060
2040
20C0
219C
2126
FB46
0206
0604
0C08
0818
1810
1022
307E
ENDCHAR
STARTCHAR threequarters
ENCODING 190
SWIDTH 750 0
DWIDTH 18 0
BBX 17 17 0 0
BITMAP
380400
4C0C00
8C1800
081000
303000
082000
0C6000
8CC200
888600
718E00
010A00
031200
063200
042200
0C7F80
080200
180200
ENDCHAR
STARTCHAR questiondown
ENCODING 191
SWIDTH 444 0
DWIDTH 11 0
BBX 8 17 1 -5
BITMAP
0C
0C
00
00
08
08
18
18
38
30
70
E0
C3
C3
C1
63
3E
ENDCHAR
STARTCHAR Agrave
ENCODING 192
SWIDTH 722 0
DWIDTH 17 0
BBX 17 22 0 0
BITMAP
030000
038000
00C000
002000
000000
008000
01C000
01C000
016000
026000
023000
063000
043000
041800
0C1800
0FF800
080C00
180C00
100C00
100600
300600
FC1F80
ENDCHAR
STARTCHAR Aacute
ENCODING 193
SWIDTH 722 0
DWIDTH 17 0
BBX 17 22 0 0
BITMAP
003000
007000
00C000
010000
000000
008000
01C000
01C000
016000
026000
023000
063000
043000
041800
0C1800
0FF800
080C00
180C00
100C00
100600
300600
FC1F80
ENDCHAR
STARTCHAR Acircumflex
ENCODING 194
SWIDTH 722 0
DWIDTH 17 0
BBX 17 22 0 0
BITMAP
018000
03C000
066000
081000
000000
008000
01C000
01C000
016000
026000
023000
063000
043000
041800
0C1800
0FF800
080C00
180C00
100C00
100600
300600
FC1F80
ENDCHAR
STARTCHAR Atilde
ENCODING 195
SWIDTH 722 0
DWIDTH 17 0
BBX 17 21 0 0
BITMAP
039000
04E000
000000
000000
008000
01C000
01C000
016000
026000
023000
063000
043000
041800
0C1800
0FF800
080C00
180C00
100C00
100600
300700
FC1F80
ENDCHAR
STARTCHAR Adieresis
ENCODING 196
SWIDTH 722 0
DWIDTH 17 0
BBX 17 21 0 0
BITMAP
063000
063000
000000
000000
008000
01C000
01C000
016000
026000
023000
063000
043000
041800
0C1800
0FF800
080C00
180C00
100C00
100600
300600
FC1F80
ENDCHAR
STARTCHAR Aring
ENCODING 197
SWIDTH 722 0
DWIDTH 17 0
BBX 17 21 0 0
BITMAP
01C000
022000
022000
01C000
008000
01C000
01C000
016000
026000
023000
063000
043000
041800
0C1800
0FF800
080C00
180C00
100C00
100600
300600
FC1F80
ENDCHAR
STARTCHAR AE
ENCODING 198
SWIDTH 889 0
DWIDTH 21 0
BBX 20 17 0 0
BITMAP
03FFE0
01E060
016020
016020
026000
026000
066080
046080
047F80
0C6080
0FE080
086000
186000
106010
106010
306030
F9FFF0
ENDCHAR
STARTCHAR Ccedilla
ENCODING 199
SWIDTH 667 0
DWIDTH 16 0
BBX 14 23 1 -6
BITMAP
07E4
1C3C
380C
6004
6004
C000
C000
C000
C000
C000
C000
C000
6000
6004
3808
1E38
07E0
0100
0300
03C0
00C0
0CC0
0780
ENDCHAR
STARTCHAR Egrave
ENCODING 200
SWIDTH 611 0
DWIDTH 15 0
BBX 13 22 1 0
BITMAP
1800
1C00
0600
0100
0000
FFF0
3030
3010
3010
3000
3000
3040
3040
3FC0
3040
3040
3000
3000
3008
3008
3018
FFF8
ENDCHAR
STARTCHAR Eacute
ENCODING 201
SWIDTH 611 0
DWIDTH 15 0
BBX 13 22 1 0
BITMAP
00C0
01C0
0300
0400
0000
FFF0
3030
3010
3010
3000
3000
3040
3040
3FC0
3040
3040
3000
3000
3008
3008
3018
FFF8
ENDCHAR
STARTCHAR Ecircumflex
ENCODING 202
SWIDTH 611 0
DWIDTH 15 0
BBX 13 22 1 0
BITMAP
0300
0780
0CC0
1020
0000
FFF0
3030
3010
3010
3000
3000
3040
3040
3FC0
3040
3040
3000
3000
3008
3008
3018
FFF8
ENDCHAR
STARTCHAR Edieresis
ENCODING 203
SWIDTH 611 0
DWIDTH 15 0
BBX 13 21 1 0
BITMAP
1980
1980
0000
0000
FFF0
3030
3010
3010
3000
3000
3040
3040
3FC0
3040
3040
3000
3000
3008
3008
3018
FFF8
ENDCHAR
STARTCHAR Igrave
ENCODING 204
SWIDTH 333 0
DWIDTH 8 0
BBX 6 22 1 0
BITMAP
C0
E0
30
08
00
FC
30
30
30
30
30
30
30
30
30
30
30
30
30
30
30
FC
ENDCHAR
STARTCHAR Iacute
ENCODING 205
SWIDTH 333 0
DWIDTH 8 0
BBX 6 22 1 0
BITMAP
0C
1C
30
40
00
FC
30
30
30
30
30
30
30
30
30
30
30
30
30
30
30
FC
ENDCHAR
STARTCHAR Icircumflex
ENCODING 206
SWIDTH 333 0
DWIDTH 8 0
BBX 8 22 1 0
BITMAP
18
3C
66
81
00
7E
18
18
18
18
18
18
18
18
18
18
18
18
18
18
18
7E
ENDCHAR
STARTCHAR Idieresis
ENCODING 207
SWIDTH 333 0
DWIDTH 8 0
BBX 6 21 1 0
BITMAP
CC
CC
00
00
FC
30
30
30
30
30
30
30
30
30
30
30
30
30
30
30
FC
ENDCHAR
STARTCHAR Eth
ENCODING 208
SWIDTH 722 0
DWIDTH 17 0
BBX 16 17 0 0
BITMAP
7FE0
1838
181C
1806
1806
1803
1803
1803
FF03
1803
1803
1803
1806
1806
181C
1838
7FE0
ENDCHAR
STARTCHAR Ntilde
ENCODING 209
SWIDTH 722 0
DWIDTH 18 0
BBX 16 21 1 0
BITMAP
0390
04E0
0000
0000
F01F
3004
3804
3804
2C04
2604
2604
2304
2184
2184
20C4
2064
2064
2034
201C
201C
F80C
ENDCHAR
STARTCHAR Ograve
ENCODING 210
SWIDTH 722 0
DWIDTH 18 0
BBX 16 22 1 0
BITMAP
0600
0700
0180
0040
0000
07E0
1C38
381C
6006
6006
C003
C003
C003
C003
C003
C003
C003
6006
6006
381C
1C38
07E0
ENDCHAR
STARTCHAR Oacute
ENCODING 211
SWIDTH 722 0
DWIDTH 18 0
BBX 16 22 1 0
BITMAP
0030
0070
00C0
0100
0000
07E0
1C38
381C
6006
6006
C003
C003
C003
C003
C003
C003
C003
6006
6006
381C
1C38
07E0
ENDCHAR
STARTCHAR Ocircumflex
ENCODING 212
SWIDTH 722 0
DWIDTH 18 0
BBX 16 22 1 0
BITMAP
0180
03C0
0660
0810
0000
07E0
1C38
381C
6006
6006
C003
C003
C003
C003
C003
C003
C003
6006
6006
381C
1C38
07E0
ENDCHAR
STARTCHAR Otilde
ENCODING 213
SWIDTH 722 0
DWIDTH 18 0
BBX 16 21 1 0
BITMAP
0390
04E0
0000
0000
07E0
1C38
381C
6006
6006
C003
C003
C003
C003
C003
C003
C003
6006
6006
381C
1C38
07E0
ENDCHAR
STARTCHAR Odieresis
ENCODING 214
SWIDTH 722 0
DWIDTH 18 0
BBX 16 21 1 0
BITMAP
0660
0660
0000
0000
07E0
1C38
381C
6006
6006
C003
C003
C003
C003
C003
C003
C003
6006
6006
381C
1C38
07E0
ENDCHAR
STARTCHAR multiply
ENCODING 215
SWIDTH 564 0
DWIDTH 14 0
BBX 10 11 2 1
BITMAP
8040
C0C0
6180
3300
1E00
0C00
1E00
3300
6180
C0C0
8040
ENDCHAR
STARTCHAR Oslash
ENCODING 216
SWIDTH 722 0
DWIDTH 18 0
BBX 16 19 1 -1
BITMAP
0004
07E4
1C38
381C
6026
6046
C043
C083
C083
C103
C103
C203
C203
6406
6806
381C
1C38
27E0
2000
ENDCHAR
STARTCHAR Ugrave
ENCODING 217
SWIDTH 722 0
DWIDTH 18 0
BBX 16 22 1 0
BITMAP
0600
0700
0180
0040
0000
FC1F
3004
3004
3004
3004
3004
3004
3004
3004
3004
3004
3004
3004
3008
1808
1C30
07E0
ENDCHAR
STARTCHAR Uacute
ENCODING 218
SWIDTH 722 0
DWIDTH 18 0
BBX 16 22 1 0
BITMAP
0030
0070
00C0
0100
0000
FC1F
3004
3004
3004
3004
3004
3004
3004
3004
3004
3004
3004
3004
3008
1808
1C30
07E0
ENDCHAR
STARTCHAR Ucircumflex
ENCODING 219
SWIDTH 722 0
DWIDTH 18 0
BBX 16 22 1 0
BITMAP
0180
03C0
0660
0810
0000
FC1F
3004
3004
3004
3004
3004
3004
3004
3004
3004
3004
3004
3004
3008
1808
1C30
07E0
ENDCHAR
STARTCHAR Udieresis
ENCODING 220
SWIDTH 722 0
DWIDTH 18 0
BBX 16 21 1 0
BITMAP
0630
0630
0000
0000
FC1F
3004
3004
3004
3004
3004
3004
3004
3004
3004
3004
3004
3004
3008
1808
1C30
07E0
ENDCHAR
STARTCHAR Yacute
ENCODING 221
SWIDTH 722 0
DWIDTH 16 0
BBX 16 22 0 0
BITMAP
0030
0070
00C0
0100
0000
FC3F
300C
3808
1818
1C10
0C30
0620
0660
0340
03C0
0180
0180
0180
0180
0180
0180
07E0
ENDCHAR
STARTCHAR Thorn
ENCODING 222
SWIDTH 556 0
DWIDTH 15 0
BBX 13 17 1 0
BITMAP
FC00
3000
3000
3000
3FC0
3070
3030
3018
3018
3018
3030
3070
3FC0
3000
3000
3000
FC00
ENDCHAR
STARTCHAR germandbls
ENCODING 223
SWIDTH 500 0
DWIDTH 12 0
BBX 10 17 1 0
BITMAP
1E00
3300
6180
6180
6180
6180
6300
6C00
6700
6380
6180
61C0
60C0
60C0
6CC0
6C80
E700
ENDCHAR
STARTCHAR agrave
ENCODING 224
SWIDTH 444 0
DWIDTH 11 0
BBX 9 17 1 0
BITMAP
6000
7000
1800
0400
0000
3E00
6700
6300
0300
0F00
3B00
6300
C300
C300
C700
FB00
7180
ENDCHAR
STARTCHAR aacute
ENCODING 225
SWIDTH 444 0
DWIDTH 11 0
BBX 9 17 1 0
BITMAP
0300
0700
0C00
1000
0000
3E00
6700
6300
0300
0F00
3B00
6300
C300
C300
C700
FB00
7180
ENDCHAR
STARTCHAR acircumflex
ENCODING 226
SWIDTH 444 0
DWIDTH 11 0
BBX 9 17 1 0
BITMAP
1800
3C00
2400
4200
0000
3E00
6700
6300
0300
0F00
3B00
6300
C300
C300
C700
FB00
7180
ENDCHAR
STARTCHAR atilde
ENCODING 227
SWIDTH 444 0
DWIDTH 11 0
BBX 9 16 1 0
BITMAP
3A00
5C00
0000
0000
3E00
6700
6300
0300
0F00
3B00
6300
C300
C300
C700
FB00
7180
ENDCHAR
STARTCHAR adieresis
ENCODING 228
SWIDTH 444 0
DWIDTH 11 0
BBX 9 16 1 0
BITMAP
6600
6600
0000
0000
3E00
6700
6300
0300
0F00
3B00
6300
C300
C300
C700
FB00
7180
ENDCHAR
STARTCHAR aring
ENCODING 229
SWIDTH 444 0
DWIDTH 11 0
BBX 9 17 1 0
BITMAP
1C00
2200
2200
1C00
0000
3E00
6700
6300
0300
0F00
3B00
6300
C300
C300
C700
FB00
7180
ENDCHAR
STARTCHAR ae
ENCODING 230
SWIDTH 667 0
DWIDTH 16 0
BBX 14 12 1 0
BITMAP
3CF0
6798
630C
030C
0FFC
3B00
6300
C300
C300
C784
FBF8
70F0
ENDCHAR
STARTCHAR ccedilla
ENCODING 231
SWIDTH 444 0
DWIDTH 11 0
BBX 9 18 1 -6
BITMAP
1F00
6380
4180
C000
C000
C000
C000
C000
E000
7080
7F00
1E00
0800
1800
1E00
0600
6600
3C00
ENDCHAR
STARTCHAR egrave
ENCODING 232
SWIDTH 444 0
DWIDTH 11 0
BBX 9 17 1 0
BITMAP
6000
7000
1800
0400
0000
1E00
6300
4180
C180
FF80
C000
C000
C000
E000
7080
7F00
1E00
ENDCHAR
STARTCHAR eacute
ENCODING 233
SWIDTH 444 0
DWIDTH 11 0
BBX 9 17 1 0
BITMAP
0300
0700
0C00
1000
0000
1E00
6300
4180
C180
FF80
C000
C000
C000
E000
7080
7F00
1E00
ENDCHAR
STARTCHAR ecircumflex
ENCODING 234
SWIDTH 444 0
DWIDTH 11 0
BBX 9 17 1 0
BITMAP
0C00
1E00
1200
2100
0000
1E00
6300
4180
C180
FF80
C000
C000
C000
E000
7080
7F00
1E00
ENDCHAR
STARTCHAR edieresis
ENCODING 235
SWIDTH 444 0
DWIDTH 11 0
BBX 9 16 1 0
BITMAP
3300
3300
0000
0000
1E00
6300
4180
C180
FF80
C000
C000
C000
E000
7080
7F00
1E00
ENDCHAR
STARTCHAR igrave
ENCODING 236
SWIDTH 278 0
DWIDTH 6 0
BBX 5 17 0 0
BITMAP
C0
E0
30
08
00
70
30
30
30
30
30
30
30
30
30
30
78
ENDCHAR
STARTCHAR iacute
ENCODING 237
SWIDTH 278 0
DWIDTH 6 0
BBX 5 17 1 0
BITMAP
18
38
60
80
00
E0
60
60
60
60
60
60
60
60
60
60
F0
ENDCHAR
STARTCHAR icircumflex
ENCODING 238
SWIDTH 278 0
DWIDTH 6 0
BBX 6 17 0 0
BITMAP
30
78
48
84
00
70
30
30
30
30
30
30
30
30
30
30
78
ENDCHAR
STARTCHAR idieresis
ENCODING 239
SWIDTH 278 0
DWIDTH 6 0
BBX 6 16 0 0
BITMAP
CC
CC
00
00
70
30
30
30
30
30
30
30
30
30
30
78
ENDCHAR
STARTCHAR eth
ENCODING 240
SWIDTH 500 0
DWIDTH 12 0
BBX 10 17 1 0
BITMAP
C000
7180
1E00
3C00
C600
1F00
7380
6180
C0C0
C0C0
C0C0
C0C0
C0C0
C0C0
6180
7380
1E00
ENDCHAR
STARTCHAR ntilde
ENCODING 241
SWIDTH 500 0
DWIDTH 13 0
BBX 11 16 1 0
BITMAP
1C80
2700
0000
0000
E700
6F80
71C0
60C0
60C0
60C0
60C0
60C0
60C0
60C0
60C0
F1E0
ENDCHAR
STARTCHAR ograve
ENCODING 242
SWIDTH 500 0
DWIDTH 12 0
BBX 10 17 1 0
BITMAP
3000
3800
0C00
0200
0000
1E00
7380
6180
C0C0
C0C0
C0C0
C0C0
C0C0
C0C0
6180
7380
1E00
ENDCHAR
STARTCHAR oacute
ENCODING 243
SWIDTH 500 0
DWIDTH 12 0
BBX 10 17 1 0
BITMAP
0180
0380
0600
0800
0000
1E00
7380
6180
C0C0
C0C0
C0C0
C0C0
C0C0
C0C0
6180
7380
1E00
ENDCHAR
STARTCHAR ocircumflex
ENCODING 244
SWIDTH 500 0
DWIDTH 12 0
BBX 10 17 1 0
BITMAP
0C00
1E00
1200
2100
0000
1E00
7380
6180
C0C0
C0C0
C0C0
C0C0
C0C0
C0C0
6180
7380
1E00
ENDCHAR
STARTCHAR otilde
ENCODING 245
SWIDTH 500 0
DWIDTH 12 0
BBX 10 16 1 0
BITMAP
1C80
2700
0000
0000
1E00
7380
6180
C0C0
C0C0
C0C0
C0C0
C0C0
C0C0
6180
7380
1E00
ENDCHAR
STARTCHAR odieresis
ENCODING 246
SWIDTH 500 0
DWIDTH 12 0
BBX 10 16 1 0
BITMAP
3300
3300
0000
0000
1E00
7380
6180
C0C0
C0C0
C0C0
C0C0
C0C0
C0C0
6180
7380
1E00
ENDCHAR
STARTCHAR divide
ENCODING 247
SWIDTH 564 0
DWIDTH 14 0
BBX 12 10 1 2
BITMAP
0600
0600
0000
0000
FFF0
FFF0
0000
0000
0600
0600
ENDCHAR
STARTCHAR oslash
ENCODING 248
SWIDTH 500 0
DWIDTH 12 0
BBX 10 14 1 -1
BITMAP
00C0
1EC0
7380
6380
C6C0
C4C0
CCC0
C8C0
D8C0
D0C0
7180
7380
DE00
C000
ENDCHAR
STARTCHAR ugrave
ENCODING 249
SWIDTH 500 0
DWIDTH 13 0
BBX 11 17 1 0
BITMAP
3000
3800
0C00
0200
0000
E1C0
60C0
60C0
60C0
60C0
60C0
60C0
60C0
60C0
71C0
3EC0
1CE0
ENDCHAR
STARTCHAR uacute
ENCODING 250
SWIDTH 500 0
DWIDTH 13 0
BBX 11 17 1 0
BITMAP
0180
0380
0600
0800
0000
E1C0
60C0
60C0
60C0
60C0
60C0
60C0
60C0
60C0
71C0
3EC0
1CE0
ENDCHAR
STARTCHAR ucircumflex
ENCODING 251
SWIDTH 500 0
DWIDTH 13 0
BBX 11 17 1 0
BITMAP
0C00
1E00
1200
2100
0000
E1C0
60C0
60C0
60C0
60C0
60C0
60C0
60C0
60C0
71C0
3EC0
1CE0
ENDCHAR
STARTCHAR udieresis
ENCODING 252
SWIDTH 500 0
DWIDTH 13 0
BBX 11 16 1 0
BITMAP
3300
3300
0000
0000
E1C0
60C0
60C0
60C0
60C0
60C0
60C0
60C0
60C0
71C0
3EC0
1CE0
ENDCHAR
STARTCHAR yacute
ENCODING 253
SWIDTH 500 0
DWIDTH 11 0
BBX 11 22 0 -5
BITMAP
0180
0380
0600
0800
0000
F1E0
60C0
6080
3080
3080
3100
1900
1900
1A00
0E00
0E00
0400
0C00
0800
1800
F000
E000
ENDCHAR
STARTCHAR thorn
ENCODING 254
SWIDTH 500 0
DWIDTH 12 0
BBX 10 22 1 -5
BITMAP
E000
6000
6000
6000
6000
6E00
7380
6180
60C0
60C0
60C0
60C0
60C0
60C0
6180
7380
6E00
6000
6000
6000
6000
F000
ENDCHAR
STARTCHAR ydieresis
ENCODING 255
SWIDTH 500 0
DWIDTH 11 0
BBX 11 21 0 -5
BITMAP
3300
3300
0000
0000
F1E0
60C0
6080
3080
3080
3100
1900
1900
1A00
0E00
0E00
0400
0C00
0800
1800
F000
E000
ENDCHAR
STARTCHAR Amacron
ENCODING 256
SWIDTH 722 0
DWIDTH 17 0
BBX 17 20 0 0
BITMAP
03F000
03F000
000000
008000
01C000
01C000
016000
026000
023000
063000
043000
041800
0C1800
0FF800
080C00
180C00
100C00
100600
300600
FC1F80
ENDCHAR
STARTCHAR amacron
ENCODING 257
SWIDTH 444 0
DWIDTH 11 0
BBX 9 15 1 0
BITMAP
3F00
3F00
0000
3E00
6700
6300
0300
0F00
3B00
6300
C300
C300
C700
FB00
7180
ENDCHAR
STARTCHAR Abreve
ENCODING 258
SWIDTH 722 0
DWIDTH 17 0
BBX 17 21 0 0
BITMAP
021000
033000
01E000
000000
008000
01C000
01C000
016000
026000
023000
063000
043000
041800
0C1800
0FF800
080C00
180C00
100C00
100600
300600
FC1F80
ENDCHAR
STARTCHAR abreve
ENCODING 259
SWIDTH 444 0
DWIDTH 11 0
BBX 9 16 1 0
BITMAP
2100
3300
1E00
0000
3E00
6700
6300
0300
0F00
3B00
6300
C300
C300
C700
FB00
7180
ENDCHAR
STARTCHAR Aogonek
ENCODING 260
SWIDTH 722 0
DWIDTH 17 0
BBX 17 22 0 -5
BITMAP
008000
01C000
01C000
016000
026000
023000
063000
043000
041800
0C1800
0FF800
080C00
180C00
100C00
100600
300600
FC1F80
00C000
018000
018000
019000
00E000
ENDCHAR
STARTCHAR aogonek
ENCODING 261
SWIDTH 444 0
DWIDTH 11 0
BBX 9 17 1 -5
BITMAP
3E00
6700
6300
0300
0F00
3B00
6300
C300
C300
C700
FB00
7180
1800
3000
3000
3200
1C00
ENDCHAR
STARTCHAR Cacute
ENCODING 262
SWIDTH 667 0
DWIDTH 16 0
BBX 14 22 1 0
BITMAP
0060
00E0
0180
0200
0000
07E4
1C3C
380C
6004
6004
C000
C000
C000
C000
C000
C000
C000
6000
6004
3808
1E38
07E0
ENDCHAR
STARTCHAR cacute
ENCODING 263
SWIDTH 444 0
DWIDTH 11 0
BBX 9 17 1 0
BITMAP
0300
0700
0C00
1000
0000
1F00
6380
4180
C000
C000
C000
C000
C000
E000
7080
7F00
1E00
ENDCHAR
STARTCHAR Ccircumflex
ENCODING 264
SWIDTH 667 0
DWIDTH 16 0
BBX 14 22 1 0
BITMAP
0180
03C0
0240
0420
0000
07E4
1C3C
380C
6004
6004
C000
C000
C000
C000
C000
C000
C000
6000
6004
3808
1E38
07E0
ENDCHAR
STARTCHAR ccircumflex
ENCODING 265
SWIDTH 444 0
DWIDTH 11 0
BBX 9 17 1 0
BITMAP
0C00
1E00
1200
2100
0000
1F00
6380
4180
C000
C000
C000
C000
C000
E000
7080
7F00
1E00
ENDCHAR
STARTCHAR Cdotaccent
ENCODING 266
SWIDTH 667 0
DWIDTH 16 0
BBX 14 20 1 0
BITMAP
0180
0180
0000
07E4
1C3C
380C
6004
6004
C000
C000
C000
C000
C000
C000
C000
6000
6004
3808
1E38
07E0
ENDCHAR
STARTCHAR cdotaccent
ENCODING 267
SWIDTH 444 0
DWIDTH 11 0
BBX 9 15 1 0
BITMAP
0C00
0C00
0000
1F00
6380
4180
C000
C000
C000
C000
C000
E000
7080
7F00
1E00
ENDCHAR
STARTCHAR Ccaron
ENCODING 268
SWIDTH 667 0
DWIDTH 16 0
BBX 14 22 1 0
BITMAP
0420
0240
03C0
0180
0000
07E4
1C3C
380C
6004
6004
C000
C000
C000
C000
C000
C000
C000
6000
6004
3808
1E38
07E0
ENDCHAR
STARTCHAR ccaron
ENCODING 269
SWIDTH 444 0
DWIDTH 11 0
BBX 9 17 1 0
BITMAP
2100
1200
1E00
0C00
0000
1F00
6380
4180
C000
C000
C000
C000
C000
E000
7080
7F00
1E00
ENDCHAR
STARTCHAR Dcaron
ENCODING 270
SWIDTH 722 0
DWIDTH 17 0
BBX 15 22 1 0
BITMAP
0840
0480
0780
0300
0000
FFC0
3070
3038
300C
300C
3006
3006
3006
3006
3006
3006
3006
300C
300C
3038
3070
FFC0
ENDCHAR
STARTCHAR dcaron
ENCODING 271
SWIDTH 808 0
DWIDTH 19 0
BBX 16 17 1 0
BITMAP
0386
0187
0181
0183
0186
1D80
7380
6180
C180
C180
C180
C180
C180
C180
6180
7380
1EC0
ENDCHAR
STARTCHAR Dcroat
ENCODING 272
SWIDTH 722 0
DWIDTH 17 0
BBX 16 17 0 0
BITMAP
7FE0
1838
181C
1806
1806
1803
1803
1803
FF03
1803
1803
1803
1806
1806
181C
1838
7FE0
ENDCHAR
STARTCHAR dcroat
ENCODING 273
SWIDTH 500 0
DWIDTH 12 0
BBX 10 17 1 0
BITMAP
0380
0180
0180
0FC0
0FC0
1D80
7380
6180
C180
C180
C180
C180
C180
C180
6180
7380
1EC0
ENDCHAR
STARTCHAR Emacron
ENCODING 274
SWIDTH 611 0
DWIDTH 15 0
BBX 13 20 1 0
BITMAP
1F80
1F80
0000
FFF0
3030
3010
3010
3000
3000
3040
3040
3FC0
3040
3040
3000
3000
3008
3008
3018
FFF8
ENDCHAR
STARTCHAR emacron
ENCODING 275
SWIDTH 444 0
DWIDTH 11 0
BBX 9 15 1 0
BITMAP
3F00
3F00
0000
1E00
6300
4180
C180
FF80
C000
C000
C000
E000
7080
7F00
1E00
ENDCHAR
STARTCHAR Ebreve
ENCODING 276
SWIDTH 611 0
DWIDTH 15 0
BBX 13 21 1 0
BITMAP
1080
1980
0F00
0000
FFF0
3030
3010
3010
3000
3000
3040
3040
3FC0
3040
3040
3000
3000
3008
3008
3018
FFF8
ENDCHAR
STARTCHAR ebreve
ENCODING 277
SWIDTH 444 0
DWIDTH 11 0
BBX 9 16 1 0
BITMAP
2100
3300
1E00
0000
1E00
6300
4180
C180
FF80
C000
C000
C000
E000
7080
7F00
1E00
ENDCHAR
STARTCHAR Edotaccent
ENCODING 278
SWIDTH 611 0
DWIDTH 15 0
BBX 13 20 1 0
BITMAP
0600
0600
0000
FFF0
3030
3010
3010
3000
3000
3040
3040
3FC0
3040
3040
3000
3000
3008
3008
3018
FFF8
ENDCHAR
STARTCHAR edotaccent
ENCODING 279
SWIDTH 444 0
DWIDTH 11 0
BBX 9 15 1 0
BITMAP
0C00
0C00
0000
1E00
6300
4180
C180
FF80
C000
C000
C000
E000
7080
7F00
1E00
ENDCHAR
STARTCHAR Eogonek
ENCODING 280
SWIDTH 611 0
DWIDTH 15 0
BBX 13 22 1 -5
BITMAP
FFF0
3030
3010
3010
3000
3000
3040
3040
3FC0
3040
3040
3000
3000
3008
3008
3018
FFF8
0300
0600
0600
0640
0380
ENDCHAR
STARTCHAR eogonek
ENCODING 281
SWIDTH 444 0
DWIDTH 11 0
BBX 9 17 1 -5
BITMAP
1E00
6300
4180
C180
FF80
C000
C000
C000
E000
7080
7F00
1E00
1800
3000
3000
3200
1C00
ENDCHAR
STARTCHAR Ecaron
ENCODING 282
SWIDTH 611 0
DWIDTH 15 0
BBX 13 22 1 0
BITMAP
1080
0900
0F00
0600
0000
FFF0
3030
3010
3010
3000
3000
3040
3040
3FC0
3040
3040
3000
3000
3008
3008
3018
FFF8
ENDCHAR
STARTCHAR ecaron
ENCODING 283
SWIDTH 444 0
DWIDTH 11 0
BBX 9 17 1 0
BITMAP
2100
1200
1E00
0C00
0000
1E00
6300
4180
C180
FF80
C000
C000
C000
E000
7080
7F00
1E00
ENDCHAR
STARTCHAR Gcircumflex
ENCODING 284
SWIDTH 722 0
DWIDTH 18 0
BBX 16 22 1 0
BITMAP
0180
03C0
0240
0420
0000
07E4
1C3C
380C
6004
6004
C000
C000
C000
C000
C03F
C00C
C00C
600C
600C
381C
1E38
07E0
ENDCHAR
STARTCHAR gcircumflex
ENCODING 285
SWIDTH 500 0
DWIDTH 12 0
BBX 11 22 1 -5
BITMAP
0C00
1E00
1200
2100
0000
1FC0
3300
6180
6180
6180
6180
3300
3E00
3000
6000
7F00
3FC0
6060
C020
C060
F1C0
3F00
ENDCHAR
STARTCHAR Gbreve
ENCODING 286
SWIDTH 722 0
DWIDTH 18 0
BBX 16 21 1 0
BITMAP
0420
0660
03C0
0000
07E4
1C3C
380C
6004
6004
C000
C000
C000
C000
C03F
C00C
C00C
600C
600C
381C
1E38
07E0
ENDCHAR
STARTCHAR gbreve
ENCODING 287
SWIDTH 500 0
DWIDTH 12 0
BBX 11 21 1 -5
BITMAP
2100
3300
1E00
0000
1FC0
3300
6180
6180
6180
6180
3300
3E00
3000
6000
7F00
3FC0
6060
C020
C060
F1C0
3F00
ENDCHAR
STARTCHAR Gdotaccent
ENCODING 288
SWIDTH 722 0
DWIDTH 18 0
BBX 16 20 1 0
BITMAP
0180
0180
0000
07E4
1C3C
380C
6004
6004
C000
C000
C000
C000
C03F
C00C
C00C
600C
600C
381C
1E38
07E0
ENDCHAR
STARTCHAR gdotaccent
ENCODING 289
SWIDTH 500 0
DWIDTH 12 0
BBX 11 20 1 -5
BITMAP
0C00
0C00
0000
1FC0
3300
6180
6180
6180
6180
3300
3E00
3000
6000
7F00
3FC0
6060
C020
C060
F1C0
3F00
ENDCHAR
STARTCHAR Gcommaaccent
ENCODING 290
SWIDTH 722 0
DWIDTH 18 0
BBX 16 23 1 -6
BITMAP
07E4
1C3C
380C
6004
6004
C000
C000
C000
C000
C03F
C00C
C00C
600C
600C
381C
1E38
07E0
0000
0300
0380
0080
0180
0300
ENDCHAR
STARTCHAR gcommaaccent
ENCODING 291
SWIDTH 500 0
DWIDTH 12 0
BBX 11 23 1 -5
BITMAP
0600
0C00
0800
0E00
0600
0000
1FC0
3300
6180
6180
6180
6180
3300
3E00
3000
6000
7F00
3FC0
6060
C020
C060
F1C0
3F00
ENDCHAR
STARTCHAR Hcircumflex
ENCODING 292
SWIDTH 722 0
DWIDTH 19 0
BBX 17 22 1 0
BITMAP
00C000
01E000
012000
021000
000000
FC1F80
300600
300600
300600
300600
300600
300600
300600
3FFE00
300600
300600
300600
300600
300600
300600
300600
FC1F80
ENDCHAR
STARTCHAR hcircumflex
ENCODING 293
SWIDTH 500 0
DWIDTH 13 0
BBX 11 22 1 0
BITMAP
3000
7800
4800
8400
0000
E000
6000
6000
6000
6000
6700
6F80
71C0
60C0
60C0
60C0
60C0
60C0
60C0
60C0
60C0
F1E0
ENDCHAR
STARTCHAR Hbar
ENCODING 294
SWIDTH 722 0
DWIDTH 19 0
BBX 17 17 1 0
BITMAP
FC1F80
300600
300600
300600
FFFF80
FFFF80
300600
300600
3FFE00
300600
300600
300600
300600
300600
300600
300600
FC1F80
ENDCHAR
STARTCHAR hbar
ENCODING 295
SWIDTH 500 0
DWIDTH 13 0
BBX 11 17 1 0
BITMAP
E000
6000
6000
FC00
FC00
6700
6F80
71C0
60C0
60C0
60C0
60C0
60C0
60C0
60C0
60C0
F1E0
ENDCHAR
STARTCHAR Itilde
ENCODING 296
SWIDTH 333 0
DWIDTH 8 0
BBX 6 20 1 0
BITMAP
74
B8
00
FC
30
30
30
30
30
30
30
30
30
30
30
30
30
30
30
FC
ENDCHAR
STARTCHAR itilde
ENCODING 297
SWIDTH 278 0
DWIDTH 6 0
BBX 6 15 0 0
BITMAP
74
B8
00
70
30
30
30
30
30
30
30
30
30
30
78
ENDCHAR
STARTCHAR Imacron
ENCODING 298
SWIDTH 333 0
DWIDTH 8 0
BBX 6 20 1 0
BITMAP
FC
FC
00
FC
30
30
30
30
30
30
30
30
30
30
30
30
30
30
30
FC
ENDCHAR
STARTCHAR imacron
ENCODING 299
SWIDTH 278 0
DWIDTH 6 0
BBX 6 15 0 0
BITMAP
FC
FC
00
70
30
30
30
30
30
30
30
30
30
30
78
ENDCHAR
STARTCHAR Ibreve
ENCODING 300
SWIDTH 333 0
DWIDTH 8 0
BBX 6 21 1 0
BITMAP
84
CC
78
00
FC
30
30
30
30
30
30
30
30
30
30
30
30
30
30
30
FC
ENDCHAR
STARTCHAR ibreve
ENCODING 301
SWIDTH 278 0
DWIDTH 6 0
BBX 6 16 0 0
BITMAP
84
CC
78
00
70
30
30
30
30
30
30
30
30
30
30
78
ENDCHAR
STARTCHAR Iogonek
ENCODING 302
SWIDTH 333 0
DWIDTH 8 0
BBX 6 22 1 -5
BITMAP
FC
30
30
30
30
30
30
30
30
30
30
30
30
30
30
30
FC
30
60
60
64
38
ENDCHAR
STARTCHAR iogonek
ENCODING 303
SWIDTH 278 0
DWIDTH 6 0
BBX 5 22 1 -5
BITMAP
60
60
00
00
00
E0
60
60
60
60
60
60
60
60
60
60
F0
60
C0
C0
C8
70
ENDCHAR
STARTCHAR Idotaccent
ENCODING 304
SWIDTH 333 0
DWIDTH 8 0
BBX 6 20 1 0
BITMAP
30
30
00
FC
30
30
30
30
30
30
30
30
30
30
30
30
30
30
30
FC
ENDCHAR
STARTCHAR dotlessi
ENCODING 305
SWIDTH 278 0
DWIDTH 6 0
BBX 4 12 1 0
BITMAP
E0
60
60
60
60
60
60
60
60
60
60
F0
ENDCHAR
STARTCHAR IJ
ENCODING 306
SWIDTH 705 0
DWIDTH 19 0
BBX 17 17 1 0
BITMAP
FC1F80
300600
300600
300600
300600
300600
300600
300600
300600
300600
300600
300600
300600
300600
30C600
30CC00
FC7800
ENDCHAR
STARTCHAR ij
ENCODING 307
SWIDTH 542 0
DWIDTH 12 0
BBX 9 22 1 -5
BITMAP
6180
6180
0000
0000
0000
E380
6180
6180
6180
6180
6180
6180
6180
6180
6180
6180
F180
0180
0180
0180
0700
0600
ENDCHAR
STARTCHAR Jcircumflex
ENCODING 308
SWIDTH 389 0
DWIDTH 11 0
BBX 9 22 1 0
BITMAP
0600
0F00
0900
1080
0000
1F80
0600
0600
0600
0600
0600
0600
0600
0600
0600
0600
0600
0600
0600
C600
CC00
7800
ENDCHAR
STARTCHAR jcircumflex
ENCODING 309
SWIDTH 278 0
DWIDTH 6 0
BBX 6 22 0 -5
BITMAP
30
78
48
84
00
70
30
30
30
30
30
30
30
30
30
30
30
30
30
30
E0
C0
ENDCHAR
STARTCHAR Kcommaaccent
ENCODING 310
SWIDTH 722 0
DWIDTH 17 0
BBX 16 23 1 -6
BITMAP
FC7E
3018
3030
3060
30C0
3180
3300
3E00
3F00
3380
31C0
30E0
3070
3038
301C
300E
FC1F
0000
0180
01C0
0040
00C0
0180
ENDCHAR
STARTCHAR kcommaaccent
ENCODING 311
SWIDTH 500 0
DWIDTH 12 0
BBX 11 23 1 -6
BITMAP
E000
6000
6000
6000
6000
67C0
6300
6600
6400
6800
7800
6C00
6E00
6700
6380
61C0
F3E0
0000
0C00
0E00
0200
0600
0C00
ENDCHAR
STARTCHAR kgreenlandic
ENCODING 312
SWIDTH 500 0
DWIDTH 12 0
BBX 11 12 1 0
BITMAP
67C0
6300
6600
6400
6800
7800
6C00
6E00
6700
6380
61C0
F3E0
ENDCHAR
STARTCHAR Lacute
ENCODING 313
SWIDTH 611 0
DWIDTH 14 0
BBX 13 22 1 0
BITMAP
0600
0E00
1800
2000
0000
FC00
3000
3000
3000
3000
3000
3000
3000
3000
3000
3000
3000
3000
3008
3008
3018
FFF8
ENDCHAR
STARTCHAR lacute
ENCODING 314
SWIDTH 278 0
DWIDTH 6 0
BBX 5 22 1 0
BITMAP
18
38
60
80
00
E0
60
60
60
60
60
60
60
60
60
60
60
60
60
60
60
F0
ENDCHAR
STARTCHAR Lcommaaccent
ENCODING 315
SWIDTH 611 0
DWIDTH 14 0
BBX 13 23 1 -6
BITMAP
FC00
3000
3000
3000
3000
3000
3000
3000
3000
3000
3000
3000
3000
3008
3008
3018
FFF8
0000
0600
0700
0100
0300
0600
ENDCHAR
STARTCHAR lcommaaccent
ENCODING 316
SWIDTH 278 0
DWIDTH 6 0
BBX 4 23 1 -6
BITMAP
E0
60
60
60
60
60
60
60
60
60
60
60
60
60
60
60
F0
00
60
70
10
30
60
ENDCHAR
STARTCHAR Lcaron
ENCODING 317
SWIDTH 913 0
DWIDTH 21 0
BBX 18 17 1 0
BITMAP
FC0180
3001C0
300040
3000C0
300180
300000
300000
300000
300000
300000
300000
300000
300000
300800
300800
301800
FFF800
ENDCHAR
STARTCHAR lcaron
ENCODING 318
SWIDTH 597 0
DWIDTH 14 0
BBX 11 17 1 0
BITMAP
E0C0
60E0
6020
6060
60C0
6000
6000
6000
6000
6000
6000
6000
6000
6000
6000
6000
F000
ENDCHAR
STARTCHAR Ldot
ENCODING 319
SWIDTH 830 0
DWIDTH 19 0
BBX 16 17 1 0
BITMAP
FC00
3000
3000
3000
3000
3000
3000
3000
3000
3003
3003
3000
3000
3008
3008
3018
FFF8
ENDCHAR
STARTCHAR ldot
ENCODING 320
SWIDTH 514 0
DWIDTH 12 0
BBX 9 17 1 0
BITMAP
E000
6000
6000
6000
6000
6000
6000
6000
6000
6180
6180
6000
6000
6000
6000
6000
F000
ENDCHAR
STARTCHAR Lslash
ENCODING 321
SWIDTH 611 0
DWIDTH 15 0
BBX 14 17 0 0
BITMAP
7E00
1800
1800
1800
1800
1900
1A00
1C00
3800
5800
9800
1800
1800
1804
1804
180C
7FFC
ENDCHAR
STARTCHAR lslash
ENCODING 322
SWIDTH 278 0
DWIDTH 7 0
BBX 6 17 0 0
BITMAP
70
30
30
30
30
30
34
38
70
B0
30
30
30
30
30
30
78
ENDCHAR
STARTCHAR Nacute
ENCODING 323
SWIDTH 722 0
DWIDTH 18 0
BBX 16 22 1 0
BITMAP
0060
00E0
0180
0200
0000
F01F
3004
3804
3804
2C04
2604
2604
2304
2184
2184
20C4
2064
2064
2034
201C
201C
F80C
ENDCHAR
STARTCHAR nacute
ENCODING 324
SWIDTH 500 0
DWIDTH 13 0
BBX 11 17 1 0
BITMAP
0300
0700
0C00
1000
0000
E700
6F80
71C0
60C0
60C0
60C0
60C0
60C0
60C0
60C0
60C0
F1E0
ENDCHAR
STARTCHAR Ncommaaccent
ENCODING 325
SWIDTH 722 0
DWIDTH 18 0
BBX 16 23 1 -6
BITMAP
F01F
3004
3804
3804
2C04
2604
2604
2304
2184
2184
20C4
2064
2064
2034
201C
201C
F80C
0000
0180
01C0
0040
00C0
0180
ENDCHAR
STARTCHAR ncommaaccent
ENCODING 326
SWIDTH 500 0
DWIDTH 13 0
BBX 11 18 1 -6
BITMAP
E700
6F80
71C0
60C0
60C0
60C0
60C0
60C0
60C0
60C0
60C0
F1E0
0000
0C00
0E00
0200
0600
0C00
ENDCHAR
STARTCHAR Ncaron
ENCODING 327
SWIDTH 722 0
DWIDTH 18 0
BBX 16 22 1 0
BITMAP
0840
0480
0780
0300
0000
F01F
3004
3804
3804
2C04
2604
2604
2304
2184
2184
20C4
2064
2064
2034
201C
201C
F80C
ENDCHAR
STARTCHAR ncaron
ENCODING 328
SWIDTH 500 0
DWIDTH 13 0
BBX 11 17 1 0
BITMAP
2100
1200
1E00
0C00
0000
E700
6F80
71C0
60C0
60C0
60C0
60C0
60C0
60C0
60C0
60C0
F1E0
ENDCHAR
STARTCHAR napostrophe
ENCODING 329
SWIDTH 816 0
DWIDTH 21 0
BBX 17 17 3 0
BITMAP
C00000
E00000
200000
600000
C00000
039C00
01BE00
01C700
018300
018300
018300
018300
018300
018300
018300
018300
03C780
ENDCHAR
STARTCHAR Eng
ENCODING 330
SWIDTH 722 0
DWIDTH 18 0
BBX 16 22 1 -5
BITMAP
F01F
3004
3804
3804
2C04
2604
2604
2304
2184
2184
20C4
2064
206C
203C
201C
201C
F80C
000C
000C
000C
0038
0030
ENDCHAR
STARTCHAR eng
ENCODING 331
SWIDTH 500 0
DWIDTH 13 0
BBX 10 17 1 -5
BITMAP
E700
6F80
71C0
60C0
60C0
60C0
60C0
60C0
60C0
60C0
60C0
F0C0
00C0
00C0
00C0
0380
0300
ENDCHAR
STARTCHAR Omacron
ENCODING 332
SWIDTH 722 0
DWIDTH 18 0
BBX 16 20 1 0
BITMAP
07E0
07E0
0000
07E0
1C38
381C
6006
6006
C003
C003
C003
C003
C003
C003
C003
6006
6006
381C
1C38
07E0
ENDCHAR
STARTCHAR omacron
ENCODING 333
SWIDTH 500 0
DWIDTH 12 0
BBX 10 15 1 0
BITMAP
3F00
3F00
0000
1E00
7380
6180
C0C0
C0C0
C0C0
C0C0
C0C0
C0C0
6180
7380
1E00
ENDCHAR
STARTCHAR Obreve
ENCODING 334
SWIDTH 722 0
DWIDTH 18 0
BBX 16 21 1 0
BITMAP
0420
0660
03C0
0000
07E0
1C38
381C
6006
6006
C003
C003
C003
C003
C003
C003
C003
6006
6006
381C
1C38
07E0
ENDCHAR
STARTCHAR obreve
ENCODING 335
SWIDTH 500 0
DWIDTH 12 0
BBX 10 16 1 0
BITMAP
2100
3300
1E00
0000
1E00
7380
6180
C0C0
C0C0
C0C0
C0C0
C0C0
C0C0
6180
7380
1E00
ENDCHAR
STARTCHAR Ohungarumlaut
ENCODING 336
SWIDTH 722 0
DWIDTH 18 0
BBX 16 22 1 0
BITMAP
0198
03B8
0660
0880
0000
07E0
1C38
381C
6006
6006
C003
C003
C003
C003
C003
C003
C003
6006
6006
381C
1C38
07E0
ENDCHAR
STARTCHAR ohungarumlaut
ENCODING 337
SWIDTH 500 0
DWIDTH 12 0
BBX 10 17 1 0
BITMAP
0CC0
1DC0
3300
4400
0000
1E00
7380
6180
C0C0
C0C0
C0C0
C0C0
C0C0
C0C0
6180
7380
1E00
ENDCHAR
STARTCHAR OE
ENCODING 338
SWIDTH 889 0
DWIDTH 23 0
BBX 21 17 1 0
BITMAP
07FFF0
1C3030
383010
603010
603000
C03000
C03040
C03040
C03FC0
C03040
C03040
C03000
603000
603008
383008
1C3018
07FFF8
ENDCHAR
STARTCHAR oe
ENCODING 339
SWIDTH 722 0
DWIDTH 17 0
BBX 15 12 1 0
BITMAP
1E78
73CC
6186
C186
C1FE
C180
C180
C180
C180
61C2
73FC
1E78
ENDCHAR
STARTCHAR Racute
ENCODING 340
SWIDTH 667 0
DWIDTH 16 0
BBX 15 22 1 0
BITMAP
00C0
01C0
0300
0400
0000
FFC0
3070
3030
3038
3018
3038
3030
3070
3FC0
3380
31C0
30C0
3060
3070
3038
301C
FC1E
ENDCHAR
STARTCHAR racute
ENCODING 341
SWIDTH 333 0
DWIDTH 8 0
BBX 7 17 1 0
BITMAP
06
0E
18
20
00
E6
6E
76
60
60
60
60
60
60
60
60
F0
ENDCHAR
STARTCHAR Rcommaaccent
ENCODING 342
SWIDTH 667 0
DWIDTH 16 0
BBX 15 23 1 -6
BITMAP
FFC0
3070
3030
3038
3018
3038
3030
3070
3FC0
3380
31C0
30C0
3060
3070
3038
301C
FC1E
0000
0300
0380
0080
0180
0300
ENDCHAR
STARTCHAR rcommaaccent
ENCODING 343
SWIDTH 333 0
DWIDTH 8 0
BBX 7 18 1 -6
BITMAP
E6
6E
76
60
60
60
60
60
60
60
60
F0
00
60
70
10
30
60
ENDCHAR
STARTCHAR Rcaron
ENCODING 344
SWIDTH 667 0
DWIDTH 16 0
BBX 15 22 1 0
BITMAP
0840
0480
0780
0300
0000
FFC0
3070
3030
3038
3018
3038
3030
3070
3FC0
3380
31C0
30C0
3060
3070
3038
301C
FC1E
ENDCHAR
STARTCHAR rcaron
ENCODING 345
SWIDTH 333 0
DWIDTH 8 0
BBX 7 17 1 0
BITMAP
42
24
3C
18
00
E6
6E
76
60
60
60
60
60
60
60
60
F0
ENDCHAR
STARTCHAR Sacute
ENCODING 346
SWIDTH 556 0
DWIDTH 13 0
BBX 11 22 1 0
BITMAP
0300
0700
0C00
1000
0000
1E40
63C0
C0C0
C040
C040
E000
7800
1E00
0F80
03C0
00E0
0060
8060
8060
C0C0
F180
9E00
ENDCHAR
STARTCHAR sacute
ENCODING 347
SWIDTH 389 0
DWIDTH 10 0
BBX 8 17 1 0
BITMAP
06
0E
18
20
00
3E
66
C2
E0
70
7C
1E
07
03
83
C6
F8
ENDCHAR
STARTCHAR Scircumflex
ENCODING 348
SWIDTH 556 0
DWIDTH 13 0
BBX 11 22 1 0
BITMAP
0C00
1E00
1200
2100
0000
1E40
63C0
C0C0
C040
C040
E000
7800
1E00
0F80
03C0
00E0
0060
8060
8060
C0C0
F180
9E00
ENDCHAR
STARTCHAR scircumflex
ENCODING 349
SWIDTH 389 0
DWIDTH 10 0
BBX 8 17 1 0
BITMAP
18
3C
24
42
00
3E
66
C2
E0
70
7C
1E
07
03
83
C6
F8
ENDCHAR
STARTCHAR Scedilla
ENCODING 350
SWIDTH 556 0
DWIDTH 13 0
BBX 11 23 1 -6
BITMAP
1E40
63C0
C0C0
C040
C040
E000
7800
1E00
0F80
03C0
00E0
0060
8060
8060
C0C0
F180
9E00
0400
0C00
0F00
0300
3300
1E00
ENDCHAR
STARTCHAR scedilla
ENCODING 351
SWIDTH 389 0
DWIDTH 10 0
BBX 8 18 1 -6
BITMAP
3E
66
C2
E0
70
7C
1E
07
03
83
C6
F8
08
18
1E
06
66
3C
ENDCHAR
STARTCHAR Scaron
ENCODING 352
SWIDTH 556 0
DWIDTH 13 0
BBX 11 22 1 0
BITMAP
4080
3300
1E00
0C00
0000
1E40
63C0
C0C0
C040
C040
E000
7800
1E00
0F80
03C0
00E0
0060
8060
8060
C0C0
F180
9E00
ENDCHAR
STARTCHAR scaron
ENCODING 353
SWIDTH 389 0
DWIDTH 10 0
BBX 8 18 1 0
BITMAP
42
24
3C
18
00
00
3E
46
C2
E0
70
7C
1E
07
03
83
C6
F8
ENDCHAR
STARTCHAR Tcommaaccent
ENCODING 354
SWIDTH 611 0
DWIDTH 16 0
BBX 14 23 1 -6
BITMAP
FFFC
C30C
8304
8304
0300
0300
0300
0300
0300
0300
0300
0300
0300
0300
0300
0300
0FC0
0100
0300
03C0
00C0
0CC0
0780
ENDCHAR
STARTCHAR tcommaaccent
ENCODING 355
SWIDTH 278 0
DWIDTH 7 0
BBX 7 21 0 -6
BITMAP
10
30
70
FE
30
30
30
30
30
30
30
30
30
32
1C
08
18
1E
06
66
3C
ENDCHAR
STARTCHAR Tcaron
ENCODING 356
SWIDTH 611 0
DWIDTH 16 0
BBX 14 22 1 0
BITMAP
0840
0480
0780
0300
0000
FFFC
C30C
8304
8304
0300
0300
0300
0300
0300
0300
0300
0300
0300
0300
0300
0300
0FC0
ENDCHAR
STARTCHAR tcaron
ENCODING 357
SWIDTH 597 0
DWIDTH 15 0
BBX 13 17 0 0
BITMAP
0030
0038
1008
3018
7030
FE00
3000
3000
3000
3000
3000
3000
3000
3000
3000
3200
1C00
ENDCHAR
STARTCHAR Tbar
ENCODING 358
SWIDTH 611 0
DWIDTH 16 0
BBX 14 17 1 0
BITMAP
FFFC
C30C
8304
8304
0300
0300
0300
0FC0
0FC0
0300
0300
0300
0300
0300
0300
0300
0FC0
ENDCHAR
STARTCHAR tbar
ENCODING 359
SWIDTH 278 0
DWIDTH 7 0
BBX 7 15 0 0
BITMAP
10
30
70
FE
30
30
30
30
7E
7E
30
30
30
32
1C
ENDCHAR
STARTCHAR Utilde
ENCODING 360
SWIDTH 722 0
DWIDTH 18 0
BBX 16 20 1 0
BITMAP
03A0
05C0
0000
FC1F
3004
3004
3004
3004
3004
3004
3004
3004
3004
3004
3004
3004
3008
1808
1C30
07E0
ENDCHAR
STARTCHAR utilde
ENCODING 361
SWIDTH 500 0
DWIDTH 13 0
BBX 11 15 1 0
BITMAP
0E80
1700
0000
E1C0
60C0
60C0
60C0
60C0
60C0
60C0
60C0
60C0
71C0
3EC0
1CE0
ENDCHAR
STARTCHAR Umacron
ENCODING 362
SWIDTH 722 0
DWIDTH 18 0
BBX 16 20 1 0
BITMAP
0FC0
0FC0
0000
FC1F
3004
3004
3004
3004
3004
3004
3004
3004
3004
3004
3004
3004
3008
1808
1C30
07E0
ENDCHAR
STARTCHAR umacron
ENCODING 363
SWIDTH 500 0
DWIDTH 13 0
BBX 11 15 1 0
BITMAP
3F00
3F00
0000
E1C0
60C0
60C0
60C0
60C0
60C0
60C0
60C0
60C0
71C0
3EC0
1CE0
ENDCHAR
STARTCHAR Ubreve
ENCODING 364
SWIDTH 722 0
DWIDTH 18 0
BBX 16 21 1 0
BITMAP
0840
0CC0
0780
0000
FC1F
3004
3004
3004
3004
3004
3004
3004
3004
3004
3004
3004
3004
3008
1808
1C30
07E0
ENDCHAR
STARTCHAR ubreve
ENCODING 365
SWIDTH 500 0
DWIDTH 13 0
BBX 11 16 1 0
BITMAP
2100
3300
1E00
0000
E1C0
60C0
60C0
60C0
60C0
60C0
60C0
60C0
60C0
71C0
3EC0
1CE0
ENDCHAR
STARTCHAR Uring
ENCODING 366
SWIDTH 722 0
DWIDTH 18 0
BBX 16 22 1 0
BITMAP
0380
0440
0440
0380
0000
FC1F
3004
3004
3004
3004
3004
3004
3004
3004
3004
3004
3004
3004
3008
1808
1C30
07E0
ENDCHAR
STARTCHAR uring
ENCODING 367
SWIDTH 500 0
DWIDTH 13 0
BBX 11 17 1 0
BITMAP
0E00
1100
1100
0E00
0000
E1C0
60C0
60C0
60C0
60C0
60C0
60C0
60C0
60C0
71C0
3EC0
1CE0
ENDCHAR
STARTCHAR Uhungarumlaut
ENCODING 368
SWIDTH 722 0
DWIDTH 18 0
BBX 16 22 1 0
BITMAP
0198
03B8
0660
0880
0000
FC1F
3004
3004
3004
3004
3004
3004
3004
3004
3004
3004
3004
3004
3008
1808
1C30
07E0
ENDCHAR
STARTCHAR uhungarumlaut
ENCODING 369
SWIDTH 500 0
DWIDTH 13 0
BBX 11 17 1 0
BITMAP
0660
0EE0
1980
2200
0000
E1C0
60C0
60C0
60C0
60C0
60C0
60C0
60C0
60C0
71C0
3EC0
1CE0
ENDCHAR
STARTCHAR Uogonek
ENCODING 370
SWIDTH 722 0
DWIDTH 18 0
BBX 16 22 1 -5
BITMAP
FC1F
3004
3004
3004
3004
3004
3004
3004
3004
3004
3004
3004
3004
3008
1808
1C30
07E0
0180
0300
0300
0320
01C0
ENDCHAR
STARTCHAR uogonek
ENCODING 371
SWIDTH 500 0
DWIDTH 13 0
BBX 11 17 1 -5
BITMAP
E1C0
60C0
60C0
60C0
60C0
60C0
60C0
60C0
60C0
71C0
3EC0
1CE0
0600
0C00
0C00
0C80
0700
ENDCHAR
STARTCHAR Wcircumflex
ENCODING 372
SWIDTH 944 0
DWIDTH 23 0
BBX 23 22 0 0
BITMAP
003000
007800
004800
008400
000000
FC7E7E
301818
301810
181810
181830
182C20
0C2C20
0C2C60
064C60
064C40
064640
0346C0
034680
038780
018380
018300
018300
ENDCHAR
STARTCHAR wcircumflex
ENCODING 373
SWIDTH 722 0
DWIDTH 17 0
BBX 17 17 0 0
BITMAP
018000
03C000
024000
042000
000000
F1E780
60C300
60C200
30C200
30C200
316400
196400
1A6400
1A2800
0E3800
0E3800
041000
ENDCHAR
STARTCHAR Ycircumflex
ENCODING 374
SWIDTH 722 0
DWIDTH 16 0
BBX 16 22 0 0
BITMAP
0180
03C0
0240
0420
0000
FC3F
300C
3808
1818
1C10
0C30
0620
0660
0340
03C0
0180
0180
0180
0180
0180
0180
07E0
ENDCHAR
STARTCHAR ycircumflex
ENCODING 375
SWIDTH 500 0
DWIDTH 11 0
BBX 11 22 0 -5
BITMAP
0C00
1E00
1200
2100
0000
F1E0
60C0
6080
3080
3080
3100
1900
1900
1A00
0E00
0E00
0400
0C00
0800
1800
F000
E000
ENDCHAR
STARTCHAR Ydieresis
ENCODING 376
SWIDTH 722 0
DWIDTH 16 0
BBX 16 21 0 0
BITMAP
0660
0660
0000
0000
FC3F
300C
3808
1818
1C10
0C30
0620
0660
0340
03C0
0180
0180
0180
0180
0180
0180
07E0
ENDCHAR
STARTCHAR Zacute
ENCODING 377
SWIDTH 611 0
DWIDTH 15 0
BBX 13 22 1 0
BITMAP
00C0
01C0
0300
0400
0000
FFF0
C070
80E0
80C0
01C0
0380
0300
0700
0600
0E00
1C00
1800
3800
3008
7008
E018
FFF8
ENDCHAR
STARTCHAR zacute
ENCODING 378
SWIDTH 444 0
DWIDTH 10 0
BBX 8 17 1 0
BITMAP
06
0E
18
20
00
FF
C3
86
0E
1C
18
38
30
70
61
C3
FF
ENDCHAR
STARTCHAR Zdotaccent
ENCODING 379
SWIDTH 611 0
DWIDTH 15 0
BBX 13 20 1 0
BITMAP
0300
0300
0000
FFF0
C070
80E0
80C0
01C0
0380
0300
0700
0600
0E00
1C00
1800
3800
3008
7008
E018
FFF8
ENDCHAR
STARTCHAR zdotaccent
ENCODING 380
SWIDTH 444 0
DWIDTH 10 0
BBX 8 15 1 0
BITMAP
18
18
00
FF
C3
86
0E
1C
18
38
30
70
61
C3
FF
ENDCHAR
STARTCHAR Zcaron
ENCODING 381
SWIDTH 611 0
DWIDTH 15 0
BBX 13 22 1 0
BITMAP
2040
1980
0F00
0600
0000
FFF0
C070
80E0
80C0
01C0
0380
0300
0700
0600
0E00
1C00
1800
3800
3008
7008
E018
FFF8
ENDCHAR
STARTCHAR zcaron
ENCODING 382
SWIDTH 444 0
DWIDTH 10 0
BBX 8 18 1 0
BITMAP
42
24
3C
18
00
00
FF
C3
86
0E
1C
18
38
30
70
61
C3
FF
ENDCHAR
STARTCHAR uni0186
ENCODING 390
SWIDTH 667 0
DWIDTH 16 0
BBX 14 17 1 0
BITMAP
1F80
71E0
4070
8018
0018
000C
000C
000C
000C
000C
000C
000C
8018
8018
C070
F0E0
9F80
ENDCHAR
STARTCHAR uni0189
ENCODING 393
SWIDTH 722 0
DWIDTH 17 0
BBX 16 17 0 0
BITMAP
7FE0
1838
181C
1806
1806
1803
1803
1803
FF03
1803
1803
1803
1806
1806
181C
1838
7FE0
ENDCHAR
STARTCHAR uni018E
ENCODING 398
SWIDTH 611 0
DWIDTH 15 0
BBX 13 17 1 0
BITMAP
FFF8
C060
8060
8060
0060
0060
1060
1060
1FE0
1060
1060
0060
0060
4060
4060
6060
7FF8
ENDCHAR
STARTCHAR florin
ENCODING 402
SWIDTH 500 0
DWIDTH 13 0
BBX 14 22 -1 -5
BITMAP
0078
00CC
00CC
0180
0180
0180
0180
0FE0
0300
0300
0300
0300
0600
0600
0600
0600
0C00
0C00
0C00
CC00
D800
7000
ENDCHAR
STARTCHAR uni0197
ENCODING 407
SWIDTH 333 0
DWIDTH 8 0
BBX 6 17 1 0
BITMAP
FC
30
30
30
30
30
30
FC
FC
30
30
30
30
30
30
30
FC
ENDCHAR
STARTCHAR uni019A
ENCODING 410
SWIDTH 278 0
DWIDTH 6 0
BBX 6 17 0 0
BITMAP
70
30
30
30
30
30
30
FC
FC
30
30
30
30
30
30
30
78
ENDCHAR
STARTCHAR uni019D
ENCODING 413
SWIDTH 722 0
DWIDTH 18 0
BBX 16 22 1 -5
BITMAP
F01F
3004
3804
3804
2C04
2604
2604
2304
2184
2184
20C4
2064
3064
3034
301C
301C
300C
3000
3000
3000
E000
C000
ENDCHAR
STARTCHAR uni019F
ENCODING 415
SWIDTH 722 0
DWIDTH 18 0
BBX 16 17 1 0
BITMAP
07E0
1C38
381C
6006
6006
C003
C003
FFFF
FFFF
C003
C003
C003
6006
6006
381C
1C38
07E0
ENDCHAR
STARTCHAR Ohorn
ENCODING 416
SWIDTH 722 0
DWIDTH 18 0
BBX 18 17 1 0
BITMAP
07E180
1C39C0
381C40
6006C0
600780
C00300
C00300
C00300
C00300
C00300
C00300
C00300
600600
600600
381C00
1C3800
07E000
ENDCHAR
STARTCHAR ohorn
ENCODING 417
SWIDTH 500 0
DWIDTH 12 0
BBX 12 12 1 0
BITMAP
1E60
73F0
6190
C0F0
C0E0
C0C0
C0C0
C0C0
C0C0
6180
7380
1E00
ENDCHAR
STARTCHAR uni01A7
ENCODING 423
SWIDTH 556 0
DWIDTH 13 0
BBX 11 17 1 0
BITMAP
4F00
78C0
6060
4060
4060
00E0
03C0
0F00
3E00
7800
E000
C000
C020
C020
6060
31E0
0F20
ENDCHAR
STARTCHAR uni01A8
ENCODING 424
SWIDTH 389 0
DWIDTH 10 0
BBX 8 12 1 0
BITMAP
7C
66
43
07
0E
3E
78
E0
C0
C1
63
1F
ENDCHAR
STARTCHAR uni01A9
ENCODING 425
SWIDTH 592 0
DWIDTH 14 0
BBX 12 17 1 0
BITMAP
FFF0
E030
7010
3800
1C00
0E00
0700
0380
0300
0600
0C00
1800
3010
6010
C030
FFF0
FFF0
ENDCHAR
STARTCHAR uni01AE
ENCODING 430
SWIDTH 611 0
DWIDTH 16 0
BBX 14 22 1 -5
BITMAP
FFFC
C30C
8304
8304
0300
0300
0300
0300
0300
0300
0300
0300
0300
0300
0300
0300
0300
0300
0300
0300
01C0
00C0
ENDCHAR
STARTCHAR Uhorn
ENCODING 431
SWIDTH 722 0
DWIDTH 18 0
BBX 18 17 1 0
BITMAP
FC1F80
3005C0
300440
3004C0
300580
300400
300400
300400
300400
300400
300400
300400
300400
300800
180800
1C3000
07E000
ENDCHAR
STARTCHAR uhorn
ENCODING 432
SWIDTH 500 0
DWIDTH 13 0
BBX 13 12 1 0
BITMAP
E1F0
60F8
60C8
60D8
60F0
60C0
60C0
60C0
60C0
71C0
3EC0
1CE0
ENDCHAR
STARTCHAR uni01B1
ENCODING 433
SWIDTH 768 0
DWIDTH 18 0
BBX 16 17 1 0
BITMAP
FC3F
FC3F
8421
8C31
1818
300C
6006
E007
C003
C003
C003
C003
6006
6006
300C
1C38
07E0
ENDCHAR
STARTCHAR uni01B5
ENCODING 437
SWIDTH 611 0
DWIDTH 15 0
BBX 13 17 1 0
BITMAP
FFF0
C070
80E0
80C0
01C0
0380
0300
0FC0
0FC0
0E00
1C00
1800
3800
3008
7008
E018
FFF8
ENDCHAR
STARTCHAR uni01B6
ENCODING 438
SWIDTH 444 0
DWIDTH 10 0
BBX 8 12 1 0
BITMAP
FF
C3
86
0E
1C
7E
7E
30
70
61
C3
FF
ENDCHAR
STARTCHAR uni01BB
ENCODING 443
SWIDTH 500 0
DWIDTH 12 0
BBX 10 17 1 0
BITMAP
1C00
7F00
4380
8180
8180
0180
0180
FFC0
FFC0
0600
0400
0C00
1800
3000
6040
FFC0
FF80
ENDCHAR
STARTCHAR uni01BC
ENCODING 444
SWIDTH 500 0
DWIDTH 12 0
BBX 10 17 1 0
BITMAP
1FC0
1F80
2000
2000
6000
7800
7E00
0F80
0380
01C0
00C0
00C0
00C0
00C0
C180
E380
7E00
ENDCHAR
STARTCHAR uni01C0
ENCODING 448
SWIDTH 200 0
DWIDTH 6 0
BBX 2 17 2 0
BITMAP
C0
C0
C0
C0
C0
C0
C0
C0
C0
C0
C0
C0
C0
C0
C0
C0
C0
ENDCHAR
STARTCHAR uni01C2
ENCODING 450
SWIDTH 564 0
DWIDTH 14 0
BBX 12 17 1 -1
BITMAP
0600
0600
0600
0600
0600
0600
FFF0
FFF0
0600
0600
FFF0
FFF0
0600
0600
0600
0600
0600
ENDCHAR
STARTCHAR uni01C3
ENCODING 451
SWIDTH 333 0
DWIDTH 8 0
BBX 2 17 3 0
BITMAP
C0
C0
C0
C0
C0
C0
C0
C0
C0
C0
C0
C0
00
00
00
C0
C0
ENDCHAR
STARTCHAR uni01CD
ENCODING 461
SWIDTH 722 0
DWIDTH 17 0
BBX 17 22 0 0
BITMAP
021000
012000
01E000
00C000
000000
008000
01C000
01C000
016000
026000
023000
063000
043000
041800
0C1800
0FF800
080C00
180C00
100C00
100600
300600
FC1F80
ENDCHAR
STARTCHAR uni01CE
ENCODING 462
SWIDTH 444 0
DWIDTH 11 0
BBX 9 17 1 0
BITMAP
2100
1200
1E00
0C00
0000
3E00
6700
6300
0300
0F00
3B00
6300
C300
C300
C700
FB00
7180
ENDCHAR
STARTCHAR uni01CF
ENCODING 463
SWIDTH 333 0
DWIDTH 8 0
BBX 6 22 1 0
BITMAP
84
48
78
30
00
FC
30
30
30
30
30
30
30
30
30
30
30
30
30
30
30
FC
ENDCHAR
STARTCHAR uni01D0
ENCODING 464
SWIDTH 278 0
DWIDTH 6 0
BBX 6 17 0 0
BITMAP
84
48
78
30
00
70
30
30
30
30
30
30
30
30
30
30
78
ENDCHAR
STARTCHAR uni01D1
ENCODING 465
SWIDTH 722 0
DWIDTH 18 0
BBX 16 22 1 0
BITMAP
0420
0240
03C0
0180
0000
07E0
1C38
381C
6006
6006
C003
C003
C003
C003
C003
C003
C003
6006
6006
381C
1C38
07E0
ENDCHAR
STARTCHAR uni01D2
ENCODING 466
SWIDTH 500 0
DWIDTH 12 0
BBX 10 17 1 0
BITMAP
2100
1200
1E00
0C00
0000
1E00
7380
6180
C0C0
C0C0
C0C0
C0C0
C0C0
C0C0
6180
7380
1E00
ENDCHAR
STARTCHAR uni01D3
ENCODING 467
SWIDTH 722 0
DWIDTH 18 0
BBX 16 22 1 0
BITMAP
0840
0480
0780
0300
0000
FC1F
3004
3004
3004
3004
3004
3004
3004
3004
3004
3004
3004
3004
3008
1808
1C30
07E0
ENDCHAR
STARTCHAR uni01D4
ENCODING 468
SWIDTH 500 0
DWIDTH 13 0
BBX 11 17 1 0
BITMAP
2100
1200
1E00
0C00
0000
E1C0
60C0
60C0
60C0
60C0
60C0
60C0
60C0
60C0
71C0
3EC0
1CE0
ENDCHAR
STARTCHAR uni01D5
ENCODING 469
SWIDTH 722 0
DWIDTH 18 0
BBX 16 24 1 0
BITMAP
07E0
07E0
0000
0630
0630
0000
0000
FC1F
3004
3004
3004
3004
3004
3004
3004
3004
3004
3004
3004
3004
3008
1808
1C30
07E0
ENDCHAR
STARTCHAR uni01D6
ENCODING 470
SWIDTH 500 0
DWIDTH 13 0
BBX 11 19 1 0
BITMAP
3F00
3F00
0000
3300
3300
0000
0000
E1C0
60C0
60C0
60C0
60C0
60C0
60C0
60C0
60C0
71C0
3EC0
1CE0
ENDCHAR
STARTCHAR uni01D7
ENCODING 471
SWIDTH 722 0
DWIDTH 18 0
BBX 16 26 1 0
BITMAP
0060
00E0
0180
0200
0000
0630
0630
0000
0000
FC1F
3004
3004
3004
3004
3004
3004
3004
3004
3004
3004
3004
3004
3008
1808
1C30
07E0
ENDCHAR
STARTCHAR uni01D8
ENCODING 472
SWIDTH 500 0
DWIDTH 13 0
BBX 11 21 1 0
BITMAP
0300
0700
0C00
1000
0000
3300
3300
0000
0000
E1C0
60C0
60C0
60C0
60C0
60C0
60C0
60C0
60C0
71C0
3EC0
1CE0
ENDCHAR
STARTCHAR uni01D9
ENCODING 473
SWIDTH 722 0
DWIDTH 18 0
BBX 16 26 1 0
BITMAP
0420
0240
03C0
0180
0000
0630
0630
0000
0000
FC1F
3004
3004
3004
3004
3004
3004
3004
3004
3004
3004
3004
3004
3008
1808
1C30
07E0
ENDCHAR
STARTCHAR uni01DA
ENCODING 474
SWIDTH 500 0
DWIDTH 13 0
BBX 11 21 1 0
BITMAP
2100
1200
1E00
0C00
0000
3300
3300
0000
0000
E1C0
60C0
60C0
60C0
60C0
60C0
60C0
60C0
60C0
71C0
3EC0
1CE0
ENDCHAR
STARTCHAR uni01DB
ENCODING 475
SWIDTH 722 0
DWIDTH 18 0
BBX 16 26 1 0
BITMAP
0600
0700
0180
0040
0000
0630
0630
0000
0000
FC1F
3004
3004
3004
3004
3004
3004
3004
3004
3004
3004
3004
3004
3008
1808
1C30
07E0
ENDCHAR
STARTCHAR uni01DC
ENCODING 476
SWIDTH 500 0
DWIDTH 13 0
BBX 11 21 1 0
BITMAP
3000
3800
0C00
0200
0000
3300
3300
0000
0000
E1C0
60C0
60C0
60C0
60C0
60C0
60C0
60C0
60C0
71C0
3EC0
1CE0
ENDCHAR
STARTCHAR uni01DD
ENCODING 477
SWIDTH 444 0
DWIDTH 11 0
BBX 9 12 1 0
BITMAP
3C00
7F00
8700
0380
0180
0180
0180
FF80
C180
C100
6300
3C00
ENDCHAR
STARTCHAR uni01DE
ENCODING 478
SWIDTH 722 0
DWIDTH 17 0
BBX 17 24 0 0
BITMAP
03F000
03F000
000000
063000
063000
000000
000000
008000
01C000
01C000
016000
026000
023000
063000
043000
041800
0C1800
0FF800
080C00
180C00
100C00
100600
300600
FC1F80
ENDCHAR
STARTCHAR uni01DF
ENCODING 479
SWIDTH 444 0
DWIDTH 11 0
BBX 9 19 1 0
BITMAP
7E00
7E00
0000
6600
6600
0000
0000
3E00
6700
6300
0300
0F00
3B00
6300
C300
C300
C700
FB00
7180
ENDCHAR
STARTCHAR uni01E0
ENCODING 480
SWIDTH 722 0
DWIDTH 17 0
BBX 17 23 0 0
BITMAP
03F000
03F000
000000
00C000
00C000
000000
008000
01C000
01C000
016000
026000
023000
063000
043000
041800
0C1800
0FF800
080C00
180C00
100C00
100600
300600
FC1F80
ENDCHAR
STARTCHAR uni01E1
ENCODING 481
SWIDTH 444 0
DWIDTH 11 0
BBX 9 18 1 0
BITMAP
3F00
3F00
0000
0C00
0C00
0000
3E00
6700
6300
0300
0F00
3B00
6300
C300
C300
C700
FB00
7180
ENDCHAR
STARTCHAR uni01E2
ENCODING 482
SWIDTH 889 0
DWIDTH 21 0
BBX 20 20 0 0
BITMAP
00FC00
00FC00
000000
03FFE0
01E060
016020
016020
026000
026000
066080
046080
047F80
0C6080
0FE080
086000
186000
106010
106010
306030
F9FFF0
ENDCHAR
STARTCHAR uni01E3
ENCODING 483
SWIDTH 667 0
DWIDTH 16 0
BBX 14 15 1 0
BITMAP
0FC0
0FC0
0000
3CF0
6798
630C
030C
0FFC
3B00
6300
C300
C300
C784
FBF8
70F0
ENDCHAR
STARTCHAR uni01E4
ENCODING 484
SWIDTH 722 0
DWIDTH 18 0
BBX 16 17 1 0
BITMAP
07E4
1C3C
380C
6004
6004
C000
C000
C000
C000
C03F
C00C
C00C
603F
603F
381C
1E38
07E0
ENDCHAR
STARTCHAR uni01E5
ENCODING 485
SWIDTH 500 0
DWIDTH 12 0
BBX 11 17 1 -5
BITMAP
1FC0
3300
6180
6180
6180
6180
3300
3E00
3000
6000
7F00
3FC0
FFE0
FFE0
C060
F1C0
3F00
ENDCHAR
STARTCHAR Gcaron
ENCODING 486
SWIDTH 722 0
DWIDTH 18 0
BBX 16 22 1 0
BITMAP
0420
0240
03C0
0180
0000
07E4
1C3C
380C
6004
6004
C000
C000
C000
C000
C03F
C00C
C00C
600C
600C
381C
1E38
07E0
ENDCHAR
STARTCHAR gcaron
ENCODING 487
SWIDTH 500 0
DWIDTH 12 0
BBX 11 22 1 -5
BITMAP
2100
1200
1E00
0C00
0000
1FC0
3300
6180
6180
6180
6180
3300
3E00
3000
6000
7F00
3FC0
6060
C020
C060
F1C0
3F00
ENDCHAR
STARTCHAR uni01E8
ENCODING 488
SWIDTH 722 0
DWIDTH 17 0
BBX 16 22 1 0
BITMAP
0840
0480
0780
0300
0000
FC7E
3018
3030
3060
30C0
3180
3300
3E00
3F00
3380
31C0
30E0
3070
3038
301C
300E
FC1F
ENDCHAR
STARTCHAR uni01E9
ENCODING 489
SWIDTH 500 0
DWIDTH 12 0
BBX 11 22 1 0
BITMAP
8400
4800
7800
3000
0000
E000
6000
6000
6000
6000
67C0
6300
6600
6400
6800
7800
6C00
6E00
6700
6380
61C0
F3E0
ENDCHAR
STARTCHAR uni01EA
ENCODING 490
SWIDTH 722 0
DWIDTH 18 0
BBX 16 22 1 -5
BITMAP
07E0
1C38
381C
6006
6006
C003
C003
C003
C003
C003
C003
C003
6006
6006
381C
1C38
07E0
0180
0300
0300
0320
01C0
ENDCHAR
STARTCHAR uni01EB
ENCODING 491
SWIDTH 500 0
DWIDTH 12 0
BBX 10 17 1 -5
BITMAP
1E00
7380
6180
C0C0
C0C0
C0C0
C0C0
C0C0
C0C0
6180
7380
1E00
0C00
1800
1800
1900
0E00
ENDCHAR
STARTCHAR uni01EC
ENCODING 492
SWIDTH 722 0
DWIDTH 18 0
BBX 16 25 1 -5
BITMAP
07E0
07E0
0000
07E0
1C38
381C
6006
6006
C003
C003
C003
C003
C003
C003
C003
6006
6006
381C
1C38
07E0
0180
0300
0300
0320
01C0
ENDCHAR
STARTCHAR uni01ED
ENCODING 493
SWIDTH 500 0
DWIDTH 12 0
BBX 10 20 1 -5
BITMAP
3F00
3F00
0000
1E00
7380
6180
C0C0
C0C0
C0C0
C0C0
C0C0
C0C0
6180
7380
1E00
0C00
1800
1800
1900
0E00
ENDCHAR
STARTCHAR uni01F0
ENCODING 496
SWIDTH 278 0
DWIDTH 6 0
BBX 6 22 0 -5
BITMAP
84
48
78
30
00
70
30
30
30
30
30
30
30
30
30
30
30
30
30
30
E0
C0
ENDCHAR
STARTCHAR uni01F4
ENCODING 500
SWIDTH 722 0
DWIDTH 18 0
BBX 16 22 1 0
BITMAP
0060
00E0
0180
0200
0000
07E4
1C3C
380C
6004
6004
C000
C000
C000
C000
C03F
C00C
C00C
600C
600C
381C
1E38
07E0
ENDCHAR
STARTCHAR uni01F5
ENCODING 501
SWIDTH 500 0
DWIDTH 12 0
BBX 11 22 1 -5
BITMAP
0180
0380
0600
0800
0000
1FC0
3300
6180
6180
6180
6180
3300
3E00
3000
6000
7F00
3FC0
6060
C020
C060
F1C0
3F00
ENDCHAR
STARTCHAR uni01F8
ENCODING 504
SWIDTH 722 0
DWIDTH 18 0
BBX 16 22 1 0
BITMAP
0C00
0E00
0300
0080
0000
F01F
3004
3804
3804
2C04
2604
2604
2304
2184
2184
20C4
2064
2064
2034
201C
201C
F80C
ENDCHAR
STARTCHAR uni01F9
ENCODING 505
SWIDTH 500 0
DWIDTH 13 0
BBX 11 17 1 0
BITMAP
3000
3800
0C00
0200
0000
E700
6F80
71C0
60C0
60C0
60C0
60C0
60C0
60C0
60C0
60C0
F1E0
ENDCHAR
STARTCHAR Aringacute
ENCODING 506
SWIDTH 722 0
DWIDTH 17 0
BBX 17 26 0 0
BITMAP
003000
007000
00C000
010000
000000
01C000
022000
022000
01C000
008000
01C000
01C000
016000
026000
023000
063000
043000
041800
0C1800
0FF800
080C00
180C00
100C00
100600
300600
FC1F80
ENDCHAR
STARTCHAR aringacute
ENCODING 507
SWIDTH 444 0
DWIDTH 11 0
BBX 9 22 1 0
BITMAP
0300
0700
0C00
1000
0000
1C00
2200
2200
1C00
0000
3E00
6700
6300
0300
0F00
3B00
6300
C300
C300
C700
FB00
7180
ENDCHAR
STARTCHAR AEacute
ENCODING 508
SWIDTH 889 0
DWIDTH 21 0
BBX 20 22 0 0
BITMAP
000C00
001C00
003000
004000
000000
03FFE0
01E060
016020
016020
026000
026000
066080
046080
047F80
0C6080
0FE080
086000
186000
106010
106010
306030
F9FFF0
ENDCHAR
STARTCHAR aeacute
ENCODING 509
SWIDTH 667 0
DWIDTH 16 0
BBX 14 17 1 0
BITMAP
0060
00E0
0180
0200
0000
3CF0
6798
630C
030C
0FFC
3B00
6300
C300
C300
C784
FBF8
70F0
ENDCHAR
STARTCHAR Oslashacute
ENCODING 510
SWIDTH 722 0
DWIDTH 18 0
BBX 16 24 1 -1
BITMAP
0030
0070
00C0
0100
0000
0004
07E4
1C38
381C
6026
6046
C043
C083
C083
C103
C103
C203
C203
6406
6806
381C
1C38
27E0
2000
ENDCHAR
STARTCHAR oslashacute
ENCODING 511
SWIDTH 500 0
DWIDTH 12 0
BBX 10 19 1 -1
BITMAP
0180
0380
0600
0800
0000
00C0
1EC0
7380
6380
C6C0
C4C0
CCC0
C8C0
D8C0
D0C0
7180
7380
DE00
C000
ENDCHAR
STARTCHAR uni0200
ENCODING 512
SWIDTH 722 0
DWIDTH 17 0
BBX 17 22 0 0
BITMAP
198000
1DC000
066000
011000
000000
008000
01C000
01C000
016000
026000
023000
063000
043000
041800
0C1800
0FF800
080C00
180C00
100C00
100600
300600
FC1F80
ENDCHAR
STARTCHAR uni0201
ENCODING 513
SWIDTH 444 0
DWIDTH 11 0
BBX 9 17 1 0
BITMAP
CC00
EE00
3300
0880
0000
3E00
6700
6300
0300
0F00
3B00
6300
C300
C300
C700
FB00
7180
ENDCHAR
STARTCHAR uni0202
ENCODING 514
SWIDTH 722 0
DWIDTH 17 0
BBX 17 21 0 0
BITMAP
01E000
033000
021000
000000
008000
01C000
01C000
016000
026000
023000
063000
043000
041800
0C1800
0FF800
080C00
180C00
100C00
100600
300600
FC1F80
ENDCHAR
STARTCHAR uni0203
ENCODING 515
SWIDTH 444 0
DWIDTH 11 0
BBX 9 16 1 0
BITMAP
1E00
3300
2100
0000
3E00
6700
6300
0300
0F00
3B00
6300
C300
C300
C700
FB00
7180
ENDCHAR
STARTCHAR uni0204
ENCODING 516
SWIDTH 611 0
DWIDTH 15 0
BBX 13 22 1 0
BITMAP
6600
7700
1980
0440
0000
FFF0
3030
3010
3010
3000
3000
3040
3040
3FC0
3040
3040
3000
3000
3008
3008
3018
FFF8
ENDCHAR
STARTCHAR uni0205
ENCODING 517
SWIDTH 444 0
DWIDTH 11 0
BBX 9 17 1 0
BITMAP
CC00
EE00
3300
0880
0000
1E00
6300
4180
C180
FF80
C000
C000
C000
E000
7080
7F00
1E00
ENDCHAR
STARTCHAR uni0206
ENCODING 518
SWIDTH 611 0
DWIDTH 15 0
BBX 13 21 1 0
BITMAP
0F00
1980
1080
0000
FFF0
3030
3010
3010
3000
3000
3040
3040
3FC0
3040
3040
3000
3000
3008
3008
3018
FFF8
ENDCHAR
STARTCHAR uni0207
ENCODING 519
SWIDTH 444 0
DWIDTH 11 0
BBX 9 16 1 0
BITMAP
1E00
3300
2100
0000
1E00
6300
4180
C180
FF80
C000
C000
C000
E000
7080
7F00
1E00
ENDCHAR
STARTCHAR uni0208
ENCODING 520
SWIDTH 333 0
DWIDTH 8 0
BBX 9 22 -1 0
BITMAP
CC00
EE00
3300
0880
0000
3F00
0C00
0C00
0C00
0C00
0C00
0C00
0C00
0C00
0C00
0C00
0C00
0C00
0C00
0C00
0C00
3F00
ENDCHAR
STARTCHAR uni0209
ENCODING 521
SWIDTH 278 0
DWIDTH 6 0
BBX 9 17 -2 0
BITMAP
CC00
EE00
3300
0880
0000
1C00
0C00
0C00
0C00
0C00
0C00
0C00
0C00
0C00
0C00
0C00
1E00
ENDCHAR
STARTCHAR uni020A
ENCODING 522
SWIDTH 333 0
DWIDTH 8 0
BBX 6 21 1 0
BITMAP
78
CC
84
00
FC
30
30
30
30
30
30
30
30
30
30
30
30
30
30
30
FC
ENDCHAR
STARTCHAR uni020B
ENCODING 523
SWIDTH 278 0
DWIDTH 6 0
BBX 6 16 0 0
BITMAP
78
CC
84
00
70
30
30
30
30
30
30
30
30
30
30
78
ENDCHAR
STARTCHAR uni020C
ENCODING 524
SWIDTH 722 0
DWIDTH 18 0
BBX 16 22 1 0
BITMAP
1980
1DC0
0660
0110
0000
07E0
1C38
381C
6006
6006
C003
C003
C003
C003
C003
C003
C003
6006
6006
381C
1C38
07E0
ENDCHAR
STARTCHAR uni020D
ENCODING 525
SWIDTH 500 0
DWIDTH 12 0
BBX 10 17 1 0
BITMAP
CC00
EE00
3300
0880
0000
1E00
7380
6180
C0C0
C0C0
C0C0
C0C0
C0C0
C0C0
6180
7380
1E00
ENDCHAR
STARTCHAR uni020E
ENCODING 526
SWIDTH 722 0
DWIDTH 18 0
BBX 16 21 1 0
BITMAP
03C0
0660
0420
0000
07E0
1C38
381C
6006
6006
C003
C003
C003
C003
C003
C003
C003
6006
6006
381C
1C38
07E0
ENDCHAR
STARTCHAR uni020F
ENCODING 527
SWIDTH 500 0
DWIDTH 12 0
BBX 10 16 1 0
BITMAP
1E00
3300
2100
0000
1E00
7380
6180
C0C0
C0C0
C0C0
C0C0
C0C0
C0C0
6180
7380
1E00
ENDCHAR
STARTCHAR uni0210
ENCODING 528
SWIDTH 667 0
DWIDTH 16 0
BBX 15 22 1 0
BITMAP
3300
3B80
0CC0
0220
0000
FFC0
3070
3030
3038
3018
3038
3030
3070
3FC0
3380
31C0
30C0
3060
3070
3038
301C
FC1E
ENDCHAR
STARTCHAR uni0211
ENCODING 529
SWIDTH 333 0
DWIDTH 8 0
BBX 9 17 -1 0
BITMAP
CC00
EE00
3300
0880
0000
3980
1B80
1D80
1800
1800
1800
1800
1800
1800
1800
1800
3C00
ENDCHAR
STARTCHAR uni0212
ENCODING 530
SWIDTH 667 0
DWIDTH 16 0
BBX 15 21 1 0
BITMAP
0780
0CC0
0840
0000
FFC0
3070
3030
3038
3018
3038
3030
3070
3FC0
3380
31C0
30C0
3060
3070
3038
301C
FC1E
ENDCHAR
STARTCHAR uni0213
ENCODING 531
SWIDTH 333 0
DWIDTH 8 0
BBX 7 16 1 0
BITMAP
3C
66
42
00
E6
6E
76
60
60
60
60
60
60
60
60
F0
ENDCHAR
STARTCHAR uni0214
ENCODING 532
SWIDTH 722 0
DWIDTH 18 0
BBX 16 22 1 0
BITMAP
3300
3B80
0CC0
0220
0000
FC1F
3004
3004
3004
3004
3004
3004
3004
3004
3004
3004
3004
3004
3008
1808
1C30
07E0
ENDCHAR
STARTCHAR uni0215
ENCODING 533
SWIDTH 500 0
DWIDTH 13 0
BBX 11 17 1 0
BITMAP
CC00
EE00
3300
0880
0000
E1C0
60C0
60C0
60C0
60C0
60C0
60C0
60C0
60C0
71C0
3EC0
1CE0
ENDCHAR
STARTCHAR uni0216
ENCODING 534
SWIDTH 722 0
DWIDTH 18 0
BBX 16 21 1 0
BITMAP
0780
0CC0
0840
0000
FC1F
3004
3004
3004
3004
3004
3004
3004
3004
3004
3004
3004
3004
3008
1808
1C30
07E0
ENDCHAR
STARTCHAR uni0217
ENCODING 535
SWIDTH 500 0
DWIDTH 13 0
BBX 11 16 1 0
BITMAP
1E00
3300
2100
0000
E1C0
60C0
60C0
60C0
60C0
60C0
60C0
60C0
60C0
71C0
3EC0
1CE0
ENDCHAR
STARTCHAR Scommaaccent
ENCODING 536
SWIDTH 556 0
DWIDTH 13 0
BBX 11 23 1 -6
BITMAP
1E40
63C0
C0C0
C040
C040
E000
7800
1E00
0F80
03C0
00E0
0060
8060
8060
C0C0
F180
9E00
0000
0C00
0E00
0200
0600
0C00
ENDCHAR
STARTCHAR scommaaccent
ENCODING 537
SWIDTH 389 0
DWIDTH 10 0
BBX 8 18 1 -6
BITMAP
3E
66
C2
E0
70
7C
1E
07
03
83
C6
F8
00
18
1C
04
0C
18
ENDCHAR
STARTCHAR Tcommaaccent
ENCODING 538
SWIDTH 611 0
DWIDTH 16 0
BBX 14 23 1 -6
BITMAP
FFFC
C30C
8304
8304
0300
0300
0300
0300
0300
0300
0300
0300
0300
0300
0300
0300
0FC0
0000
0300
0380
0080
0180
0300
ENDCHAR
STARTCHAR tcommaaccent
ENCODING 539
SWIDTH 278 0
DWIDTH 7 0
BBX 7 21 0 -6
BITMAP
10
30
70
FE
30
30
30
30
30
30
30
30
30
32
1C
00
30
38
08
18
30
ENDCHAR
STARTCHAR uni021E
ENCODING 542
SWIDTH 722 0
DWIDTH 19 0
BBX 17 22 1 0
BITMAP
021000
012000
01E000
00C000
000000
FC1F80
300600
300600
300600
300600
300600
300600
300600
3FFE00
300600
300600
300600
300600
300600
300600
300600
FC1F80
ENDCHAR
STARTCHAR uni021F
ENCODING 543
SWIDTH 500 0
DWIDTH 13 0
BBX 11 22 1 0
BITMAP
8400
4800
7800
3000
0000
E000
6000
6000
6000
6000
6700
6F80
71C0
60C0
60C0
60C0
60C0
60C0
60C0
60C0
60C0
F1E0
ENDCHAR
STARTCHAR uni0226
ENCODING 550
SWIDTH 722 0
DWIDTH 17 0
BBX 17 20 0 0
BITMAP
00C000
00C000
000000
008000
01C000
01C000
016000
026000
023000
063000
043000
041800
0C1800
0FF800
080C00
180C00
100C00
100600
300600
FC1F80
ENDCHAR
STARTCHAR uni0227
ENCODING 551
SWIDTH 444 0
DWIDTH 11 0
BBX 9 15 1 0
BITMAP
0C00
0C00
0000
3E00
6700
6300
0300
0F00
3B00
6300
C300
C300
C700
FB00
7180
ENDCHAR
STARTCHAR uni0228
ENCODING 552
SWIDTH 611 0
DWIDTH 15 0
BBX 13 23 1 -6
BITMAP
FFF0
3030
3010
3010
3000
3000
3040
3040
3FC0
3040
3040
3000
3000
3008
3008
3018
FFF8
0200
0600
0780
0180
1980
0F00
ENDCHAR
STARTCHAR uni0229
ENCODING 553
SWIDTH 444 0
DWIDTH 11 0
BBX 9 18 1 -6
BITMAP
1E00
6300
4180
C180
FF80
C000
C000
C000
E000
7080
7F00
1E00
0800
1800
1E00
0600
6600
3C00
ENDCHAR
STARTCHAR uni022A
ENCODING 554
SWIDTH 722 0
DWIDTH 18 0
BBX 16 24 1 0
BITMAP
07E0
07E0
0000
0660
0660
0000
0000
07E0
1C38
381C
6006
6006
C003
C003
C003
C003
C003
C003
C003
6006
6006
381C
1C38
07E0
ENDCHAR
STARTCHAR uni022B
ENCODING 555
SWIDTH 500 0
DWIDTH 12 0
BBX 10 19 1 0
BITMAP
3F00
3F00
0000
3300
3300
0000
0000
1E00
7380
6180
C0C0
C0C0
C0C0
C0C0
C0C0
C0C0
6180
7380
1E00
ENDCHAR
STARTCHAR uni022C
ENCODING 556
SWIDTH 722 0
DWIDTH 18 0
BBX 16 24 1 0
BITMAP
07E0
07E0
0000
0390
04E0
0000
0000
07E0
1C38
381C
6006
6006
C003
C003
C003
C003
C003
C003
C003
6006
6006
381C
1C38
07E0
ENDCHAR
STARTCHAR uni022D
ENCODING 557
SWIDTH 500 0
DWIDTH 12 0
BBX 10 19 1 0
BITMAP
3F00
3F00
0000
1C80
2700
0000
0000
1E00
7380
6180
C0C0
C0C0
C0C0
C0C0
C0C0
C0C0
6180
7380
1E00
ENDCHAR
STARTCHAR uni022E
ENCODING 558
SWIDTH 722 0
DWIDTH 18 0
BBX 16 20 1 0
BITMAP
0180
0180
0000
07E0
1C38
381C
6006
6006
C003
C003
C003
C003
C003
C003
C003
6006
6006
381C
1C38
07E0
ENDCHAR
STARTCHAR uni022F
ENCODING 559
SWIDTH 500 0
DWIDTH 12 0
BBX 10 15 1 0
BITMAP
0C00
0C00
0000
1E00
7380
6180
C0C0
C0C0
C0C0
C0C0
C0C0
C0C0
6180
7380
1E00
ENDCHAR
STARTCHAR uni0230
ENCODING 560
SWIDTH 722 0
DWIDTH 18 0
BBX 16 23 1 0
BITMAP
07E0
07E0
0000
0180
0180
0000
07E0
1C38
381C
6006
6006
C003
C003
C003
C003
C003
C003
C003
6006
6006
381C
1C38
07E0
ENDCHAR
STARTCHAR uni0231
ENCODING 561
SWIDTH 500 0
DWIDTH 12 0
BBX 10 18 1 0
BITMAP
3F00
3F00
0000
0C00
0C00
0000
1E00
7380
6180
C0C0
C0C0
C0C0
C0C0
C0C0
C0C0
6180
7380
1E00
ENDCHAR
STARTCHAR uni0232
ENCODING 562
SWIDTH 722 0
DWIDTH 16 0
BBX 16 20 0 0
BITMAP
07E0
07E0
0000
FC3F
300C
3808
1818
1C10
0C30
0620
0660
0340
03C0
0180
0180
0180
0180
0180
0180
07E0
ENDCHAR
STARTCHAR uni0233
ENCODING 563
SWIDTH 500 0
DWIDTH 11 0
BBX 11 20 0 -5
BITMAP
3F00
3F00
0000
F1E0
60C0
6080
3080
3080
3100
1900
1900
1A00
0E00
0E00
0400
0C00
0800
1800
F000
E000
ENDCHAR
STARTCHAR uni0250
ENCODING 592
SWIDTH 444 0
DWIDTH 11 0
BBX 9 12 1 0
BITMAP
C700
6F80
7180
6180
6180
6300
6E00
7800
6000
6300
7300
3E00
ENDCHAR
STARTCHAR uni0254
ENCODING 596
SWIDTH 444 0
DWIDTH 11 0
BBX 9 12 1 0
BITMAP
7C00
E300
C100
0180
0180
0180
0180
0180
0380
8700
7F00
3C00
ENDCHAR
STARTCHAR uni0258
ENCODING 600
SWIDTH 444 0
DWIDTH 11 0
BBX 9 12 1 0
BITMAP
3C00
6300
C100
C180
FF80
0180
0180
0180
0380
8700
7F00
3C00
ENDCHAR
STARTCHAR uni0259
ENCODING 601
SWIDTH 444 0
DWIDTH 11 0
BBX 9 12 1 0
BITMAP
3C00
7F00
8700
0380
0180
0180
0180
FF80
C180
C100
6300
3C00
ENDCHAR
STARTCHAR uni025F
ENCODING 607
SWIDTH 333 0
DWIDTH 7 0
BBX 7 17 0 -5
BITMAP
3C
18
18
18
18
18
18
18
18
18
18
FE
18
18
18
D0
E0
ENDCHAR
STARTCHAR uni0265
ENCODING 613
SWIDTH 500 0
DWIDTH 13 0
BBX 11 17 1 -5
BITMAP
F1E0
60C0
60C0
60C0
60C0
60C0
60C0
60C0
60C0
71C0
3EC0
1CC0
00C0
00C0
00C0
00C0
00E0
ENDCHAR
STARTCHAR uni0275
ENCODING 629
SWIDTH 500 0
DWIDTH 12 0
BBX 10 12 1 0
BITMAP
1E00
7380
6180
C0C0
C0C0
FFC0
FFC0
C0C0
C0C0
6180
7380
1E00
ENDCHAR
STARTCHAR uni0279
ENCODING 633
SWIDTH 333 0
DWIDTH 8 0
BBX 7 12 1 0
BITMAP
1E
0C
0C
0C
0C
0C
0C
0C
0C
DC
EC
CE
ENDCHAR
STARTCHAR uni0287
ENCODING 647
SWIDTH 278 0
DWIDTH 7 0
BBX 7 15 0 0
BITMAP
70
98
18
18
18
18
18
18
18
18
18
FE
1C
18
10
ENDCHAR
STARTCHAR uni0288
ENCODING 648
SWIDTH 278 0
DWIDTH 7 0
BBX 7 20 0 -5
BITMAP
10
30
70
FE
30
30
30
30
30
30
30
30
30
30
30
30
30
30
1C
0C
ENDCHAR
STARTCHAR uni0289
ENCODING 649
SWIDTH 500 0
DWIDTH 13 0
BBX 11 12 1 0
BITMAP
E1C0
60C0
60C0
60C0
60C0
FFE0
FFE0
60C0
60C0
71C0
3EC0
1CE0
ENDCHAR
STARTCHAR uni028C
ENCODING 652
SWIDTH 500 0
DWIDTH 11 0
BBX 11 12 0 0
BITMAP
0400
0E00
0E00
0B00
1300
1300
1180
2180
2180
20C0
60C0
F1E0
ENDCHAR
STARTCHAR uni028D
ENCODING 653
SWIDTH 722 0
DWIDTH 17 0
BBX 17 12 0 0
BITMAP
041000
0E3800
0E3800
0A2C00
132C00
134C00
134600
218600
218600
218300
618300
F3C780
ENDCHAR
STARTCHAR uni028E
ENCODING 654
SWIDTH 500 0
DWIDTH 11 0
BBX 11 17 0 0
BITMAP
00E0
01E0
0300
0200
0600
0400
0E00
0E00
0B00
1300
1300
1180
2180
2180
20C0
60C0
F1E0
ENDCHAR
STARTCHAR uni029E
ENCODING 670
SWIDTH 500 0
DWIDTH 12 0
BBX 11 17 1 -5
BITMAP
F9E0
70C0
38C0
1CC0
0EC0
06C0
03C0
02C0
04C0
0CC0
18C0
7CC0
00C0
00C0
00C0
00C0
00E0
ENDCHAR
STARTCHAR uni02B9
ENCODING 697
SWIDTH 247 0
DWIDTH 6 0
BBX 5 6 1 12
BITMAP
18
38
70
60
C0
80
ENDCHAR
STARTCHAR uni02BA
ENCODING 698
SWIDTH 411 0
DWIDTH 10 0
BBX 9 6 1 12
BITMAP
1980
3B80
7700
6600
CC00
8800
ENDCHAR
STARTCHAR uni02BB
ENCODING 699
SWIDTH 333 0
DWIDTH 7 0
BBX 3 5 2 12
BITMAP
60
C0
80
E0
60
ENDCHAR
STARTCHAR afii57929
ENCODING 700
SWIDTH 333 0
DWIDTH 8 0
BBX 3 5 3 12
BITMAP
C0
E0
20
60
C0
ENDCHAR
STARTCHAR afii64937
ENCODING 701
SWIDTH 333 0
DWIDTH 8 0
BBX 3 5 3 12
BITMAP
60
E0
80
C0
60
ENDCHAR
STARTCHAR circumflex
ENCODING 710
SWIDTH 333 0
DWIDTH 8 0
BBX 6 4 1 13
BITMAP
30
78
48
84
ENDCHAR
STARTCHAR caron
ENCODING 711
SWIDTH 333 0
DWIDTH 8 0
BBX 6 4 1 13
BITMAP
84
48
78
30
ENDCHAR
STARTCHAR uni02C8
ENCODING 712
SWIDTH 180 0
DWIDTH 6 0
BBX 2 5 2 12
BITMAP
C0
C0
C0
C0
80
ENDCHAR
STARTCHAR macron
ENCODING 713
SWIDTH 333 0
DWIDTH 8 0
BBX 6 2 1 14
BITMAP
FC
FC
ENDCHAR
STARTCHAR uni02CA
ENCODING 714
SWIDTH 333 0
DWIDTH 8 0
BBX 5 4 2 13
BITMAP
18
38
60
80
ENDCHAR
STARTCHAR uni02CB
ENCODING 715
SWIDTH 333 0
DWIDTH 8 0
BBX 5 4 1 13
BITMAP
C0
E0
30
08
ENDCHAR
STARTCHAR uni02CD
ENCODING 717
SWIDTH 333 0
DWIDTH 8 0
BBX 6 2 1 -3
BITMAP
FC
FC
ENDCHAR
STARTCHAR uni02CE
ENCODING 718
SWIDTH 333 0
DWIDTH 8 0
BBX 5 4 1 -5
BITMAP
C0
E0
30
08
ENDCHAR
STARTCHAR uni02CF
ENCODING 719
SWIDTH 333 0
DWIDTH 8 0
BBX 5 4 2 -5
BITMAP
18
38
60
80
ENDCHAR
STARTCHAR breve
ENCODING 728
SWIDTH 333 0
DWIDTH 8 0
BBX 6 3 1 14
BITMAP
84
CC
78
ENDCHAR
STARTCHAR dotaccent
ENCODING 729
SWIDTH 333 0
DWIDTH 8 0
BBX 2 2 2 14
BITMAP
C0
C0
ENDCHAR
STARTCHAR ring
ENCODING 730
SWIDTH 333 0
DWIDTH 8 0
BBX 5 4 2 13
BITMAP
70
88
88
70
ENDCHAR
STARTCHAR ogonek
ENCODING 731
SWIDTH 333 0
DWIDTH 8 0
BBX 5 5 2 -5
BITMAP
60
C0
C0
C8
70
ENDCHAR
STARTCHAR tilde
ENCODING 732
SWIDTH 333 0
DWIDTH 8 0
BBX 6 2 1 14
BITMAP
74
B8
ENDCHAR
STARTCHAR hungarumlaut
ENCODING 733
SWIDTH 333 0
DWIDTH 8 0
BBX 9 4 0 13
BITMAP
1980
3B80
6600
8800
ENDCHAR
STARTCHAR uni02EE
ENCODING 750
SWIDTH 444 0
DWIDTH 11 0
BBX 7 5 2 12
BITMAP
CC
EE
22
66
CC
ENDCHAR
STARTCHAR uni0374
ENCODING 884
SWIDTH 247 0
DWIDTH 6 0
BBX 5 6 1 12
BITMAP
18
38
70
60
C0
80
ENDCHAR
STARTCHAR uni0375
ENCODING 885
SWIDTH 247 0
DWIDTH 6 0
BBX 5 6 1 -7
BITMAP
08
18
30
70
E0
C0
ENDCHAR
STARTCHAR uni037E
ENCODING 894
SWIDTH 278 0
DWIDTH 7 0
BBX 3 14 2 -3
BITMAP
C0
C0
00
00
00
00
00
00
00
C0
E0
20
60
C0
ENDCHAR
STARTCHAR tonos
ENCODING 900
SWIDTH 333 0
DWIDTH 8 0
BBX 5 4 2 13
BITMAP
18
38
60
80
ENDCHAR
STARTCHAR dieresistonos
ENCODING 901
SWIDTH 333 0
DWIDTH 8 0
BBX 6 7 1 14
BITMAP
0C
1C
30
40
00
CC
CC
ENDCHAR
STARTCHAR Alphatonos
ENCODING 902
SWIDTH 722 0
DWIDTH 18 0
BBX 20 17 -3 0
BITMAP
181000
383800
603800
802800
006C00
004C00
004600
00C600
008600
018300
010300
01FF80
030180
020180
0600C0
0600C0
1F01F0
ENDCHAR
STARTCHAR anoteleia
ENCODING 903
SWIDTH 250 0
DWIDTH 6 0
BBX 2 2 2 6
BITMAP
C0
C0
ENDCHAR
STARTCHAR Epsilontonos
ENCODING 904
SWIDTH 611 0
DWIDTH 15 0
BBX 17 17 -3 0
BITMAP
1FFF00
3B0300
630100
830000
030000
030000
030200
030200
03FE00
030200
030200
030000
030000
030080
030080
030180
0FFF80
ENDCHAR
STARTCHAR Etatonos
ENCODING 905
SWIDTH 722 0
DWIDTH 18 0
BBX 20 17 -3 0
BITMAP
1FC3F0
3B00C0
6300C0
8300C0
0300C0
0300C0
0300C0
0300C0
03FFC0
0300C0
0300C0
0300C0
0300C0
0300C0
0300C0
0300C0
0FC3F0
ENDCHAR
STARTCHAR Iotatonos
ENCODING 906
SWIDTH 333 0
DWIDTH 8 0
BBX 11 17 -4 0
BITMAP
1FE0
3980
6180
8180
0180
0180
0180
0180
0180
0180
0180
0180
0180
0180
0180
0180
07E0
ENDCHAR
STARTCHAR Omicrontonos
ENCODING 908
SWIDTH 722 0
DWIDTH 18 0
BBX 20 17 -3 0
BITMAP
187E00
39C380
6300C0
860060
060060
0C0030
0C0030
0C0030
0C0030
0C0030
0C0030
0C0030
060060
060060
0300C0
01C380
007E00
ENDCHAR
STARTCHAR Upsilontonos
ENCODING 910
SWIDTH 690 0
DWIDTH 16 0
BBX 20 17 -4 0
BITMAP
1F81F0
3F00E0
6300C0
818180
01C100
00C300
00E600
006600
003C00
003C00
001800
001800
001800
001800
001800
001800
007E00
ENDCHAR
STARTCHAR Omegatonos
ENCODING 911
SWIDTH 768 0
DWIDTH 18 0
BBX 20 17 -3 0
BITMAP
187E00
39C380
6300C0
860060
060060
0C0030
0C0030
0C0030
0C0030
0E0070
060060
0300C0
018180
08C310
084210
0FC3F0
0FC3F0
ENDCHAR
STARTCHAR iotadieresistonos
ENCODING 912
SWIDTH 329 0
DWIDTH 8 0
BBX 7 21 1 0
BITMAP
0C
1C
30
40
00
CC
CC
00
30
70
F0
30
30
30
30
30
30
30
32
3E
1C
ENDCHAR
STARTCHAR Alpha
ENCODING 913
SWIDTH 722 0
DWIDTH 18 0
BBX 17 17 0 0
BITMAP
008000
01C000
01C000
014000
036000
026000
023000
063000
043000
0C1800
081800
0FFC00
180C00
100C00
300600
300600
F80F80
ENDCHAR
STARTCHAR Beta
ENCODING 914
SWIDTH 667 0
DWIDTH 15 0
BBX 13 17 1 0
BITMAP
FFC0
30E0
3070
3030
3030
3030
3030
3060
3FC0
3070
3038
3018
3018
3018
3038
3070
FFC0
ENDCHAR
STARTCHAR Gamma
ENCODING 915
SWIDTH 603 0
DWIDTH 15 0
BBX 13 17 1 0
BITMAP
FFF8
3018
3008
3008
3000
3000
3000
3000
3000
3000
3000
3000
3000
3000
3000
3000
FC00
ENDCHAR
STARTCHAR Delta
ENCODING 916
SWIDTH 612 0
DWIDTH 15 0
BBX 16 17 0 0
BITMAP
0300
0300
0780
0480
04C0
0CC0
0860
0860
1830
1030
3018
2018
200C
600C
4006
C006
FFFF
ENDCHAR
STARTCHAR Epsilon
ENCODING 917
SWIDTH 611 0
DWIDTH 15 0
BBX 13 17 1 0
BITMAP
FFF0
3030
3010
3000
3000
3000
3020
3020
3FE0
3020
3020
3000
3000
3008
3008
3018
FFF8
ENDCHAR
STARTCHAR Zeta
ENCODING 918
SWIDTH 611 0
DWIDTH 15 0
BBX 12 17 1 0
BITMAP
FFF0
C070
8060
00E0
01C0
0180
0380
0700
0600
0E00
1C00
3800
3800
7000
6010
E030
FFF0
ENDCHAR
STARTCHAR Eta
ENCODING 919
SWIDTH 722 0
DWIDTH 18 0
BBX 16 17 1 0
BITMAP
FC3F
300C
300C
300C
300C
300C
300C
300C
3FFC
300C
300C
300C
300C
300C
300C
300C
FC3F
ENDCHAR
STARTCHAR Theta
ENCODING 920
SWIDTH 741 0
DWIDTH 18 0
BBX 16 17 1 0
BITMAP
07E0
1C38
300C
6006
6006
C813
C813
CFF3
CFF3
C813
C813
C003
4002
6006
300C
1C38
07E0
ENDCHAR
STARTCHAR Iota
ENCODING 921
SWIDTH 333 0
DWIDTH 8 0
BBX 6 17 1 0
BITMAP
FC
30
30
30
30
30
30
30
30
30
30
30
30
30
30
30
FC
ENDCHAR
STARTCHAR Kappa
ENCODING 922
SWIDTH 722 0
DWIDTH 17 0
BBX 15 17 1 0
BITMAP
FC7C
3030
3060
30C0
3180
3300
3600
3E00
3F00
3380
3180
31C0
30E0
3070
3038
301C
FC3E
ENDCHAR
STARTCHAR Lambda
ENCODING 923
SWIDTH 686 0
DWIDTH 17 0
BBX 15 17 1 0
BITMAP
0300
0300
0780
0480
04C0
04C0
0CC0
0860
0860
1860
1030
1030
3030
2018
2018
601C
F83E
ENDCHAR
STARTCHAR Mu
ENCODING 924
SWIDTH 889 0
DWIDTH 22 0
BBX 20 17 1 0
BITMAP
F001F0
3801C0
3803C0
3C02C0
2C02C0
2E06C0
2604C0
270CC0
2308C0
2388C0
2198C0
21D0C0
20D0C0
20F0C0
2060C0
2060C0
F803F0
ENDCHAR
STARTCHAR Nu
ENCODING 925
SWIDTH 722 0
DWIDTH 18 0
BBX 16 17 1 0
BITMAP
F01F
3804
3804
2C04
2E04
2604
2304
2304
2184
21C4
20C4
2064
2064
2034
203C
201C
F80C
ENDCHAR
STARTCHAR Xi
ENCODING 926
SWIDTH 645 0
DWIDTH 16 0
BBX 14 17 1 0
BITMAP
7FF8
7FF8
6018
4008
0000
1020
1020
1FE0
1FE0
1020
1020
0000
8004
8004
C00C
FFFC
FFFC
ENDCHAR
STARTCHAR Omicron
ENCODING 927
SWIDTH 722 0
DWIDTH 18 0
BBX 16 17 1 0
BITMAP
07E0
1C38
300C
6006
6006
C003
C003
C003
C003
C003
C003
C003
6006
6006
300C
1C38
07E0
ENDCHAR
STARTCHAR Pi
ENCODING 928
SWIDTH 768 0
DWIDTH 18 0
BBX 16 17 1 0
BITMAP
FFFF
300C
300C
300C
300C
300C
300C
300C
300C
300C
300C
300C
300C
300C
300C
300C
FC3F
ENDCHAR
STARTCHAR Rho
ENCODING 929
SWIDTH 556 0
DWIDTH 14 0
BBX 12 17 1 0
BITMAP
FF80
30E0
3060
3030
3030
3030
3060
30E0
3F80
3000
3000
3000
3000
3000
3000
3000
FC00
ENDCHAR
STARTCHAR Sigma
ENCODING 931
SWIDTH 592 0
DWIDTH 14 0
BBX 12 17 1 0
BITMAP
FFF0
E030
7010
3800
1C00
0E00
0700
0380
0300
0600
0C00
1800
3010
6010
C030
FFF0
FFF0
ENDCHAR
STARTCHAR Tau
ENCODING 932
SWIDTH 611 0
DWIDTH 16 0
BBX 14 17 1 0
BITMAP
FFFC
C30C
8304
8304
0300
0300
0300
0300
0300
0300
0300
0300
0300
0300
0300
0300
0FC0
ENDCHAR
STARTCHAR Upsilon
ENCODING 933
SWIDTH 690 0
DWIDTH 16 0
BBX 16 17 0 0
BITMAP
F81F
700E
300C
1818
1C10
0C30
0E60
0660
03C0
03C0
0180
0180
0180
0180
0180
0180
07E0
ENDCHAR
STARTCHAR Phi
ENCODING 934
SWIDTH 763 0
DWIDTH 19 0
BBX 16 17 1 0
BITMAP
07E0
0180
0180
0FF0
399C
6186
E187
C183
C183
C183
E187
6186
399C
0FF0
0180
0180
07E0
ENDCHAR
STARTCHAR Chi
ENCODING 935
SWIDTH 722 0
DWIDTH 18 0
BBX 17 17 1 0
BITMAP
F81F80
700E00
380C00
1C1800
0C3000
066000
07C000
038000
018000
03C000
06E000
0C7000
083800
181800
301C00
700E00
F81F80
ENDCHAR
STARTCHAR Psi
ENCODING 936
SWIDTH 795 0
DWIDTH 20 0
BBX 18 17 1 0
BITMAP
E3F1C0
70C380
30C300
30C300
38C700
38C700
18C600
1CCE00
07F800
00C000
00C000
00C000
00C000
00C000
00C000
00C000
03F000
ENDCHAR
STARTCHAR Omega
ENCODING 937
SWIDTH 768 0
DWIDTH 18 0
BBX 16 17 1 0
BITMAP
07E0
1C38
300C
6006
6006
C003
C003
C003
C003
E007
6006
300C
1818
8C31
8421
FC3F
FC3F
ENDCHAR
STARTCHAR Iotadieresis
ENCODING 938
SWIDTH 333 0
DWIDTH 8 0
BBX 6 20 1 0
BITMAP
CC
CC
00
FC
30
30
30
30
30
30
30
30
30
30
30
30
30
30
30
FC
ENDCHAR
STARTCHAR Upsilondieresis
ENCODING 939
SWIDTH 690 0
DWIDTH 16 0
BBX 16 20 0 0
BITMAP
0660
0660
0000
F81F
700E
300C
1818
1C10
0C30
0E60
0660
03C0
03C0
0180
0180
0180
0180
0180
0180
07E0
ENDCHAR
STARTCHAR alphatonos
ENCODING 940
SWIDTH 631 0
DWIDTH 16 0
BBX 14 18 1 0
BITMAP
00C0
01C0
0300
0400
0000
1F18
71B8
60B0
E0F0
C060
C060
C060
C060
C060
E0E0
60E4
71FC
1F38
ENDCHAR
STARTCHAR epsilontonos
ENCODING 941
SWIDTH 439 0
DWIDTH 11 0
BBX 9 18 1 0
BITMAP
0600
0E00
1800
2000
0000
3E00
7300
E300
C300
E000
6000
3C00
6000
E000
C000
E080
7180
3F00
ENDCHAR
STARTCHAR etatonos
ENCODING 942
SWIDTH 603 0
DWIDTH 15 0
BBX 12 23 1 -5
BITMAP
0180
0380
0600
0800
0000
71C0
FBE0
9E30
1C30
1830
1830
1830
1830
1830
1830
1830
1830
1830
0030
0030
0030
0030
0030
ENDCHAR
STARTCHAR iotatonos
ENCODING 943
SWIDTH 329 0
DWIDTH 8 0
BBX 7 18 1 0
BITMAP
0C
1C
30
40
00
30
70
F0
30
30
30
30
30
30
30
32
3E
1C
ENDCHAR
STARTCHAR upsilondieresistonos
ENCODING 944
SWIDTH 576 0
DWIDTH 14 0
BBX 13 21 0 0
BITMAP
0180
0380
0600
0800
0000
1980
1980
0000
30E0
7830
D818
9818
1818
1818
1818
1818
1818
1830
0C30
0EE0
07C0
ENDCHAR
STARTCHAR alpha
ENCODING 945
SWIDTH 631 0
DWIDTH 16 0
BBX 14 13 1 0
BITMAP
1F18
71B8
60B0
E0F0
C060
C060
C060
C060
C060
E0E0
60E4
71FC
1F38
ENDCHAR
STARTCHAR beta
ENCODING 946
SWIDTH 549 0
DWIDTH 12 0
BBX 10 24 1 -5
BITMAP
3E00
6700
C380
C180
C180
C380
C300
CE00
CF00
C380
C180
C1C0
C0C0
C0C0
C0C0
C1C0
E180
F380
DF00
C000
C000
C000
C000
C000
ENDCHAR
STARTCHAR gamma
ENCODING 947
SWIDTH 411 0
DWIDTH 11 0
BBX 11 18 0 -5
BITMAP
7060
F860
9860
98C0
18C0
0CC0
0D80
0D80
0580
0700
0700
0300
0600
0600
0600
0600
0600
0600
ENDCHAR
STARTCHAR delta
ENCODING 948
SWIDTH 494 0
DWIDTH 12 0
BBX 10 18 1 0
BITMAP
1F00
3380
2180
3000
3800
1C00
0E00
3F00
7380
6180
C0C0
C0C0
C0C0
C0C0
C0C0
6180
7380
1E00
ENDCHAR
STARTCHAR epsilon
ENCODING 949
SWIDTH 439 0
DWIDTH 11 0
BBX 9 13 1 0
BITMAP
3E00
7300
E300
C300
E000
6000
3C00
6000
E000
C000
E080
7180
3F00
ENDCHAR
STARTCHAR zeta
ENCODING 950
SWIDTH 494 0
DWIDTH 12 0
BBX 10 24 1 -5
BITMAP
3000
6380
6780
3F00
1800
3000
2000
6000
4000
C000
8000
8000
8000
8000
C000
F000
7C00
3F80
0FC0
00C0
0040
00C0
0F80
0F00
ENDCHAR
STARTCHAR eta
ENCODING 951
SWIDTH 603 0
DWIDTH 15 0
BBX 12 18 1 -5
BITMAP
71C0
FBE0
9E30
1C30
1830
1830
1830
1830
1830
1830
1830
1830
1830
0030
0030
0030
0030
0030
ENDCHAR
STARTCHAR theta
ENCODING 952
SWIDTH 521 0
DWIDTH 12 0
BBX 10 17 1 0
BITMAP
1E00
3300
6180
6180
C0C0
C0C0
C0C0
C0C0
FFC0
C0C0
C0C0
C0C0
C0C0
6180
6180
3300
1E00
ENDCHAR
STARTCHAR iota
ENCODING 953
SWIDTH 329 0
DWIDTH 8 0
BBX 7 13 1 0
BITMAP
30
70
F0
30
30
30
30
30
30
30
32
3E
1C
ENDCHAR
STARTCHAR kappa
ENCODING 954
SWIDTH 549 0
DWIDTH 14 0
BBX 12 13 1 0
BITMAP
3070
70F0
F1B0
3300
3600
3C00
3C00
3E00
3700
3380
31C0
30E0
31F0
ENDCHAR
STARTCHAR lambda
ENCODING 955
SWIDTH 549 0
DWIDTH 14 0
BBX 12 19 1 0
BITMAP
7000
F800
8800
0800
0800
0C00
0C00
0C00
1C00
1E00
1A00
3200
3200
3300
6100
6100
6190
C1F0
C0E0
ENDCHAR
STARTCHAR mu
ENCODING 956
SWIDTH 500 0
DWIDTH 13 0
BBX 11 17 1 -5
BITMAP
E1C0
60C0
60C0
60C0
60C0
60C0
60C0
60C0
60C0
71C0
7EC0
5CE0
4000
4000
C000
E000
4000
ENDCHAR
STARTCHAR nu
ENCODING 957
SWIDTH 521 0
DWIDTH 13 0
BBX 11 13 1 0
BITMAP
C0E0
C0E0
C060
6040
60C0
6080
3180
3100
3300
1A00
1A00
0E00
0C00
ENDCHAR
STARTCHAR xi
ENCODING 958
SWIDTH 493 0
DWIDTH 12 0
BBX 10 24 1 -5
BITMAP
3000
6380
6780
3F00
3000
2000
3780
1F80
3000
6000
C000
8000
8000
8000
C000
F000
7C00
3F80
0FC0
00C0
0040
00C0
0F80
0F00
ENDCHAR
STARTCHAR omicron
ENCODING 959
SWIDTH 549 0
DWIDTH 13 0
BBX 11 13 1 0
BITMAP
1F00
71C0
60C0
E0E0
C060
C060
C060
C060
C060
E0E0
60C0
71C0
1F00
ENDCHAR
STARTCHAR pi
ENCODING 960
SWIDTH 549 0
DWIDTH 14 0
BBX 13 13 0 0
BITMAP
7FF8
FFF8
98C0
18C0
18C0
18C0
18C0
18C0
18C0
18C0
18C8
38F8
30F0
ENDCHAR
STARTCHAR rho
ENCODING 961
SWIDTH 549 0
DWIDTH 12 0
BBX 10 18 1 -5
BITMAP
3E00
6380
C180
C1C0
C0C0
C0C0
C0C0
C0C0
C0C0
C1C0
C180
E380
DE00
C000
C000
C000
C000
C000
ENDCHAR
STARTCHAR sigma1
ENCODING 962
SWIDTH 439 0
DWIDTH 11 0
BBX 9 18 1 -5
BITMAP
1F80
3F80
6000
6000
C000
C000
C000
C000
C000
C000
6000
7F00
1F80
0080
0080
0180
0F00
0E00
ENDCHAR
STARTCHAR sigma
ENCODING 963
SWIDTH 603 0
DWIDTH 15 0
BBX 14 13 1 0
BITMAP
1FFC
71FC
60C0
E0E0
C060
C060
C060
C060
C060
E0E0
60C0
71C0
1F00
ENDCHAR
STARTCHAR tau
ENCODING 964
SWIDTH 439 0
DWIDTH 11 0
BBX 10 13 0 0
BITMAP
3FC0
7FC0
CC00
8C00
0C00
0C00
0C00
0C00
0C00
0C00
0C80
0F80
0700
ENDCHAR
STARTCHAR upsilon
ENCODING 965
SWIDTH 576 0
DWIDTH 14 0
BBX 13 13 0 0
BITMAP
30E0
7830
D818
9818
1818
1818
1818
1818
1818
1830
0C30
0EE0
07C0
ENDCHAR
STARTCHAR phi
ENCODING 966
SWIDTH 603 0
DWIDTH 14 0
BBX 12 18 1 -5
BITMAP
3380
73C0
6660
C670
C630
C630
C630
C630
C630
E670
6660
36C0
1F80
0600
0600
0600
0600
0600
ENDCHAR
STARTCHAR chi
ENCODING 967
SWIDTH 549 0
DWIDTH 14 0
BBX 12 18 1 -5
BITMAP
7060
F860
D8C0
88C0
0980
0980
0B00
0700
0600
0600
0E00
0E00
1900
1900
3110
31B0
61F0
60E0
ENDCHAR
STARTCHAR psi
ENCODING 968
SWIDTH 686 0
DWIDTH 18 0
BBX 16 18 1 -5
BITMAP
C183
718E
318C
399C
399C
399C
399C
399C
399C
1998
1998
0DB0
07E0
0180
0180
0180
0180
0180
ENDCHAR
STARTCHAR omega
ENCODING 969
SWIDTH 686 0
DWIDTH 16 0
BBX 14 13 1 0
BITMAP
1860
3030
6018
6318
C30C
C30C
C30C
C30C
C30C
C30C
6318
77B8
3CF0
ENDCHAR
STARTCHAR iotadieresis
ENCODING 970
SWIDTH 329 0
DWIDTH 8 0
BBX 7 16 1 0
BITMAP
CC
CC
00
30
70
F0
30
30
30
30
30
30
30
32
3E
1C
ENDCHAR
STARTCHAR upsilondieresis
ENCODING 971
SWIDTH 576 0
DWIDTH 14 0
BBX 13 16 0 0
BITMAP
1980
1980
0000
30E0
7830
D818
9818
1818
1818
1818
1818
1818
1830
0C30
0EE0
07C0
ENDCHAR
STARTCHAR omicrontonos
ENCODING 972
SWIDTH 549 0
DWIDTH 13 0
BBX 11 18 1 0
BITMAP
0180
0380
0600
0800
0000
1F00
71C0
60C0
E0E0
C060
C060
C060
C060
C060
E0E0
60C0
71C0
1F00
ENDCHAR
STARTCHAR upsilontonos
ENCODING 973
SWIDTH 576 0
DWIDTH 14 0
BBX 13 18 0 0
BITMAP
0180
0380
0600
0800
0000
30E0
7830
D818
9818
1818
1818
1818
1818
1818
1830
0C30
0EE0
07C0
ENDCHAR
STARTCHAR omegatonos
ENCODING 974
SWIDTH 686 0
DWIDTH 16 0
BBX 14 18 1 0
BITMAP
00C0
01C0
0300
0400
0000
1860
3030
6018
6318
C30C
C30C
C30C
C30C
C30C
C30C
6318
77B8
3CF0
ENDCHAR
STARTCHAR theta1
ENCODING 977
SWIDTH 631 0
DWIDTH 16 0
BBX 14 17 1 0
BITMAP
03C0
06E0
0460
0660
0330
71B0
F8F0
983C
1830
1830
3030
3030
3030
3060
3860
1CC0
0F80
ENDCHAR
STARTCHAR Upsilon1
ENCODING 978
SWIDTH 620 0
DWIDTH 15 0
BBX 13 17 1 0
BITMAP
E070
70D8
39B8
1B30
0E00
0600
0600
0600
0600
0600
0600
0600
0600
0600
0600
0600
1F80
ENDCHAR
STARTCHAR uni03D3
ENCODING 979
SWIDTH 620 0
DWIDTH 15 0
BBX 13 22 1 0
BITMAP
00C0
01C0
0300
0400
0000
E070
70D8
39B8
1B30
0E00
0600
0600
0600
0600
0600
0600
0600
0600
0600
0600
0600
1F80
ENDCHAR
STARTCHAR uni03D4
ENCODING 980
SWIDTH 620 0
DWIDTH 15 0
BBX 13 20 1 0
BITMAP
0CC0
0CC0
0000
E070
70D8
39B8
1B30
0E00
0600
0600
0600
0600
0600
0600
0600
0600
0600
0600
0600
1F80
ENDCHAR
STARTCHAR phi1
ENCODING 981
SWIDTH 521 0
DWIDTH 14 0
BBX 12 22 1 -5
BITMAP
0600
0600
0600
0600
1F80
36C0
6660
E670
C630
C630
C630
C630
C630
E670
6660
36C0
1F80
0600
0600
0600
0600
0600
ENDCHAR
STARTCHAR omega1
ENCODING 982
SWIDTH 713 0
DWIDTH 18 0
BBX 16 14 1 0
BITMAP
7FFF
FFFF
9818
300C
318C
6186
6186
6186
6186
6186
6186
318C
3BDC
1E78
ENDCHAR
STARTCHAR uni1E00
ENCODING 7680
SWIDTH 722 0
DWIDTH 17 0
BBX 17 22 0 -5
BITMAP
008000
01C000
01C000
016000
026000
023000
063000
043000
041800
0C1800
0FF800
080C00
180C00
100C00
100600
300600
FC1F80
000000
01C000
022000
022000
01C000
ENDCHAR
STARTCHAR uni1E01
ENCODING 7681
SWIDTH 444 0
DWIDTH 11 0
BBX 9 17 1 -5
BITMAP
3E00
6700
6300
0300
0F00
3B00
6300
C300
C300
C700
FB00
7180
0000
1C00
2200
2200
1C00
ENDCHAR
STARTCHAR uni1E02
ENCODING 7682
SWIDTH 667 0
DWIDTH 16 0
BBX 14 20 1 0
BITMAP
0300
0300
0000
FFC0
3070
3030
3018
3018
3018
3030
3040
3FE0
3038
3018
300C
300C
300C
3018
3078
FFE0
ENDCHAR
STARTCHAR uni1E03
ENCODING 7683
SWIDTH 500 0
DWIDTH 12 0
BBX 10 20 1 0
BITMAP
3000
3000
0000
E000
6000
6000
6000
6000
6E00
7380
6180
60C0
60C0
60C0
60C0
60C0
60C0
6180
7380
5E00
ENDCHAR
STARTCHAR uni1E04
ENCODING 7684
SWIDTH 667 0
DWIDTH 16 0
BBX 14 20 1 -3
BITMAP
FFC0
3070
3030
3018
3018
3018
3030
3040
3FE0
3038
3018
300C
300C
300C
3018
3078
FFE0
0000
0300
0300
ENDCHAR
STARTCHAR uni1E05
ENCODING 7685
SWIDTH 500 0
DWIDTH 12 0
BBX 10 20 1 -3
BITMAP
E000
6000
6000
6000
6000
6E00
7380
6180
60C0
60C0
60C0
60C0
60C0
60C0
6180
7380
5E00
0000
0C00
0C00
ENDCHAR
STARTCHAR uni1E06
ENCODING 7686
SWIDTH 667 0
DWIDTH 16 0
BBX 14 20 1 -3
BITMAP
FFC0
3070
3030
3018
3018
3018
3030
3040
3FE0
3038
3018
300C
300C
300C
3018
3078
FFE0
0000
0FC0
0FC0
ENDCHAR
STARTCHAR uni1E07
ENCODING 7687
SWIDTH 500 0
DWIDTH 12 0
BBX 10 20 1 -3
BITMAP
E000
6000
6000
6000
6000
6E00
7380
6180
60C0
60C0
60C0
60C0
60C0
60C0
6180
7380
5E00
0000
3F00
3F00
ENDCHAR
STARTCHAR uni1E08
ENCODING 7688
SWIDTH 667 0
DWIDTH 16 0
BBX 14 28 1 -6
BITMAP
00C0
01C0
0300
0400
0000
07E4
1C3C
380C
6004
6004
C000
C000
C000
C000
C000
C000
C000
6000
6004
3808
1E38
07E0
0100
0300
03C0
00C0
0CC0
0780
ENDCHAR
STARTCHAR uni1E09
ENCODING 7689
SWIDTH 444 0
DWIDTH 11 0
BBX 9 23 1 -6
BITMAP
0300
0700
0C00
1000
0000
1F00
6380
4180
C000
C000
C000
C000
C000
E000
7080
7F00
1E00
0800
1800
1E00
0600
6600
3C00
ENDCHAR
STARTCHAR uni1E0A
ENCODING 7690
SWIDTH 722 0
DWIDTH 17 0
BBX 15 20 1 0
BITMAP
0300
0300
0000
FFC0
3070
3038
300C
300C
3006
3006
3006
3006
3006
3006
3006
300C
300C
3038
3070
FFC0
ENDCHAR
STARTCHAR uni1E0B
ENCODING 7691
SWIDTH 500 0
DWIDTH 12 0
BBX 10 20 1 0
BITMAP
0300
0300
0000
0380
0180
0180
0180
0180
1D80
7380
6180
C180
C180
C180
C180
C180
C180
6180
7380
1EC0
ENDCHAR
STARTCHAR uni1E0C
ENCODING 7692
SWIDTH 722 0
DWIDTH 17 0
BBX 15 20 1 -3
BITMAP
FFC0
3070
3038
300C
300C
3006
3006
3006
3006
3006
3006
3006
300C
300C
3038
3070
FFC0
0000
0300
0300
ENDCHAR
STARTCHAR uni1E0D
ENCODING 7693
SWIDTH 500 0
DWIDTH 12 0
BBX 10 20 1 -3
BITMAP
0380
0180
0180
0180
0180
1D80
7380
6180
C180
C180
C180
C180
C180
C180
6180
7380
1EC0
0000
0C00
0C00
ENDCHAR
STARTCHAR uni1E0E
ENCODING 7694
SWIDTH 722 0
DWIDTH 17 0
BBX 15 20 1 -3
BITMAP
FFC0
3070
3038
300C
300C
3006
3006
3006
3006
3006
3006
3006
300C
300C
3038
3070
FFC0
0000
0FC0
0FC0
ENDCHAR
STARTCHAR uni1E0F
ENCODING 7695
SWIDTH 500 0
DWIDTH 12 0
BBX 10 20 1 -3
BITMAP
0380
0180
0180
0180
0180
1D80
7380
6180
C180
C180
C180
C180
C180
C180
6180
7380
1EC0
0000
3F00
3F00
ENDCHAR
STARTCHAR uni1E10
ENCODING 7696
SWIDTH 722 0
DWIDTH 17 0
BBX 15 23 1 -6
BITMAP
FFC0
3070
3038
300C
300C
3006
3006
3006
3006
3006
3006
3006
300C
300C
3038
3070
FFC0
0100
0300
03C0
00C0
0CC0
0780
ENDCHAR
STARTCHAR uni1E11
ENCODING 7697
SWIDTH 500 0
DWIDTH 12 0
BBX 10 23 1 -6
BITMAP
0380
0180
0180
0180
0180
1D80
7380
6180
C180
C180
C180
C180
C180
C180
6180
7380
1EC0
0400
0C00
0F00
0300
3300
1E00
ENDCHAR
STARTCHAR uni1E12
ENCODING 7698
SWIDTH 722 0
DWIDTH 17 0
BBX 15 22 1 -5
BITMAP
FFC0
3070
3038
300C
300C
3006
3006
3006
3006
3006
3006
3006
300C
300C
3038
3070
FFC0
0000
0300
0780
0480
0840
ENDCHAR
STARTCHAR uni1E13
ENCODING 7699
SWIDTH 500 0
DWIDTH 12 0
BBX 10 22 1 -5
BITMAP
0380
0180
0180
0180
0180
1D80
7380
6180
C180
C180
C180
C180
C180
C180
6180
7380
1EC0
0000
0C00
1E00
1200
2100
ENDCHAR
STARTCHAR uni1E14
ENCODING 7700
SWIDTH 611 0
DWIDTH 15 0
BBX 13 25 1 0
BITMAP
1800
1C00
0600
0100
0000
1F80
1F80
0000
FFF0
3030
3010
3010
3000
3000
3040
3040
3FC0
3040
3040
3000
3000
3008
3008
3018
FFF8
ENDCHAR
STARTCHAR uni1E15
ENCODING 7701
SWIDTH 444 0
DWIDTH 11 0
BBX 9 20 1 0
BITMAP
3000
3800
0C00
0200
0000
3F00
3F00
0000
1E00
6300
4180
C180
FF80
C000
C000
C000
E000
7080
7F00
1E00
ENDCHAR
STARTCHAR uni1E16
ENCODING 7702
SWIDTH 611 0
DWIDTH 15 0
BBX 13 25 1 0
BITMAP
0180
0380
0600
0800
0000
1F80
1F80
0000
FFF0
3030
3010
3010
3000
3000
3040
3040
3FC0
3040
3040
3000
3000
3008
3008
3018
FFF8
ENDCHAR
STARTCHAR uni1E17
ENCODING 7703
SWIDTH 444 0
DWIDTH 11 0
BBX 9 20 1 0
BITMAP
0300
0700
0C00
1000
0000
3F00
3F00
0000
1E00
6300
4180
C180
FF80
C000
C000
C000
E000
7080
7F00
1E00
ENDCHAR
STARTCHAR uni1E18
ENCODING 7704
SWIDTH 611 0
DWIDTH 15 0
BBX 13 22 1 -5
BITMAP
FFF0
3030
3010
3010
3000
3000
3040
3040
3FC0
3040
3040
3000
3000
3008
3008
3018
FFF8
0000
0600
0F00
0900
1080
ENDCHAR
STARTCHAR uni1E19
ENCODING 7705
SWIDTH 444 0
DWIDTH 11 0
BBX 9 17 1 -5
BITMAP
1E00
6300
4180
C180
FF80
C000
C000
C000
E000
7080
7F00
1E00
0000
1800
3C00
2400
4200
ENDCHAR
STARTCHAR uni1E1A
ENCODING 7706
SWIDTH 611 0
DWIDTH 15 0
BBX 13 20 1 -3
BITMAP
FFF0
3030
3010
3010
3000
3000
3040
3040
3FC0
3040
3040
3000
3000
3008
3008
3018
FFF8
0000
0E80
1700
ENDCHAR
STARTCHAR uni1E1B
ENCODING 7707
SWIDTH 444 0
DWIDTH 11 0
BBX 9 15 1 -3
BITMAP
1E00
6300
4180
C180
FF80
C000
C000
C000
E000
7080
7F00
1E00
0000
3A00
5C00
ENDCHAR
STARTCHAR uni1E1C
ENCODING 7708
SWIDTH 611 0
DWIDTH 15 0
BBX 13 27 1 -6
BITMAP
1080
1980
0F00
0000
FFF0
3030
3010
3010
3000
3000
3040
3040
3FC0
3040
3040
3000
3000
3008
3008
3018
FFF8
0200
0600
0780
0180
1980
0F00
ENDCHAR
STARTCHAR uni1E1D
ENCODING 7709
SWIDTH 444 0
DWIDTH 11 0
BBX 9 22 1 -6
BITMAP
2100
3300
1E00
0000
1E00
6300
4180
C180
FF80
C000
C000
C000
E000
7080
7F00
1E00
0800
1800
1E00
0600
6600
3C00
ENDCHAR
STARTCHAR uni1E1E
ENCODING 7710
SWIDTH 556 0
DWIDTH 14 0
BBX 12 20 1 0
BITMAP
0600
0600
0000
FFF0
3030
3010
3010
3000
3000
3020
3020
3FE0
3020
3020
3000
3000
3000
3000
3000
FC00
ENDCHAR
STARTCHAR uni1E1F
ENCODING 7711
SWIDTH 333 0
DWIDTH 7 0
BBX 7 20 0 0
BITMAP
18
18
00
0E
16
30
30
30
FE
30
30
30
30
30
30
30
30
30
30
78
ENDCHAR
STARTCHAR uni1E20
ENCODING 7712
SWIDTH 722 0
DWIDTH 18 0
BBX 16 20 1 0
BITMAP
07E0
07E0
0000
07E4
1C3C
380C
6004
6004
C000
C000
C000
C000
C03F
C00C
C00C
600C
600C
381C
1E38
07E0
ENDCHAR
STARTCHAR uni1E21
ENCODING 7713
SWIDTH 500 0
DWIDTH 12 0
BBX 11 20 1 -5
BITMAP
3F00
3F00
0000
1FC0
3300
6180
6180
6180
6180
3300
3E00
3000
6000
7F00
3FC0
6060
C020
C060
F1C0
3F00
ENDCHAR
STARTCHAR uni1E22
ENCODING 7714
SWIDTH 722 0
DWIDTH 19 0
BBX 17 20 1 0
BITMAP
00C000
00C000
000000
FC1F80
300600
300600
300600
300600
300600
300600
300600
3FFE00
300600
300600
300600
300600
300600
300600
300600
FC1F80
ENDCHAR
STARTCHAR uni1E23
ENCODING 7715
SWIDTH 500 0
DWIDTH 13 0
BBX 11 20 1 0
BITMAP
3000
3000
0000
E000
6000
6000
6000
6000
6700
6F80
71C0
60C0
60C0
60C0
60C0
60C0
60C0
60C0
60C0
F1E0
ENDCHAR
STARTCHAR uni1E24
ENCODING 7716
SWIDTH 722 0
DWIDTH 19 0
BBX 17 20 1 -3
BITMAP
FC1F80
300600
300600
300600
300600
300600
300600
300600
3FFE00
300600
300600
300600
300600
300600
300600
300600
FC1F80
000000
00C000
00C000
ENDCHAR
STARTCHAR uni1E25
ENCODING 7717
SWIDTH 500 0
DWIDTH 13 0
BBX 11 20 1 -3
BITMAP
E000
6000
6000
6000
6000
6700
6F80
71C0
60C0
60C0
60C0
60C0
60C0
60C0
60C0
60C0
F1E0
0000
0600
0600
ENDCHAR
STARTCHAR uni1E26
ENCODING 7718
SWIDTH 722 0
DWIDTH 19 0
BBX 17 20 1 0
BITMAP
033000
033000
000000
FC1F80
300600
300600
300600
300600
300600
300600
300600
3FFE00
300600
300600
300600
300600
300600
300600
300600
FC1F80
ENDCHAR
STARTCHAR uni1E27
ENCODING 7719
SWIDTH 500 0
DWIDTH 13 0
BBX 11 20 1 0
BITMAP
CC00
CC00
0000
E000
6000
6000
6000
6000
6700
6F80
71C0
60C0
60C0
60C0
60C0
60C0
60C0
60C0
60C0
F1E0
ENDCHAR
STARTCHAR uni1E28
ENCODING 7720
SWIDTH 722 0
DWIDTH 19 0
BBX 17 23 1 -6
BITMAP
FC1F80
300600
300600
300600
300600
300600
300600
300600
3FFE00
300600
300600
300600
300600
300600
300600
300600
FC1F80
008000
018000
01E000
006000
066000
03C000
ENDCHAR
STARTCHAR uni1E29
ENCODING 7721
SWIDTH 500 0
DWIDTH 13 0
BBX 11 23 1 -6
BITMAP
E000
6000
6000
6000
6000
6700
6F80
71C0
60C0
60C0
60C0
60C0
60C0
60C0
60C0
60C0
F1E0
0400
0C00
0F00
0300
3300
1E00
ENDCHAR
STARTCHAR uni1E2A
ENCODING 7722
SWIDTH 722 0
DWIDTH 19 0
BBX 17 21 1 -4
BITMAP
FC1F80
300600
300600
300600
300600
300600
300600
300600
3FFE00
300600
300600
300600
300600
300600
300600
300600
FC1F80
000000
021000
033000
01E000
ENDCHAR
STARTCHAR uni1E2B
ENCODING 7723
SWIDTH 500 0
DWIDTH 13 0
BBX 11 21 1 -4
BITMAP
E000
6000
6000
6000
6000
6700
6F80
71C0
60C0
60C0
60C0
60C0
60C0
60C0
60C0
60C0
F1E0
0000
1080
1980
0F00
ENDCHAR
STARTCHAR uni1E2C
ENCODING 7724
SWIDTH 333 0
DWIDTH 8 0
BBX 6 20 1 -3
BITMAP
FC
30
30
30
30
30
30
30
30
30
30
30
30
30
30
30
FC
00
74
B8
ENDCHAR
STARTCHAR uni1E2D
ENCODING 7725
SWIDTH 278 0
DWIDTH 6 0
BBX 6 20 0 -3
BITMAP
30
30
00
00
00
70
30
30
30
30
30
30
30
30
30
30
78
00
74
B8
ENDCHAR
STARTCHAR uni1E2E
ENCODING 7726
SWIDTH 333 0
DWIDTH 8 0
BBX 6 26 1 0
BITMAP
0C
1C
30
40
00
CC
CC
00
00
FC
30
30
30
30
30
30
30
30
30
30
30
30
30
30
30
FC
ENDCHAR
STARTCHAR uni1E2F
ENCODING 7727
SWIDTH 278 0
DWIDTH 6 0
BBX 6 21 0 0
BITMAP
0C
1C
30
40
00
CC
CC
00
00
70
30
30
30
30
30
30
30
30
30
30
78
ENDCHAR
STARTCHAR uni1E30
ENCODING 7728
SWIDTH 722 0
DWIDTH 17 0
BBX 16 22 1 0
BITMAP
0060
00E0
0180
0200
0000
FC7E
3018
3030
3060
30C0
3180
3300
3E00
3F00
3380
31C0
30E0
3070
3038
301C
300E
FC1F
ENDCHAR
STARTCHAR uni1E31
ENCODING 7729
SWIDTH 500 0
DWIDTH 12 0
BBX 11 22 1 0
BITMAP
0C00
1C00
3000
4000
0000
E000
6000
6000
6000
6000
67C0
6300
6600
6400
6800
7800
6C00
6E00
6700
6380
61C0
F3E0
ENDCHAR
STARTCHAR uni1E32
ENCODING 7730
SWIDTH 722 0
DWIDTH 17 0
BBX 16 20 1 -3
BITMAP
FC7E
3018
3030
3060
30C0
3180
3300
3E00
3F00
3380
31C0
30E0
3070
3038
301C
300E
FC1F
0000
0180
0180
ENDCHAR
STARTCHAR uni1E33
ENCODING 7731
SWIDTH 500 0
DWIDTH 12 0
BBX 11 20 1 -3
BITMAP
E000
6000
6000
6000
6000
67C0
6300
6600
6400
6800
7800
6C00
6E00
6700
6380
61C0
F3E0
0000
0C00
0C00
ENDCHAR
STARTCHAR uni1E34
ENCODING 7732
SWIDTH 722 0
DWIDTH 17 0
BBX 16 20 1 -3
BITMAP
FC7E
3018
3030
3060
30C0
3180
3300
3E00
3F00
3380
31C0
30E0
3070
3038
301C
300E
FC1F
0000
07E0
07E0
ENDCHAR
STARTCHAR uni1E35
ENCODING 7733
SWIDTH 500 0
DWIDTH 12 0
BBX 11 20 1 -3
BITMAP
E000
6000
6000
6000
6000
67C0
6300
6600
6400
6800
7800
6C00
6E00
6700
6380
61C0
F3E0
0000
3F00
3F00
ENDCHAR
STARTCHAR uni1E36
ENCODING 7734
SWIDTH 611 0
DWIDTH 14 0
BBX 13 20 1 -3
BITMAP
FC00
3000
3000
3000
3000
3000
3000
3000
3000
3000
3000
3000
3000
3008
3008
3018
FFF8
0000
0600
0600
ENDCHAR
STARTCHAR uni1E37
ENCODING 7735
SWIDTH 278 0
DWIDTH 6 0
BBX 4 20 1 -3
BITMAP
E0
60
60
60
60
60
60
60
60
60
60
60
60
60
60
60
F0
00
60
60
ENDCHAR
STARTCHAR uni1E38
ENCODING 7736
SWIDTH 611 0
DWIDTH 14 0
BBX 13 23 1 -3
BITMAP
7E00
7E00
0000
FC00
3000
3000
3000
3000
3000
3000
3000
3000
3000
3000
3000
3000
3008
3008
3018
FFF8
0000
0600
0600
ENDCHAR
STARTCHAR uni1E39
ENCODING 7737
SWIDTH 278 0
DWIDTH 6 0
BBX 6 23 0 -3
BITMAP
FC
FC
00
70
30
30
30
30
30
30
30
30
30
30
30
30
30
30
30
78
00
30
30
ENDCHAR
STARTCHAR uni1E3A
ENCODING 7738
SWIDTH 611 0
DWIDTH 14 0
BBX 13 20 1 -3
BITMAP
FC00
3000
3000
3000
3000
3000
3000
3000
3000
3000
3000
3000
3000
3008
3008
3018
FFF8
0000
1F80
1F80
ENDCHAR
STARTCHAR uni1E3B
ENCODING 7739
SWIDTH 278 0
DWIDTH 6 0
BBX 6 20 0 -3
BITMAP
70
30
30
30
30
30
30
30
30
30
30
30
30
30
30
30
78
00
FC
FC
ENDCHAR
STARTCHAR uni1E3C
ENCODING 7740
SWIDTH 611 0
DWIDTH 14 0
BBX 13 22 1 -5
BITMAP
FC00
3000
3000
3000
3000
3000
3000
3000
3000
3000
3000
3000
3000
3008
3008
3018
FFF8
0000
0600
0F00
0900
1080
ENDCHAR
STARTCHAR uni1E3D
ENCODING 7741
SWIDTH 278 0
DWIDTH 6 0
BBX 6 22 0 -5
BITMAP
70
30
30
30
30
30
30
30
30
30
30
30
30
30
30
30
78
00
30
78
48
84
ENDCHAR
STARTCHAR uni1E3E
ENCODING 7742
SWIDTH 889 0
DWIDTH 22 0
BBX 21 22 1 0
BITMAP
000C00
001C00
003000
004000
000000
F000F8
3000E0
380160
380160
2C0260
2C0260
260260
260460
230460
230860
218860
218860
20D060
20D060
206060
206060
F821F8
ENDCHAR
STARTCHAR uni1E3F
ENCODING 7743
SWIDTH 778 0
DWIDTH 20 0
BBX 18 17 1 0
BITMAP
003000
007000
00C000
010000
000000
E70E00
6F9F00
71E380
60C180
60C180
60C180
60C180
60C180
60C180
60C180
60C180
F1E3C0
ENDCHAR
STARTCHAR uni1E40
ENCODING 7744
SWIDTH 889 0
DWIDTH 22 0
BBX 21 20 1 0
BITMAP
003000
003000
000000
F000F8
3000E0
380160
380160
2C0260
2C0260
260260
260460
230460
230860
218860
218860
20D060
20D060
206060
206060
F821F8
ENDCHAR
STARTCHAR uni1E41
ENCODING 7745
SWIDTH 778 0
DWIDTH 20 0
BBX 18 15 1 0
BITMAP
00C000
00C000
000000
E70E00
6F9F00
71E380
60C180
60C180
60C180
60C180
60C180
60C180
60C180
60C180
F1E3C0
ENDCHAR
STARTCHAR uni1E42
ENCODING 7746
SWIDTH 889 0
DWIDTH 22 0
BBX 21 20 1 -3
BITMAP
F000F8
3000E0
380160
380160
2C0260
2C0260
260260
260460
230460
230860
218860
218860
20D060
20D060
206060
206060
F821F8
000000
003000
003000
ENDCHAR
STARTCHAR uni1E43
ENCODING 7747
SWIDTH 778 0
DWIDTH 20 0
BBX 18 15 1 -3
BITMAP
E70E00
6F9F00
71E380
60C180
60C180
60C180
60C180
60C180
60C180
60C180
60C180
F1E3C0
000000
00C000
00C000
ENDCHAR
STARTCHAR uni1E44
ENCODING 7748
SWIDTH 722 0
DWIDTH 18 0
BBX 16 20 1 0
BITMAP
0300
0300
0000
F01F
3004
3804
3804
2C04
2604
2604
2304
2184
2184
20C4
2064
2064
2034
201C
201C
F80C
ENDCHAR
STARTCHAR uni1E45
ENCODING 7749
SWIDTH 500 0
DWIDTH 13 0
BBX 11 15 1 0
BITMAP
0C00
0C00
0000
E700
6F80
71C0
60C0
60C0
60C0
60C0
60C0
60C0
60C0
60C0
F1E0
ENDCHAR
STARTCHAR uni1E46
ENCODING 7750
SWIDTH 722 0
DWIDTH 18 0
BBX 16 20 1 -3
BITMAP
F01F
3004
3804
3804
2C04
2604
2604
2304
2184
2184
20C4
2064
2064
2034
201C
201C
F80C
0000
0180
0180
ENDCHAR
STARTCHAR uni1E47
ENCODING 7751
SWIDTH 500 0
DWIDTH 13 0
BBX 11 15 1 -3
BITMAP
E700
6F80
71C0
60C0
60C0
60C0
60C0
60C0
60C0
60C0
60C0
F1E0
0000
0600
0600
ENDCHAR
STARTCHAR uni1E48
ENCODING 7752
SWIDTH 722 0
DWIDTH 18 0
BBX 16 20 1 -3
BITMAP
F01F
3004
3804
3804
2C04
2604
2604
2304
2184
2184
20C4
2064
2064
2034
201C
201C
F80C
0000
07E0
07E0
ENDCHAR
STARTCHAR uni1E49
ENCODING 7753
SWIDTH 500 0
DWIDTH 13 0
BBX 11 15 1 -3
BITMAP
E700
6F80
71C0
60C0
60C0
60C0
60C0
60C0
60C0
60C0
60C0
F1E0
0000
1F80
1F80
ENDCHAR
STARTCHAR uni1E4A
ENCODING 7754
SWIDTH 722 0
DWIDTH 18 0
BBX 16 22 1 -5
BITMAP
F01F
3004
3804
3804
2C04
2604
2604
2304
2184
2184
20C4
2064
2064
2034
201C
201C
F80C
0000
0180
03C0
0240
0420
ENDCHAR
STARTCHAR uni1E4B
ENCODING 7755
SWIDTH 500 0
DWIDTH 13 0
BBX 11 17 1 -5
BITMAP
E700
6F80
71C0
60C0
60C0
60C0
60C0
60C0
60C0
60C0
60C0
F1E0
0000
0600
0F00
0900
1080
ENDCHAR
STARTCHAR uni1E4C
ENCODING 7756
SWIDTH 722 0
DWIDTH 18 0
BBX 16 26 1 0
BITMAP
0060
00E0
0180
0200
0000
0390
04E0
0000
0000
07E0
1C38
381C
6006
6006
C003
C003
C003
C003
C003
C003
C003
6006
6006
381C
1C38
07E0
ENDCHAR
STARTCHAR uni1E4D
ENCODING 7757
SWIDTH 500 0
DWIDTH 12 0
BBX 10 21 1 0
BITMAP
0300
0700
0C00
1000
0000
1C80
2700
0000
0000
1E00
7380
6180
C0C0
C0C0
C0C0
C0C0
C0C0
C0C0
6180
7380
1E00
ENDCHAR
STARTCHAR uni1E4E
ENCODING 7758
SWIDTH 722 0
DWIDTH 18 0
BBX 16 24 1 0
BITMAP
0660
0660
0000
0390
04E0
0000
0000
07E0
1C38
381C
6006
6006
C003
C003
C003
C003
C003
C003
C003
6006
6006
381C
1C38
07E0
ENDCHAR
STARTCHAR uni1E4F
ENCODING 7759
SWIDTH 500 0
DWIDTH 12 0
BBX 10 19 1 0
BITMAP
3300
3300
0000
1C80
2700
0000
0000
1E00
7380
6180
C0C0
C0C0
C0C0
C0C0
C0C0
C0C0
6180
7380
1E00
ENDCHAR
STARTCHAR uni1E50
ENCODING 7760
SWIDTH 722 0
DWIDTH 18 0
BBX 16 25 1 0
BITMAP
0600
0700
0180
0040
0000
07E0
07E0
0000
07E0
1C38
381C
6006
6006
C003
C003
C003
C003
C003
C003
C003
6006
6006
381C
1C38
07E0
ENDCHAR
STARTCHAR uni1E51
ENCODING 7761
SWIDTH 500 0
DWIDTH 12 0
BBX 10 20 1 0
BITMAP
3000
3800
0C00
0200
0000
3F00
3F00
0000
1E00
7380
6180
C0C0
C0C0
C0C0
C0C0
C0C0
C0C0
6180
7380
1E00
ENDCHAR
STARTCHAR uni1E52
ENCODING 7762
SWIDTH 722 0
DWIDTH 18 0
BBX 16 25 1 0
BITMAP
0060
00E0
0180
0200
0000
07E0
07E0
0000
07E0
1C38
381C
6006
6006
C003
C003
C003
C003
C003
C003
C003
6006
6006
381C
1C38
07E0
ENDCHAR
STARTCHAR uni1E53
ENCODING 7763
SWIDTH 500 0
DWIDTH 12 0
BBX 10 20 1 0
BITMAP
0300
0700
0C00
1000
0000
3F00
3F00
0000
1E00
7380
6180
C0C0
C0C0
C0C0
C0C0
C0C0
C0C0
6180
7380
1E00
ENDCHAR
STARTCHAR uni1E54
ENCODING 7764
SWIDTH 556 0
DWIDTH 15 0
BBX 13 22 1 0
BITMAP
00C0
01C0
0300
0400
0000
FFC0
3070
3030
3018
3018
3018
3030
3070
3FC0
3000
3000
3000
3000
3000
3000
3000
FC00
ENDCHAR
STARTCHAR uni1E55
ENCODING 7765
SWIDTH 500 0
DWIDTH 12 0
BBX 10 22 1 -5
BITMAP
0300
0700
0C00
1000
0000
EE00
7380
6180
60C0
60C0
60C0
60C0
60C0
60C0
6180
7380
6E00
6000
6000
6000
6000
F000
ENDCHAR
STARTCHAR uni1E56
ENCODING 7766
SWIDTH 556 0
DWIDTH 15 0
BBX 13 20 1 0
BITMAP
0300
0300
0000
FFC0
3070
3030
3018
3018
3018
3030
3070
3FC0
3000
3000
3000
3000
3000
3000
3000
FC00
ENDCHAR
STARTCHAR uni1E57
ENCODING 7767
SWIDTH 500 0
DWIDTH 12 0
BBX 10 20 1 -5
BITMAP
0C00
0C00
0000
EE00
7380
6180
60C0
60C0
60C0
60C0
60C0
60C0
6180
7380
6E00
6000
6000
6000
6000
F000
ENDCHAR
STARTCHAR uni1E58
ENCODING 7768
SWIDTH 667 0
DWIDTH 16 0
BBX 15 20 1 0
BITMAP
0300
0300
0000
FFC0
3070
3030
3038
3018
3038
3030
3070
3FC0
3380
31C0
30C0
3060
3070
3038
301C
FC1E
ENDCHAR
STARTCHAR uni1E59
ENCODING 7769
SWIDTH 333 0
DWIDTH 8 0
BBX 7 15 1 0
BITMAP
18
18
00
E6
6E
76
60
60
60
60
60
60
60
60
F0
ENDCHAR
STARTCHAR uni1E5A
ENCODING 7770
SWIDTH 667 0
DWIDTH 16 0
BBX 15 20 1 -3
BITMAP
FFC0
3070
3030
3038
3018
3038
3030
3070
3FC0
3380
31C0
30C0
3060
3070
3038
301C
FC1E
0000
0180
0180
ENDCHAR
STARTCHAR uni1E5B
ENCODING 7771
SWIDTH 333 0
DWIDTH 8 0
BBX 7 15 1 -3
BITMAP
E6
6E
76
60
60
60
60
60
60
60
60
F0
00
30
30
ENDCHAR
STARTCHAR uni1E5C
ENCODING 7772
SWIDTH 667 0
DWIDTH 16 0
BBX 15 23 1 -3
BITMAP
0FC0
0FC0
0000
FFC0
3070
3030
3038
3018
3038
3030
3070
3FC0
3380
31C0
30C0
3060
3070
3038
301C
FC1E
0000
0180
0180
ENDCHAR
STARTCHAR uni1E5D
ENCODING 7773
SWIDTH 333 0
DWIDTH 8 0
BBX 7 18 1 -3
BITMAP
7E
7E
00
E6
6E
76
60
60
60
60
60
60
60
60
F0
00
30
30
ENDCHAR
STARTCHAR uni1E5E
ENCODING 7774
SWIDTH 667 0
DWIDTH 16 0
BBX 15 20 1 -3
BITMAP
FFC0
3070
3030
3038
3018
3038
3030
3070
3FC0
3380
31C0
30C0
3060
3070
3038
301C
FC1E
0000
07E0
07E0
ENDCHAR
STARTCHAR uni1E5F
ENCODING 7775
SWIDTH 333 0
DWIDTH 8 0
BBX 7 15 1 -3
BITMAP
E6
6E
76
60
60
60
60
60
60
60
60
F0
00
FC
FC
ENDCHAR
STARTCHAR uni1E60
ENCODING 7776
SWIDTH 556 0
DWIDTH 13 0
BBX 11 20 1 0
BITMAP
0C00
0C00
0000
1E40
63C0
C0C0
C040
C040
E000
7800
1E00
0F80
03C0
00E0
0060
8060
8060
C0C0
F180
9E00
ENDCHAR
STARTCHAR uni1E61
ENCODING 7777
SWIDTH 389 0
DWIDTH 10 0
BBX 8 15 1 0
BITMAP
18
18
00
3E
66
C2
E0
70
7C
1E
07
03
83
C6
F8
ENDCHAR
STARTCHAR uni1E62
ENCODING 7778
SWIDTH 556 0
DWIDTH 13 0
BBX 11 20 1 -3
BITMAP
1E40
63C0
C0C0
C040
C040
E000
7800
1E00
0F80
03C0
00E0
0060
8060
8060
C0C0
F180
9E00
0000
0C00
0C00
ENDCHAR
STARTCHAR uni1E63
ENCODING 7779
SWIDTH 389 0
DWIDTH 10 0
BBX 8 15 1 -3
BITMAP
3E
66
C2
E0
70
7C
1E
07
03
83
C6
F8
00
18
18
ENDCHAR
STARTCHAR uni1E64
ENCODING 7780
SWIDTH 556 0
DWIDTH 13 0
BBX 11 25 1 0
BITMAP
0600
0600
0000
0300
0700
0C00
1000
0000
1E40
63C0
C0C0
C040
C040
E000
7800
1E00
0F80
03C0
00E0
0060
8060
8060
C0C0
F180
9E00
ENDCHAR
STARTCHAR uni1E65
ENCODING 7781
SWIDTH 389 0
DWIDTH 10 0
BBX 8 20 1 0
BITMAP
0C
0C
00
06
0E
18
20
00
3E
66
C2
E0
70
7C
1E
07
03
83
C6
F8
ENDCHAR
STARTCHAR uni1E66
ENCODING 7782
SWIDTH 556 0
DWIDTH 13 0
BBX 11 25 1 0
BITMAP
0C00
0C00
0000
4080
3300
1E00
0C00
0000
1E40
63C0
C0C0
C040
C040
E000
7800
1E00
0F80
03C0
00E0
0060
8060
8060
C0C0
F180
9E00
ENDCHAR
STARTCHAR uni1E67
ENCODING 7783
SWIDTH 389 0
DWIDTH 10 0
BBX 8 21 1 0
BITMAP
18
18
00
42
24
3C
18
00
00
3E
46
C2
E0
70
7C
1E
07
03
83
C6
F8
ENDCHAR
STARTCHAR uni1E68
ENCODING 7784
SWIDTH 556 0
DWIDTH 13 0
BBX 11 23 1 -3
BITMAP
0C00
0C00
0000
1E40
63C0
C0C0
C040
C040
E000
7800
1E00
0F80
03C0
00E0
0060
8060
8060
C0C0
F180
9E00
0000
0C00
0C00
ENDCHAR
STARTCHAR uni1E69
ENCODING 7785
SWIDTH 389 0
DWIDTH 10 0
BBX 8 18 1 -3
BITMAP
18
18
00
3E
66
C2
E0
70
7C
1E
07
03
83
C6
F8
00
18
18
ENDCHAR
STARTCHAR uni1E6A
ENCODING 7786
SWIDTH 611 0
DWIDTH 16 0
BBX 14 20 1 0
BITMAP
0300
0300
0000
FFFC
C30C
8304
8304
0300
0300
0300
0300
0300
0300
0300
0300
0300
0300
0300
0300
0FC0
ENDCHAR
STARTCHAR uni1E6B
ENCODING 7787
SWIDTH 278 0
DWIDTH 7 0
BBX 7 18 0 0
BITMAP
30
30
00
10
30
70
FE
30
30
30
30
30
30
30
30
30
32
1C
ENDCHAR
STARTCHAR uni1E6C
ENCODING 7788
SWIDTH 611 0
DWIDTH 16 0
BBX 14 20 1 -3
BITMAP
FFFC
C30C
8304
8304
0300
0300
0300
0300
0300
0300
0300
0300
0300
0300
0300
0300
0FC0
0000
0300
0300
ENDCHAR
STARTCHAR uni1E6D
ENCODING 7789
SWIDTH 278 0
DWIDTH 7 0
BBX 7 18 0 -3
BITMAP
10
30
70
FE
30
30
30
30
30
30
30
30
30
32
1C
00
18
18
ENDCHAR
STARTCHAR uni1E6E
ENCODING 7790
SWIDTH 611 0
DWIDTH 16 0
BBX 14 20 1 -3
BITMAP
FFFC
C30C
8304
8304
0300
0300
0300
0300
0300
0300
0300
0300
0300
0300
0300
0300
0FC0
0000
0FC0
0FC0
ENDCHAR
STARTCHAR uni1E6F
ENCODING 7791
SWIDTH 278 0
DWIDTH 7 0
BBX 7 18 0 -3
BITMAP
10
30
70
FE
30
30
30
30
30
30
30
30
30
32
1C
00
7E
7E
ENDCHAR
STARTCHAR uni1E70
ENCODING 7792
SWIDTH 611 0
DWIDTH 16 0
BBX 14 22 1 -5
BITMAP
FFFC
C30C
8304
8304
0300
0300
0300
0300
0300
0300
0300
0300
0300
0300
0300
0300
0FC0
0000
0300
0780
0480
0840
ENDCHAR
STARTCHAR uni1E71
ENCODING 7793
SWIDTH 278 0
DWIDTH 7 0
BBX 7 20 0 -5
BITMAP
10
30
70
FE
30
30
30
30
30
30
30
30
30
32
1C
00
18
3C
24
42
ENDCHAR
STARTCHAR uni1E72
ENCODING 7794
SWIDTH 722 0
DWIDTH 18 0
BBX 16 20 1 -3
BITMAP
FC1F
3004
3004
3004
3004
3004
3004
3004
3004
3004
3004
3004
3004
3008
1808
1C30
07E0
0000
0CC0
0CC0
ENDCHAR
STARTCHAR uni1E73
ENCODING 7795
SWIDTH 500 0
DWIDTH 13 0
BBX 11 15 1 -3
BITMAP
E1C0
60C0
60C0
60C0
60C0
60C0
60C0
60C0
60C0
71C0
3EC0
1CE0
0000
1980
1980
ENDCHAR
STARTCHAR uni1E74
ENCODING 7796
SWIDTH 722 0
DWIDTH 18 0
BBX 16 20 1 -3
BITMAP
FC1F
3004
3004
3004
3004
3004
3004
3004
3004
3004
3004
3004
3004
3008
1808
1C30
07E0
0000
0740
0B80
ENDCHAR
STARTCHAR uni1E75
ENCODING 7797
SWIDTH 500 0
DWIDTH 13 0
BBX 11 15 1 -3
BITMAP
E1C0
60C0
60C0
60C0
60C0
60C0
60C0
60C0
60C0
71C0
3EC0
1CE0
0000
0E80
1700
ENDCHAR
STARTCHAR uni1E76
ENCODING 7798
SWIDTH 722 0
DWIDTH 18 0
BBX 16 22 1 -5
BITMAP
FC1F
3004
3004
3004
3004
3004
3004
3004
3004
3004
3004
3004
3004
3008
1808
1C30
07E0
0000
0300
0780
0480
0840
ENDCHAR
STARTCHAR uni1E77
ENCODING 7799
SWIDTH 500 0
DWIDTH 13 0
BBX 11 17 1 -5
BITMAP
E1C0
60C0
60C0
60C0
60C0
60C0
60C0
60C0
60C0
71C0
3EC0
1CE0
0000
0600
0F00
0900
1080
ENDCHAR
STARTCHAR uni1E78
ENCODING 7800
SWIDTH 722 0
DWIDTH 18 0
BBX 16 25 1 0
BITMAP
0060
00E0
0180
0200
0000
03A0
05C0
0000
FC1F
3004
3004
3004
3004
3004
3004
3004
3004
3004
3004
3004
3004
3008
1808
1C30
07E0
ENDCHAR
STARTCHAR uni1E79
ENCODING 7801
SWIDTH 500 0
DWIDTH 13 0
BBX 11 20 1 0
BITMAP
0180
0380
0600
0800
0000
0E80
1700
0000
E1C0
60C0
60C0
60C0
60C0
60C0
60C0
60C0
60C0
71C0
3EC0
1CE0
ENDCHAR
STARTCHAR uni1E7A
ENCODING 7802
SWIDTH 722 0
DWIDTH 18 0
BBX 16 23 1 0
BITMAP
0CC0
0CC0
0000
0FC0
0FC0
0000
FC1F
3004
3004
3004
3004
3004
3004
3004
3004
3004
3004
3004
3004
3008
1808
1C30
07E0
ENDCHAR
STARTCHAR uni1E7B
ENCODING 7803
SWIDTH 500 0
DWIDTH 13 0
BBX 11 18 1 0
BITMAP
3300
3300
0000
3F00
3F00
0000
E1C0
60C0
60C0
60C0
60C0
60C0
60C0
60C0
60C0
71C0
3EC0
1CE0
ENDCHAR
STARTCHAR uni1E7C
ENCODING 7804
SWIDTH 722 0
DWIDTH 17 0
BBX 17 20 0 0
BITMAP
03A000
05C000
000000
FC1F80
300600
300400
180C00
180800
180800
0C1800
0C1000
063000
062000
062000
036000
034000
03C000
018000
018000
018000
ENDCHAR
STARTCHAR uni1E7D
ENCODING 7805
SWIDTH 500 0
DWIDTH 11 0
BBX 11 15 0 0
BITMAP
1D00
2E00
0000
F1E0
60C0
6080
3080
3080
3100
1900
1900
1A00
0E00
0E00
0400
ENDCHAR
STARTCHAR uni1E7E
ENCODING 7806
SWIDTH 722 0
DWIDTH 17 0
BBX 17 20 0 -3
BITMAP
FC1F80
300600
300400
180C00
180800
180800
0C1800
0C1000
063000
062000
062000
036000
034000
03C000
018000
018000
018000
000000
018000
018000
ENDCHAR
STARTCHAR uni1E7F
ENCODING 7807
SWIDTH 500 0
DWIDTH 11 0
BBX 11 15 0 -3
BITMAP
F1E0
60C0
6080
3080
3080
3100
1900
1900
1A00
0E00
0E00
0400
0000
0C00
0C00
ENDCHAR
STARTCHAR Wgrave
ENCODING 7808
SWIDTH 944 0
DWIDTH 23 0
BBX 23 22 0 0
BITMAP
00C000
00E000
003000
000800
000000
FC7E7E
301818
301810
181810
181830
182C20
0C2C20
0C2C60
064C60
064C40
064640
0346C0
034680
038780
018380
018300
018300
ENDCHAR
STARTCHAR wgrave
ENCODING 7809
SWIDTH 722 0
DWIDTH 17 0
BBX 17 17 0 0
BITMAP
060000
070000
018000
004000
000000
F1E780
60C300
60C200
30C200
30C200
316400
196400
1A6400
1A2800
0E3800
0E3800
041000
ENDCHAR
STARTCHAR Wacute
ENCODING 7810
SWIDTH 944 0
DWIDTH 23 0
BBX 23 22 0 0
BITMAP
000600
000E00
001800
002000
000000
FC7E7E
301818
301810
181810
181830
182C20
0C2C20
0C2C60
064C60
064C40
064640
0346C0
034680
038780
018380
018300
018300
ENDCHAR
STARTCHAR wacute
ENCODING 7811
SWIDTH 722 0
DWIDTH 17 0
BBX 17 17 0 0
BITMAP
003000
007000
00C000
010000
000000
F1E780
60C300
60C200
30C200
30C200
316400
196400
1A6400
1A2800
0E3800
0E3800
041000
ENDCHAR
STARTCHAR Wdieresis
ENCODING 7812
SWIDTH 944 0
DWIDTH 23 0
BBX 23 20 0 0
BITMAP
00CC00
00CC00
000000
FC7E7E
301818
301810
181810
181830
182C20
0C2C20
0C2C60
064C60
064C40
064640
0346C0
034680
038780
018380
018300
018300
ENDCHAR
STARTCHAR wdieresis
ENCODING 7813
SWIDTH 722 0
DWIDTH 17 0
BBX 17 15 0 0
BITMAP
066000
066000
000000
F1E780
60C300
60C200
30C200
30C200
316400
196400
1A6400
1A2800
0E3800
0E3800
041000
ENDCHAR
STARTCHAR uni1E86
ENCODING 7814
SWIDTH 944 0
DWIDTH 23 0
BBX 23 20 0 0
BITMAP
003000
003000
000000
FC7E7E
301818
301810
181810
181830
182C20
0C2C20
0C2C60
064C60
064C40
064640
0346C0
034680
038780
018380
018300
018300
ENDCHAR
STARTCHAR uni1E87
ENCODING 7815
SWIDTH 722 0
DWIDTH 17 0
BBX 17 15 0 0
BITMAP
018000
018000
000000
F1E780
60C300
60C200
30C200
30C200
316400
196400
1A6400
1A2800
0E3800
0E3800
041000
ENDCHAR
STARTCHAR uni1E88
ENCODING 7816
SWIDTH 944 0
DWIDTH 23 0
BBX 23 20 0 -3
BITMAP
FC7E7E
301818
301810
181810
181830
182C20
0C2C20
0C2C60
064C60
064C40
064640
0346C0
034680
038780
018380
018300
018300
000000
001800
001800
ENDCHAR
STARTCHAR uni1E89
ENCODING 7817
SWIDTH 722 0
DWIDTH 17 0
BBX 17 15 0 -3
BITMAP
F1E780
60C300
60C200
30C200
30C200
316400
196400
1A6400
1A2800
0E3800
0E3800
041000
000000
018000
018000
ENDCHAR
STARTCHAR uni1E8A
ENCODING 7818
SWIDTH 722 0
DWIDTH 18 0
BBX 18 20 0 0
BITMAP
00C000
00C000
000000
7E0F80
1C0600
0E0C00
060800
031000
03A000
01C000
00C000
00E000
017000
023800
061800
040C00
080E00
180700
300380
FC0FC0
ENDCHAR
STARTCHAR uni1E8B
ENCODING 7819
SWIDTH 500 0
DWIDTH 13 0
BBX 11 15 1 0
BITMAP
0C00
0C00
0000
F1E0
60C0
3180
3900
1A00
0C00
0E00
1B00
3380
2180
60C0
F1E0
ENDCHAR
STARTCHAR uni1E8C
ENCODING 7820
SWIDTH 722 0
DWIDTH 18 0
BBX 18 20 0 0
BITMAP
033000
033000
000000
7E0F80
1C0600
0E0C00
060800
031000
03A000
01C000
00C000
00E000
017000
023800
061800
040C00
080E00
180700
300380
FC0FC0
ENDCHAR
STARTCHAR uni1E8D
ENCODING 7821
SWIDTH 500 0
DWIDTH 13 0
BBX 11 15 1 0
BITMAP
3300
3300
0000
F1E0
60C0
3180
3900
1A00
0C00
0E00
1B00
3380
2180
60C0
F1E0
ENDCHAR
STARTCHAR uni1E8E
ENCODING 7822
SWIDTH 722 0
DWIDTH 16 0
BBX 16 20 0 0
BITMAP
0180
0180
0000
FC3F
300C
3808
1818
1C10
0C30
0620
0660
0340
03C0
0180
0180
0180
0180
0180
0180
07E0
ENDCHAR
STARTCHAR uni1E8F
ENCODING 7823
SWIDTH 500 0
DWIDTH 11 0
BBX 11 20 0 -5
BITMAP
0C00
0C00
0000
F1E0
60C0
6080
3080
3080
3100
1900
1900
1A00
0E00
0E00
0400
0C00
0800
1800
F000
E000
ENDCHAR
STARTCHAR uni1E90
ENCODING 7824
SWIDTH 611 0
DWIDTH 15 0
BBX 13 22 1 0
BITMAP
0300
0780
0480
0840
0000
FFF0
C070
80E0
80C0
01C0
0380
0300
0700
0600
0E00
1C00
1800
3800
3008
7008
E018
FFF8
ENDCHAR
STARTCHAR uni1E91
ENCODING 7825
SWIDTH 444 0
DWIDTH 10 0
BBX 8 17 1 0
BITMAP
18
3C
24
42
00
FF
C3
86
0E
1C
18
38
30
70
61
C3
FF
ENDCHAR
STARTCHAR uni1E92
ENCODING 7826
SWIDTH 611 0
DWIDTH 15 0
BBX 13 20 1 -3
BITMAP
FFF0
C070
80E0
80C0
01C0
0380
0300
0700
0600
0E00
1C00
1800
3800
3008
7008
E018
FFF8
0000
0600
0600
ENDCHAR
STARTCHAR uni1E93
ENCODING 7827
SWIDTH 444 0
DWIDTH 10 0
BBX 8 15 1 -3
BITMAP
FF
C3
86
0E
1C
18
38
30
70
61
C3
FF
00
18
18
ENDCHAR
STARTCHAR uni1E94
ENCODING 7828
SWIDTH 611 0
DWIDTH 15 0
BBX 13 20 1 -3
BITMAP
FFF0
C070
80E0
80C0
01C0
0380
0300
0700
0600
0E00
1C00
1800
3800
3008
7008
E018
FFF8
0000
1F80
1F80
ENDCHAR
STARTCHAR uni1E95
ENCODING 7829
SWIDTH 444 0
DWIDTH 10 0
BBX 8 15 1 -3
BITMAP
FF
C3
86
0E
1C
18
38
30
70
61
C3
FF
00
7E
7E
ENDCHAR
STARTCHAR uni1E96
ENCODING 7830
SWIDTH 500 0
DWIDTH 13 0
BBX 11 20 1 -3
BITMAP
E000
6000
6000
6000
6000
6700
6F80
71C0
60C0
60C0
60C0
60C0
60C0
60C0
60C0
60C0
F1E0
0000
1F80
1F80
ENDCHAR
STARTCHAR uni1E97
ENCODING 7831
SWIDTH 278 0
DWIDTH 7 0
BBX 7 18 0 0
BITMAP
CC
CC
00
10
30
70
FE
30
30
30
30
30
30
30
30
30
32
1C
ENDCHAR
STARTCHAR uni1E98
ENCODING 7832
SWIDTH 722 0
DWIDTH 17 0
BBX 17 17 0 0
BITMAP
01C000
022000
022000
01C000
000000
F1E780
60C300
60C200
30C200
30C200
316400
196400
1A6400
1A2800
0E3800
0E3800
041000
ENDCHAR
STARTCHAR uni1E99
ENCODING 7833
SWIDTH 500 0
DWIDTH 11 0
BBX 11 22 0 -5
BITMAP
0E00
1100
1100
0E00
0000
F1E0
60C0
6080
3080
3080
3100
1900
1900
1A00
0E00
0E00
0400
0C00
0800
1800
F000
E000
ENDCHAR
STARTCHAR uni1EA0
ENCODING 7840
SWIDTH 722 0
DWIDTH 17 0
BBX 17 20 0 -3
BITMAP
008000
01C000
01C000
016000
026000
023000
063000
043000
041800
0C1800
0FF800
080C00
180C00
100C00
100600
300600
FC1F80
000000
00C000
00C000
ENDCHAR
STARTCHAR uni1EA1
ENCODING 7841
SWIDTH 444 0
DWIDTH 11 0
BBX 9 15 1 -3
BITMAP
3E00
6700
6300
0300
0F00
3B00
6300
C300
C300
C700
FB00
7180
0000
1800
1800
ENDCHAR
STARTCHAR uni1EA4
ENCODING 7844
SWIDTH 722 0
DWIDTH 17 0
BBX 17 27 0 0
BITMAP
006000
00E000
018000
020000
000000
018000
03C000
066000
081000
000000
008000
01C000
01C000
016000
026000
023000
063000
043000
041800
0C1800
0FF800
080C00
180C00
100C00
100600
300600
FC1F80
ENDCHAR
STARTCHAR uni1EA5
ENCODING 7845
SWIDTH 444 0
DWIDTH 11 0
BBX 9 22 1 0
BITMAP
0600
0E00
1800
2000
0000
1800
3C00
2400
4200
0000
3E00
6700
6300
0300
0F00
3B00
6300
C300
C300
C700
FB00
7180
ENDCHAR
STARTCHAR uni1EA6
ENCODING 7846
SWIDTH 722 0
DWIDTH 17 0
BBX 17 27 0 0
BITMAP
060000
070000
018000
004000
000000
018000
03C000
066000
081000
000000
008000
01C000
01C000
016000
026000
023000
063000
043000
041800
0C1800
0FF800
080C00
180C00
100C00
100600
300600
FC1F80
ENDCHAR
STARTCHAR uni1EA7
ENCODING 7847
SWIDTH 444 0
DWIDTH 11 0
BBX 9 22 1 0
BITMAP
6000
7000
1800
0400
0000
1800
3C00
2400
4200
0000
3E00
6700
6300
0300
0F00
3B00
6300
C300
C300
C700
FB00
7180
ENDCHAR
STARTCHAR uni1EAA
ENCODING 7850
SWIDTH 722 0
DWIDTH 17 0
BBX 17 25 0 0
BITMAP
03A000
05C000
000000
018000
03C000
066000
081000
000000
008000
01C000
01C000
016000
026000
023000
063000
043000
041800
0C1800
0FF800
080C00
180C00
100C00
100600
300600
FC1F80
ENDCHAR
STARTCHAR uni1EAB
ENCODING 7851
SWIDTH 444 0
DWIDTH 11 0
BBX 9 20 1 0
BITMAP
3A00
5C00
0000
1800
3C00
2400
4200
0000
3E00
6700
6300
0300
0F00
3B00
6300
C300
C300
C700
FB00
7180
ENDCHAR
STARTCHAR uni1EAC
ENCODING 7852
SWIDTH 722 0
DWIDTH 17 0
BBX 17 25 0 -3
BITMAP
00C000
01E000
012000
021000
000000
008000
01C000
01C000
016000
026000
023000
063000
043000
041800
0C1800
0FF800
080C00
180C00
100C00
100600
300600
FC1F80
000000
00C000
00C000
ENDCHAR
STARTCHAR uni1EAD
ENCODING 7853
SWIDTH 444 0
DWIDTH 11 0
BBX 9 20 1 -3
BITMAP
0C00
1E00
1200
2100
0000
3E00
6700
6300
0300
0F00
3B00
6300
C300
C300
C700
FB00
7180
0000
1800
1800
ENDCHAR
STARTCHAR uni1EAE
ENCODING 7854
SWIDTH 722 0
DWIDTH 17 0
BBX 17 26 0 0
BITMAP
003000
007000
00C000
010000
000000
021000
033000
01E000
000000
008000
01C000
01C000
016000
026000
023000
063000
043000
041800
0C1800
0FF800
080C00
180C00
100C00
100600
300600
FC1F80
ENDCHAR
STARTCHAR uni1EAF
ENCODING 7855
SWIDTH 444 0
DWIDTH 11 0
BBX 9 21 1 0
BITMAP
0300
0700
0C00
1000
0000
2100
3300
1E00
0000
3E00
6700
6300
0300
0F00
3B00
6300
C300
C300
C700
FB00
7180
ENDCHAR
STARTCHAR uni1EB0
ENCODING 7856
SWIDTH 722 0
DWIDTH 17 0
BBX 17 26 0 0
BITMAP
030000
038000
00C000
002000
000000
021000
033000
01E000
000000
008000
01C000
01C000
016000
026000
023000
063000
043000
041800
0C1800
0FF800
080C00
180C00
100C00
100600
300600
FC1F80
ENDCHAR
STARTCHAR uni1EB1
ENCODING 7857
SWIDTH 444 0
DWIDTH 11 0
BBX 9 21 1 0
BITMAP
3000
3800
0C00
0200
0000
2100
3300
1E00
0000
3E00
6700
6300
0300
0F00
3B00
6300
C300
C300
C700
FB00
7180
ENDCHAR
STARTCHAR uni1EB4
ENCODING 7860
SWIDTH 722 0
DWIDTH 17 0
BBX 17 24 0 0
BITMAP
01D000
02E000
000000
021000
033000
01E000
000000
008000
01C000
01C000
016000
026000
023000
063000
043000
041800
0C1800
0FF800
080C00
180C00
100C00
100600
300600
FC1F80
ENDCHAR
STARTCHAR uni1EB5
ENCODING 7861
SWIDTH 444 0
DWIDTH 11 0
BBX 9 19 1 0
BITMAP
1D00
2E00
0000
2100
3300
1E00
0000
3E00
6700
6300
0300
0F00
3B00
6300
C300
C300
C700
FB00
7180
ENDCHAR
STARTCHAR uni1EB6
ENCODING 7862
SWIDTH 722 0
DWIDTH 17 0
BBX 17 24 0 -3
BITMAP
021000
033000
01E000
000000
008000
01C000
01C000
016000
026000
023000
063000
043000
041800
0C1800
0FF800
080C00
180C00
100C00
100600
300600
FC1F80
000000
00C000
00C000
ENDCHAR
STARTCHAR uni1EB7
ENCODING 7863
SWIDTH 444 0
DWIDTH 11 0
BBX 9 19 1 -3
BITMAP
2100
3300
1E00
0000
3E00
6700
6300
0300
0F00
3B00
6300
C300
C300
C700
FB00
7180
0000
1800
1800
ENDCHAR
STARTCHAR uni1EB8
ENCODING 7864
SWIDTH 611 0
DWIDTH 15 0
BBX 13 20 1 -3
BITMAP
FFF0
3030
3010
3010
3000
3000
3040
3040
3FC0
3040
3040
3000
3000
3008
3008
3018
FFF8
0000
0600
0600
ENDCHAR
STARTCHAR uni1EB9
ENCODING 7865
SWIDTH 444 0
DWIDTH 11 0
BBX 9 15 1 -3
BITMAP
1E00
6300
4180
C180
FF80
C000
C000
C000
E000
7080
7F00
1E00
0000
1800
1800
ENDCHAR
STARTCHAR uni1EBC
ENCODING 7868
SWIDTH 611 0
DWIDTH 15 0
BBX 13 20 1 0
BITMAP
0E80
1700
0000
FFF0
3030
3010
3010
3000
3000
3040
3040
3FC0
3040
3040
3000
3000
3008
3008
3018
FFF8
ENDCHAR
STARTCHAR uni1EBD
ENCODING 7869
SWIDTH 444 0
DWIDTH 11 0
BBX 9 15 1 0
BITMAP
1D00
2E00
0000
1E00
6300
4180
C180
FF80
C000
C000
C000
E000
7080
7F00
1E00
ENDCHAR
STARTCHAR uni1EBE
ENCODING 7870
SWIDTH 611 0
DWIDTH 15 0
BBX 13 27 1 0
BITMAP
00C0
01C0
0300
0400
0000
0300
0780
0CC0
1020
0000
FFF0
3030
3010
3010
3000
3000
3040
3040
3FC0
3040
3040
3000
3000
3008
3008
3018
FFF8
ENDCHAR
STARTCHAR uni1EBF
ENCODING 7871
SWIDTH 444 0
DWIDTH 11 0
BBX 9 22 1 0
BITMAP
0300
0700
0C00
1000
0000
0C00
1E00
1200
2100
0000
1E00
6300
4180
C180
FF80
C000
C000
C000
E000
7080
7F00
1E00
ENDCHAR
STARTCHAR uni1EC0
ENCODING 7872
SWIDTH 611 0
DWIDTH 15 0
BBX 13 27 1 0
BITMAP
1800
1C00
0600
0100
0000
0300
0780
0CC0
1020
0000
FFF0
3030
3010
3010
3000
3000
3040
3040
3FC0
3040
3040
3000
3000
3008
3008
3018
FFF8
ENDCHAR
STARTCHAR uni1EC1
ENCODING 7873
SWIDTH 444 0
DWIDTH 11 0
BBX 9 22 1 0
BITMAP
3000
3800
0C00
0200
0000
0C00
1E00
1200
2100
0000
1E00
6300
4180
C180
FF80
C000
C000
C000
E000
7080
7F00
1E00
ENDCHAR
STARTCHAR uni1EC4
ENCODING 7876
SWIDTH 611 0
DWIDTH 15 0
BBX 13 25 1 0
BITMAP
0740
0B80
0000
0300
0780
0CC0
1020
0000
FFF0
3030
3010
3010
3000
3000
3040
3040
3FC0
3040
3040
3000
3000
3008
3008
3018
FFF8
ENDCHAR
STARTCHAR uni1EC5
ENCODING 7877
SWIDTH 444 0
DWIDTH 11 0
BBX 9 20 1 0
BITMAP
1D00
2E00
0000
0C00
1E00
1200
2100
0000
1E00
6300
4180
C180
FF80
C000
C000
C000
E000
7080
7F00
1E00
ENDCHAR
STARTCHAR uni1EC6
ENCODING 7878
SWIDTH 611 0
DWIDTH 15 0
BBX 13 25 1 -3
BITMAP
0600
0F00
0900
1080
0000
FFF0
3030
3010
3010
3000
3000
3040
3040
3FC0
3040
3040
3000
3000
3008
3008
3018
FFF8
0000
0600
0600
ENDCHAR
STARTCHAR uni1EC7
ENCODING 7879
SWIDTH 444 0
DWIDTH 11 0
BBX 9 20 1 -3
BITMAP
0C00
1E00
1200
2100
0000
1E00
6300
4180
C180
FF80
C000
C000
C000
E000
7080
7F00
1E00
0000
1800
1800
ENDCHAR
STARTCHAR uni1ECA
ENCODING 7882
SWIDTH 333 0
DWIDTH 8 0
BBX 6 20 1 -3
BITMAP
FC
30
30
30
30
30
30
30
30
30
30
30
30
30
30
30
FC
00
30
30
ENDCHAR
STARTCHAR uni1ECB
ENCODING 7883
SWIDTH 278 0
DWIDTH 6 0
BBX 4 20 1 -3
BITMAP
60
60
00
00
00
E0
60
60
60
60
60
60
60
60
60
60
F0
00
60
60
ENDCHAR
STARTCHAR uni1ECC
ENCODING 7884
SWIDTH 722 0
DWIDTH 18 0
BBX 16 20 1 -3
BITMAP
07E0
1C38
381C
6006
6006
C003
C003
C003
C003
C003
C003
C003
6006
6006
381C
1C38
07E0
0000
0180
0180
ENDCHAR
STARTCHAR uni1ECD
ENCODING 7885
SWIDTH 500 0
DWIDTH 12 0
BBX 10 15 1 -3
BITMAP
1E00
7380
6180
C0C0
C0C0
C0C0
C0C0
C0C0
C0C0
6180
7380
1E00
0000
0C00
0C00
ENDCHAR
STARTCHAR uni1ED0
ENCODING 7888
SWIDTH 722 0
DWIDTH 18 0
BBX 16 27 1 0
BITMAP
0060
00E0
0180
0200
0000
0180
03C0
0660
0810
0000
07E0
1C38
381C
6006
6006
C003
C003
C003
C003
C003
C003
C003
6006
6006
381C
1C38
07E0
ENDCHAR
STARTCHAR uni1ED1
ENCODING 7889
SWIDTH 500 0
DWIDTH 12 0
BBX 10 22 1 0
BITMAP
0300
0700
0C00
1000
0000
0C00
1E00
1200
2100
0000
1E00
7380
6180
C0C0
C0C0
C0C0
C0C0
C0C0
C0C0
6180
7380
1E00
ENDCHAR
STARTCHAR uni1ED2
ENCODING 7890
SWIDTH 722 0
DWIDTH 18 0
BBX 16 27 1 0
BITMAP
0600
0700
0180
0040
0000
0180
03C0
0660
0810
0000
07E0
1C38
381C
6006
6006
C003
C003
C003
C003
C003
C003
C003
6006
6006
381C
1C38
07E0
ENDCHAR
STARTCHAR uni1ED3
ENCODING 7891
SWIDTH 500 0
DWIDTH 12 0
BBX 10 22 1 0
BITMAP
3000
3800
0C00
0200
0000
0C00
1E00
1200
2100
0000
1E00
7380
6180
C0C0
C0C0
C0C0
C0C0
C0C0
C0C0
6180
7380
1E00
ENDCHAR
STARTCHAR uni1ED6
ENCODING 7894
SWIDTH 722 0
DWIDTH 18 0
BBX 16 25 1 0
BITMAP
03A0
05C0
0000
0180
03C0
0660
0810
0000
07E0
1C38
381C
6006
6006
C003
C003
C003
C003
C003
C003
C003
6006
6006
381C
1C38
07E0
ENDCHAR
STARTCHAR uni1ED7
ENCODING 7895
SWIDTH 500 0
DWIDTH 12 0
BBX 10 20 1 0
BITMAP
1D00
2E00
0000
0C00
1E00
1200
2100
0000
1E00
7380
6180
C0C0
C0C0
C0C0
C0C0
C0C0
C0C0
6180
7380
1E00
ENDCHAR
STARTCHAR uni1ED8
ENCODING 7896
SWIDTH 722 0
DWIDTH 18 0
BBX 16 25 1 -3
BITMAP
0180
03C0
0240
0420
0000
07E0
1C38
381C
6006
6006
C003
C003
C003
C003
C003
C003
C003
6006
6006
381C
1C38
07E0
0000
0180
0180
ENDCHAR
STARTCHAR uni1ED9
ENCODING 7897
SWIDTH 500 0
DWIDTH 12 0
BBX 10 20 1 -3
BITMAP
0C00
1E00
1200
2100
0000
1E00
7380
6180
C0C0
C0C0
C0C0
C0C0
C0C0
C0C0
6180
7380
1E00
0000
0C00
0C00
ENDCHAR
STARTCHAR uni1EDA
ENCODING 7898
SWIDTH 722 0
DWIDTH 18 0
BBX 18 22 1 0
BITMAP
001800
003800
006000
008000
000000
07E180
1C39C0
381C40
6006C0
600780
C00300
C00300
C00300
C00300
C00300
C00300
C00300
600600
600600
381C00
1C3800
07E000
ENDCHAR
STARTCHAR uni1EDB
ENCODING 7899
SWIDTH 500 0
DWIDTH 12 0
BBX 12 17 1 0
BITMAP
00C0
01C0
0300
0400
0000
1E60
73F0
6190
C0F0
C0E0
C0C0
C0C0
C0C0
C0C0
6180
7380
1E00
ENDCHAR
STARTCHAR uni1EDC
ENCODING 7900
SWIDTH 722 0
DWIDTH 18 0
BBX 18 22 1 0
BITMAP
018000
01C000
006000
001000
000000
07E180
1C39C0
381C40
6006C0
600780
C00300
C00300
C00300
C00300
C00300
C00300
C00300
600600
600600
381C00
1C3800
07E000
ENDCHAR
STARTCHAR uni1EDD
ENCODING 7901
SWIDTH 500 0
DWIDTH 12 0
BBX 12 17 1 0
BITMAP
1800
1C00
0600
0100
0000
1E60
73F0
6190
C0F0
C0E0
C0C0
C0C0
C0C0
C0C0
6180
7380
1E00
ENDCHAR
STARTCHAR uni1EE0
ENCODING 7904
SWIDTH 722 0
DWIDTH 18 0
BBX 18 20 1 0
BITMAP
00E800
017000
000000
07E180
1C39C0
381C40
6006C0
600780
C00300
C00300
C00300
C00300
C00300
C00300
C00300
600600
600600
381C00
1C3800
07E000
ENDCHAR
STARTCHAR uni1EE1
ENCODING 7905
SWIDTH 500 0
DWIDTH 12 0
BBX 12 15 1 0
BITMAP
0740
0B80
0000
1E60
73F0
6190
C0F0
C0E0
C0C0
C0C0
C0C0
C0C0
6180
7380
1E00
ENDCHAR
STARTCHAR uni1EE2
ENCODING 7906
SWIDTH 722 0
DWIDTH 18 0
BBX 18 20 1 -3
BITMAP
07E180
1C39C0
381C40
6006C0
600780
C00300
C00300
C00300
C00300
C00300
C00300
C00300
600600
600600
381C00
1C3800
07E000
000000
018000
018000
ENDCHAR
STARTCHAR uni1EE3
ENCODING 7907
SWIDTH 500 0
DWIDTH 12 0
BBX 12 15 1 -3
BITMAP
1E60
73F0
6190
C0F0
C0E0
C0C0
C0C0
C0C0
C0C0
6180
7380
1E00
0000
0C00
0C00
ENDCHAR
STARTCHAR uni1EE4
ENCODING 7908
SWIDTH 722 0
DWIDTH 18 0
BBX 16 20 1 -3
BITMAP
FC1F
3004
3004
3004
3004
3004
3004
3004
3004
3004
3004
3004
3004
3008
1808
1C30
07E0
0000
0300
0300
ENDCHAR
STARTCHAR uni1EE5
ENCODING 7909
SWIDTH 500 0
DWIDTH 13 0
BBX 11 15 1 -3
BITMAP
E1C0
60C0
60C0
60C0
60C0
60C0
60C0
60C0
60C0
71C0
3EC0
1CE0
0000
0600
0600
ENDCHAR
STARTCHAR uni1EE8
ENCODING 7912
SWIDTH 722 0
DWIDTH 18 0
BBX 18 22 1 0
BITMAP
001800
003800
006000
008000
000000
FC1F80
3005C0
300440
3004C0
300580
300400
300400
300400
300400
300400
300400
300400
300400
300800
180800
1C3000
07E000
ENDCHAR
STARTCHAR uni1EE9
ENCODING 7913
SWIDTH 500 0
DWIDTH 13 0
BBX 13 17 1 0
BITMAP
00C0
01C0
0300
0400
0000
E1F0
60F8
60C8
60D8
60F0
60C0
60C0
60C0
60C0
71C0
3EC0
1CE0
ENDCHAR
STARTCHAR uni1EEA
ENCODING 7914
SWIDTH 722 0
DWIDTH 18 0
BBX 18 22 1 0
BITMAP
030000
038000
00C000
002000
000000
FC1F80
3005C0
300440
3004C0
300580
300400
300400
300400
300400
300400
300400
300400
300400
300800
180800
1C3000
07E000
ENDCHAR
STARTCHAR uni1EEB
ENCODING 7915
SWIDTH 500 0
DWIDTH 13 0
BBX 13 17 1 0
BITMAP
0C00
0E00
0300
0080
0000
E1F0
60F8
60C8
60D8
60F0
60C0
60C0
60C0
60C0
71C0
3EC0
1CE0
ENDCHAR
STARTCHAR uni1EEE
ENCODING 7918
SWIDTH 722 0
DWIDTH 18 0
BBX 18 20 1 0
BITMAP
00E800
017000
000000
FC1F80
3005C0
300440
3004C0
300580
300400
300400
300400
300400
300400
300400
300400
300400
300800
180800
1C3000
07E000
ENDCHAR
STARTCHAR uni1EEF
ENCODING 7919
SWIDTH 500 0
DWIDTH 13 0
BBX 13 15 1 0
BITMAP
0740
0B80
0000
E1F0
60F8
60C8
60D8
60F0
60C0
60C0
60C0
60C0
71C0
3EC0
1CE0
ENDCHAR
STARTCHAR uni1EF0
ENCODING 7920
SWIDTH 722 0
DWIDTH 18 0
BBX 18 20 1 -3
BITMAP
FC1F80
3005C0
300440
3004C0
300580
300400
300400
300400
300400
300400
300400
300400
300400
300800
180800
1C3000
07E000
000000
018000
018000
ENDCHAR
STARTCHAR uni1EF1
ENCODING 7921
SWIDTH 500 0
DWIDTH 13 0
BBX 13 15 1 -3
BITMAP
E1F0
60F8
60C8
60D8
60F0
60C0
60C0
60C0
60C0
71C0
3EC0
1CE0
0000
0600
0600
ENDCHAR
STARTCHAR Ygrave
ENCODING 7922
SWIDTH 722 0
DWIDTH 16 0
BBX 16 22 0 0
BITMAP
0C00
0E00
0300
0080
0000
FC3F
300C
3808
1818
1C10
0C30
0620
0660
0340
03C0
0180
0180
0180
0180
0180
0180
07E0
ENDCHAR
STARTCHAR ygrave
ENCODING 7923
SWIDTH 500 0
DWIDTH 11 0
BBX 11 22 0 -5
BITMAP
3000
3800
0C00
0200
0000
F1E0
60C0
6080
3080
3080
3100
1900
1900
1A00
0E00
0E00
0400
0C00
0800
1800
F000
E000
ENDCHAR
STARTCHAR uni1EF4
ENCODING 7924
SWIDTH 722 0
DWIDTH 16 0
BBX 16 20 0 -3
BITMAP
FC3F
300C
3808
1818
1C10
0C30
0620
0660
0340
03C0
0180
0180
0180
0180
0180
0180
07E0
0000
0180
0180
ENDCHAR
STARTCHAR uni1EF5
ENCODING 7925
SWIDTH 500 0
DWIDTH 11 0
BBX 11 20 0 -8
BITMAP
F1E0
60C0
6080
3080
3080
3100
1900
1900
1A00
0E00
0E00
0400
0C00
0800
1800
F000
E000
0000
1800
1800
ENDCHAR
STARTCHAR uni1EF8
ENCODING 7928
SWIDTH 722 0
DWIDTH 16 0
BBX 16 20 0 0
BITMAP
03A0
05C0
0000
FC3F
300C
3808
1818
1C10
0C30
0620
0660
0340
03C0
0180
0180
0180
0180
0180
0180
07E0
ENDCHAR
STARTCHAR uni1EF9
ENCODING 7929
SWIDTH 500 0
DWIDTH 11 0
BBX 11 20 0 -5
BITMAP
1D00
2E00
0000
F1E0
60C0
6080
3080
3080
3100
1900
1900
1A00
0E00
0E00
0400
0C00
0800
1800
F000
E000
ENDCHAR
STARTCHAR uni2000
ENCODING 8192
SWIDTH 500 0
DWIDTH 13 0
BBX 1 1 0 0
BITMAP
00
ENDCHAR
STARTCHAR uni2001
ENCODING 8193
SWIDTH 1000 0
DWIDTH 25 0
BBX 1 1 0 0
BITMAP
00
ENDCHAR
STARTCHAR uni2002
ENCODING 8194
SWIDTH 500 0
DWIDTH 13 0
BBX 1 1 0 0
BITMAP
00
ENDCHAR
STARTCHAR uni2003
ENCODING 8195
SWIDTH 1000 0
DWIDTH 25 0
BBX 1 1 0 0
BITMAP
00
ENDCHAR
STARTCHAR uni2004
ENCODING 8196
SWIDTH 333 0
DWIDTH 8 0
BBX 1 1 0 0
BITMAP
00
ENDCHAR
STARTCHAR uni2005
ENCODING 8197
SWIDTH 250 0
DWIDTH 6 0
BBX 1 1 0 0
BITMAP
00
ENDCHAR
STARTCHAR uni2006
ENCODING 8198
SWIDTH 167 0
DWIDTH 4 0
BBX 1 1 0 0
BITMAP
00
ENDCHAR
STARTCHAR uni2007
ENCODING 8199
SWIDTH 500 0
DWIDTH 12 0
BBX 1 1 0 0
BITMAP
00
ENDCHAR
STARTCHAR uni2008
ENCODING 8200
SWIDTH 250 0
DWIDTH 6 0
BBX 1 1 0 0
BITMAP
00
ENDCHAR
STARTCHAR uni2009
ENCODING 8201
SWIDTH 200 0
DWIDTH 5 0
BBX 1 1 0 0
BITMAP
00
ENDCHAR
STARTCHAR uni200A
ENCODING 8202
SWIDTH 100 0
DWIDTH 3 0
BBX 1 1 0 0
BITMAP
00
ENDCHAR
STARTCHAR uni200B
ENCODING 8203
SWIDTH 0 0
DWIDTH 0 0
BBX 1 1 0 0
BITMAP
00
ENDCHAR
STARTCHAR uni2010
ENCODING 8208
SWIDTH 333 0
DWIDTH 9 0
BBX 7 2 1 5
BITMAP
FE
FE
ENDCHAR
STARTCHAR uni2011
ENCODING 8209
SWIDTH 333 0
DWIDTH 9 0
BBX 7 2 1 5
BITMAP
FE
FE
ENDCHAR
STARTCHAR figuredash
ENCODING 8210
SWIDTH 500 0
DWIDTH 12 0
BBX 12 1 0 6
BITMAP
FFF0
ENDCHAR
STARTCHAR endash
ENCODING 8211
SWIDTH 500 0
DWIDTH 12 0
BBX 12 1 0 6
BITMAP
FFF0
ENDCHAR
STARTCHAR emdash
ENCODING 8212
SWIDTH 1000 0
DWIDTH 25 0
BBX 25 1 0 6
BITMAP
FFFFFF80
ENDCHAR
STARTCHAR afii00208
ENCODING 8213
SWIDTH 1000 0
DWIDTH 25 0
BBX 25 1 0 6
BITMAP
FFFFFF80
ENDCHAR
STARTCHAR quoteleft
ENCODING 8216
SWIDTH 333 0
DWIDTH 7 0
BBX 3 5 2 12
BITMAP
60
C0
80
E0
60
ENDCHAR
STARTCHAR quoteright
ENCODING 8217
SWIDTH 333 0
DWIDTH 8 0
BBX 3 5 3 12
BITMAP
C0
E0
20
60
C0
ENDCHAR
STARTCHAR quotesinglbase
ENCODING 8218
SWIDTH 333 0
DWIDTH 7 0
BBX 3 5 2 -3
BITMAP
C0
E0
20
60
C0
ENDCHAR
STARTCHAR quotereversed
ENCODING 8219
SWIDTH 333 0
DWIDTH 8 0
BBX 3 5 3 12
BITMAP
60
E0
80
C0
60
ENDCHAR
STARTCHAR quotedblleft
ENCODING 8220
SWIDTH 444 0
DWIDTH 11 0
BBX 7 5 2 12
BITMAP
66
CC
88
EE
66
ENDCHAR
STARTCHAR quotedblright
ENCODING 8221
SWIDTH 444 0
DWIDTH 11 0
BBX 7 5 2 12
BITMAP
CC
EE
22
66
CC
ENDCHAR
STARTCHAR quotedblbase
ENCODING 8222
SWIDTH 444 0
DWIDTH 11 0
BBX 7 5 2 -3
BITMAP
CC
EE
22
66
CC
ENDCHAR
STARTCHAR uni201F
ENCODING 8223
SWIDTH 444 0
DWIDTH 11 0
BBX 7 5 2 12
BITMAP
66
EE
88
CC
66
ENDCHAR
STARTCHAR dagger
ENCODING 8224
SWIDTH 500 0
DWIDTH 12 0
BBX 8 20 2 -2
BITMAP
18
18
18
18
18
FF
FF
18
18
18
18
18
18
18
18
18
18
18
18
18
ENDCHAR
STARTCHAR daggerdbl
ENCODING 8225
SWIDTH 500 0
DWIDTH 12 0
BBX 8 20 2 -2
BITMAP
18
18
18
18
18
FF
FF
18
18
18
18
18
18
FF
FF
18
18
18
18
18
ENDCHAR
STARTCHAR bullet
ENCODING 8226
SWIDTH 350 0
DWIDTH 7 0
BBX 5 6 1 5
BITMAP
70
F8
F8
F8
F8
70
ENDCHAR
STARTCHAR ellipsis
ENCODING 8230
SWIDTH 1000 0
DWIDTH 25 0
BBX 18 2 3 0
BITMAP
C0C0C0
C0C0C0
ENDCHAR
STARTCHAR perthousand
ENCODING 8240
SWIDTH 1000 0
DWIDTH 25 0
BBX 23 16 1 0
BITMAP
1E0C00
33FC00
621800
C21000
C43000
C86000
704000
00C000
018000
011C1C
033232
066262
04C2C2
0CC4C4
18C8C8
107070
ENDCHAR
STARTCHAR minute
ENCODING 8242
SWIDTH 247 0
DWIDTH 6 0
BBX 5 6 1 12
BITMAP
18
38
70
60
C0
80
ENDCHAR
STARTCHAR second
ENCODING 8243
SWIDTH 411 0
DWIDTH 10 0
BBX 9 6 1 12
BITMAP
1980
3B80
7700
6600
CC00
8800
ENDCHAR
STARTCHAR guilsinglleft
ENCODING 8249
SWIDTH 333 0
DWIDTH 8 0
BBX 5 10 1 1
BITMAP
08
18
30
60
C0
C0
60
30
18
08
ENDCHAR
STARTCHAR guilsinglright
ENCODING 8250
SWIDTH 333 0
DWIDTH 8 0
BBX 5 10 2 1
BITMAP
80
C0
60
30
18
18
30
60
C0
80
ENDCHAR
STARTCHAR fraction
ENCODING 8260
SWIDTH 167 0
DWIDTH 9 0
BBX 11 17 -1 0
BITMAP
0060
0060
00C0
0180
0180
0300
0300
0600
0C00
0C00
1800
1800
3000
6000
6000
C000
C000
ENDCHAR
STARTCHAR oneinferior
ENCODING 8321
SWIDTH 300 0
DWIDTH 7 0
BBX 5 10 1 -6
BITMAP
20
60
A0
20
20
20
20
20
20
F8
ENDCHAR
STARTCHAR twoinferior
ENCODING 8322
SWIDTH 300 0
DWIDTH 7 0
BBX 6 10 0 -6
BITMAP
38
4C
8C
0C
08
10
30
20
44
FC
ENDCHAR
STARTCHAR threeinferior
ENCODING 8323
SWIDTH 300 0
DWIDTH 7 0
BBX 6 10 0 -6
BITMAP
38
4C
8C
08
30
08
0C
8C
88
70
ENDCHAR
STARTCHAR uni20A5
ENCODING 8357
SWIDTH 778 0
DWIDTH 20 0
BBX 18 20 1 -4
BITMAP
001800
001800
001800
003000
E73E00
6FBF00
71E380
60E180
60C180
60C180
60C180
60C180
61C180
61C180
61C180
F3E3C0
030000
060000
060000
060000
ENDCHAR
STARTCHAR uni20A6
ENCODING 8358
SWIDTH 722 0
DWIDTH 18 0
BBX 16 17 1 0
BITMAP
F01F
3004
3804
3804
2C04
3FFC
3FFC
2304
2184
3FFC
3FFC
2064
2064
2034
201C
201C
F80C
ENDCHAR
STARTCHAR uni20A9
ENCODING 8361
SWIDTH 944 0
DWIDTH 23 0
BBX 23 17 0 0
BITMAP
FC7E7E
301818
301810
181810
181830
1BFFE0
0FFFE0
0C2C60
064C60
07FFC0
07FFC0
0346C0
034680
038780
018380
018300
018300
ENDCHAR
STARTCHAR Euro
ENCODING 8364
SWIDTH 667 0
DWIDTH 16 0
BBX 17 17 -2 0
BITMAP
00FC80
038780
070180
0C0080
0C0080
FFF000
FFF000
180000
180000
FFF000
FFF000
180000
0C0000
0C0080
070100
03C700
00FC00
ENDCHAR
STARTCHAR uni20AD
ENCODING 8365
SWIDTH 722 0
DWIDTH 17 0
BBX 16 17 1 0
BITMAP
FC7E
3018
3030
3060
30C0
3180
3300
FFFF
FFFF
3380
31C0
30E0
3070
3038
301C
300E
FC1F
ENDCHAR
STARTCHAR uni2103
ENCODING 8451
SWIDTH 1047 0
DWIDTH 25 0
BBX 23 17 1 0
BITMAP
3803F2
440E1E
821C06
823002
823002
446000
386000
006000
006000
006000
006000
006000
003000
003002
001C04
000F1C
0003F0
ENDCHAR
STARTCHAR uni2109
ENCODING 8457
SWIDTH 936 0
DWIDTH 23 0
BBX 21 17 1 0
BITMAP
387FF8
441818
821808
821808
821800
441800
381810
001810
001FF0
001810
001810
001800
001800
001800
001800
001800
007E00
ENDCHAR
STARTCHAR Ifraktur
ENCODING 8465
SWIDTH 686 0
DWIDTH 16 0
BBX 14 19 1 -1
BITMAP
0F80
3FFC
70F8
6030
4060
40C0
60C0
30E0
1C70
0038
0038
001C
001C
000C
300C
780C
DE18
0FF0
03C0
ENDCHAR
STARTCHAR weierstrass
ENCODING 8472
SWIDTH 987 0
DWIDTH 19 0
BBX 15 20 2 -5
BITMAP
0600
0C00
183C
30FE
3186
6306
6606
6C06
680C
799C
7398
7230
7A70
5BE0
DD80
8C00
8C00
8C00
D800
7000
ENDCHAR
STARTCHAR Rfraktur
ENCODING 8476
SWIDTH 795 0
DWIDTH 19 0
BBX 17 18 1 0
BITMAP
1E1800
3F3C00
63CE00
C18700
818300
C18600
E18C00
71B800
39B000
199800
119800
019800
019C00
018C00
018C00
198680
3F0780
4E0700
ENDCHAR
STARTCHAR trademark
ENCODING 8482
SWIDTH 980 0
DWIDTH 23 0
BBX 21 10 1 7
BITMAP
FFB018
889830
889830
081C70
081450
0816D0
081290
081390
081110
3E3938
ENDCHAR
STARTCHAR Omega
ENCODING 8486
SWIDTH 768 0
DWIDTH 18 0
BBX 16 17 1 0
BITMAP
07E0
1C38
300C
6006
6006
C003
C003
C003
C003
E007
6006
300C
1818
8C31
8421
FC3F
FC3F
ENDCHAR
STARTCHAR uni2127
ENCODING 8487
SWIDTH 768 0
DWIDTH 18 0
BBX 16 17 1 0
BITMAP
FC3F
FC3F
8421
8C31
1818
300C
6006
E007
C003
C003
C003
C003
6006
6006
300C
1C38
07E0
ENDCHAR
STARTCHAR uni212A
ENCODING 8490
SWIDTH 722 0
DWIDTH 17 0
BBX 16 17 1 0
BITMAP
FC7E
3018
3030
3060
30C0
3180
3300
3E00
3F00
3380
31C0
30E0
3070
3038
301C
300E
FC1F
ENDCHAR
STARTCHAR uni212B
ENCODING 8491
SWIDTH 722 0
DWIDTH 17 0
BBX 17 21 0 0
BITMAP
01C000
022000
022000
01C000
008000
01C000
01C000
016000
026000
023000
063000
043000
041800
0C1800
0FF800
080C00
180C00
100C00
100600
300600
FC1F80
ENDCHAR
STARTCHAR uni2132
ENCODING 8498
SWIDTH 556 0
DWIDTH 14 0
BBX 12 17 1 0
BITMAP
03F0
00C0
00C0
00C0
00C0
00C0
40C0
40C0
7FC0
40C0
40C0
00C0
00C0
80C0
80C0
C0C0
FFF0
ENDCHAR
STARTCHAR aleph
ENCODING 8501
SWIDTH 823 0
DWIDTH 14 0
BBX 12 16 1 0
BITMAP
8180
C300
E3F0
71F0
3860
1CC0
3C80
6E80
C780
C380
E380
F1C0
70E0
3070
7030
E010
ENDCHAR
STARTCHAR arrowleft
ENCODING 8592
SWIDTH 987 0
DWIDTH 25 0
BBX 25 12 0 1
BITMAP
06000000
0C000000
18000000
30000000
60000000
FFFFFF80
FFFFFF80
60000000
30000000
18000000
0C000000
06000000
ENDCHAR
STARTCHAR arrowup
ENCODING 8593
SWIDTH 603 0
DWIDTH 14 0
BBX 12 31 1 -8
BITMAP
0600
0F00
1F80
36C0
6660
C630
0600
0600
0600
0600
0600
0600
0600
0600
0600
0600
0600
0600
0600
0600
0600
0600
0600
0600
0600
0600
0600
0600
0600
0600
0600
ENDCHAR
STARTCHAR arrowright
ENCODING 8594
SWIDTH 987 0
DWIDTH 25 0
BBX 25 12 0 1
BITMAP
00003000
00001800
00000C00
00000600
00000300
FFFFFF80
FFFFFF80
00000300
00000600
00000C00
00001800
00003000
ENDCHAR
STARTCHAR arrowdown
ENCODING 8595
SWIDTH 603 0
DWIDTH 14 0
BBX 12 29 1 -5
BITMAP
0600
0600
0600
0600
0600
0600
0600
0600
0600
0600
0600
0600
0600
0600
0600
0600
0600
0600
0600
0600
0600
0600
0600
C630
6660
36C0
1F80
0F00
0600
ENDCHAR
STARTCHAR arrowboth
ENCODING 8596
SWIDTH 1042 0
DWIDTH 26 0
BBX 24 12 1 1
BITMAP
060060
0C0030
180018
30000C
600006
FFFFFF
FFFFFF
600006
30000C
180018
0C0030
060060
ENDCHAR
STARTCHAR uni219A
ENCODING 8602
SWIDTH 987 0
DWIDTH 25 0
BBX 25 20 0 -3
BITMAP
00018000
00018000
00018000
00030000
06030000
0C020000
18060000
30060000
60040000
FFFFFF80
FFFFFF80
60080000
30180000
18180000
0C100000
06300000
00300000
00600000
00600000
00600000
ENDCHAR
STARTCHAR uni219B
ENCODING 8603
SWIDTH 987 0
DWIDTH 25 0
BBX 25 20 0 -3
BITMAP
00018000
00018000
00018000
00030000
00033000
00021800
00060C00
00060600
00040300
FFFFFF80
FFFFFF80
00080300
00180600
00180C00
00101800
00303000
00300000
00600000
00600000
00600000
ENDCHAR
STARTCHAR uni21AE
ENCODING 8622
SWIDTH 1042 0
DWIDTH 26 0
BBX 24 20 1 -3
BITMAP
000300
000300
000300
000600
060660
0C0430
180C18
300C0C
600806
FFFFFF
FFFFFF
601006
30300C
183018
0C2030
066060
006000
00C000
00C000
00C000
ENDCHAR
STARTCHAR carriagereturn
ENCODING 8629
SWIDTH 658 0
DWIDTH 16 0
BBX 14 16 1 0
BITMAP
000C
000C
000C
000C
000C
000C
000C
000C
000C
000C
200C
600C
FFFC
FFFC
6000
2000
ENDCHAR
STARTCHAR uni21CD
ENCODING 8653
SWIDTH 987 0
DWIDTH 25 0
BBX 23 20 1 -4
BITMAP
000300
000300
000300
000600
060600
0C0400
180C00
3FFFFE
7FFFFE
E01800
E01800
7FFFFE
3FFFFE
183000
0C2000
066000
006000
00C000
00C000
00C000
ENDCHAR
STARTCHAR uni21CE
ENCODING 8654
SWIDTH 1042 0
DWIDTH 25 0
BBX 23 20 1 -4
BITMAP
000300
000300
000300
000600
0606C0
0C0460
180C30
3FFFF8
7FFFFC
E0180E
E0180E
7FFFFC
3FFFF8
183030
0C2060
0660C0
006000
00C000
00C000
00C000
ENDCHAR
STARTCHAR uni21CF
ENCODING 8655
SWIDTH 987 0
DWIDTH 25 0
BBX 23 20 1 -4
BITMAP
000300
000300
000300
000600
0006C0
000460
000C30
FFFFF8
FFFFFC
00180E
00180E
FFFFFC
FFFFF8
003030
002060
0060C0
006000
00C000
00C000
00C000
ENDCHAR
STARTCHAR arrowdblleft
ENCODING 8656
SWIDTH 987 0
DWIDTH 25 0
BBX 23 12 1 0
BITMAP
060000
0C0000
180000
3FFFFE
7FFFFE
E00000
E00000
7FFFFE
3FFFFE
180000
0C0000
060000
ENDCHAR
STARTCHAR arrowdblup
ENCODING 8657
SWIDTH 603 0
DWIDTH 14 0
BBX 12 23 1 0
BITMAP
0600
0F00
1F80
39C0
79E0
D9B0
1980
1980
1980
1980
1980
1980
1980
1980
1980
1980
1980
1980
1980
1980
1980
1980
1980
ENDCHAR
STARTCHAR arrowdblright
ENCODING 8658
SWIDTH 987 0
DWIDTH 25 0
BBX 23 12 1 0
BITMAP
0000C0
000060
000030
FFFFF8
FFFFFC
00000E
00000E
FFFFFC
FFFFF8
000030
000060
0000C0
ENDCHAR
STARTCHAR arrowdbldown
ENCODING 8659
SWIDTH 603 0
DWIDTH 14 0
BBX 12 23 1 0
BITMAP
1980
1980
1980
1980
1980
1980
1980
1980
1980
1980
1980
1980
1980
1980
1980
1980
1980
D9B0
79E0
39C0
1F80
0F00
0600
ENDCHAR
STARTCHAR arrowdblboth
ENCODING 8660
SWIDTH 1042 0
DWIDTH 25 0
BBX 23 12 1 0
BITMAP
0600C0
0C0060
180030
3FFFF8
7FFFFC
E0000E
E0000E
7FFFFC
3FFFF8
180030
0C0060
0600C0
ENDCHAR
STARTCHAR universal
ENCODING 8704
SWIDTH 713 0
DWIDTH 17 0
BBX 15 17 1 0
BITMAP
C006
C006
600C
600C
3FF8
3FF8
3018
1830
1830
0C60
0C60
0C60
06C0
06C0
0380
0380
0380
ENDCHAR
STARTCHAR partialdiff
ENCODING 8706
SWIDTH 494 0
DWIDTH 12 0
BBX 10 19 1 0
BITMAP
3E00
6300
C180
0180
00C0
00C0
00C0
00C0
1EC0
73C0
61C0
C0C0
C0C0
C180
C180
C180
C300
6700
3C00
ENDCHAR
STARTCHAR existential
ENCODING 8707
SWIDTH 549 0
DWIDTH 13 0
BBX 11 17 1 0
BITMAP
FFE0
FFE0
0060
0060
0060
0060
0060
FFE0
FFE0
0060
0060
0060
0060
0060
0060
FFE0
FFE0
ENDCHAR
STARTCHAR uni2204
ENCODING 8708
SWIDTH 549 0
DWIDTH 13 0
BBX 11 20 1 -1
BITMAP
00C0
00C0
FFE0
FFE0
01E0
0160
0360
0360
0260
FFE0
FFE0
0460
0C60
0C60
0860
1860
1860
FFE0
FFE0
3000
ENDCHAR
STARTCHAR emptyset
ENCODING 8709
SWIDTH 823 0
DWIDTH 20 0
BBX 18 17 1 0
BITMAP
03F0C0
0FFD80
1C0F00
300700
300F00
601980
603180
606180
60C180
618180
630180
660180
3C0300
380300
3C0E00
6FFC00
C3F000
ENDCHAR
STARTCHAR Delta
ENCODING 8710
SWIDTH 612 0
DWIDTH 15 0
BBX 16 17 0 0
BITMAP
0300
0300
0780
0480
04C0
0CC0
0860
0860
1830
1030
3018
2018
200C
600C
4006
C006
FFFF
ENDCHAR
STARTCHAR gradient
ENCODING 8711
SWIDTH 713 0
DWIDTH 18 0
BBX 16 18 1 0
BITMAP
FFFF
C003
C002
6006
6004
300C
3008
3018
1810
1830
0C20
0C20
0660
0640
03C0
03C0
0180
0180
ENDCHAR
STARTCHAR element
ENCODING 8712
SWIDTH 713 0
DWIDTH 16 0
BBX 12 13 2 0
BITMAP
1FF0
7FF0
6000
C000
C000
FFF0
FFF0
C000
C000
C000
6000
7FF0
1FF0
ENDCHAR
STARTCHAR notelement
ENCODING 8713
SWIDTH 713 0
DWIDTH 16 0
BBX 12 17 2 -2
BITMAP
00C0
00C0
1FF0
7FF0
6180
C180
C300
FFF0
FFF0
C600
C600
CC00
6C00
7FF0
1FF0
1800
1800
ENDCHAR
STARTCHAR uni220A
ENCODING 8714
SWIDTH 439 0
DWIDTH 11 0
BBX 8 13 2 0
BITMAP
0F
3C
70
E0
C0
C0
FE
C0
C0
E0
70
3C
0F
ENDCHAR
STARTCHAR suchthat
ENCODING 8715
SWIDTH 713 0
DWIDTH 16 0
BBX 12 13 2 0
BITMAP
FF80
FFE0
0060
0030
0030
FFF0
FFF0
0030
0030
0030
0060
FFE0
FF80
ENDCHAR
STARTCHAR uni220C
ENCODING 8716
SWIDTH 713 0
DWIDTH 16 0
BBX 12 20 2 -3
BITMAP
00C0
00C0
00C0
0180
FF80
FFE0
0360
0330
0230
FFF0
FFF0
0430
0C30
0C30
0860
FFE0
FF80
3000
3000
3000
ENDCHAR
STARTCHAR uni220D
ENCODING 8717
SWIDTH 439 0
DWIDTH 11 0
BBX 8 13 2 0
BITMAP
F0
3C
0E
07
03
03
7F
03
03
07
0E
3C
F0
ENDCHAR
STARTCHAR product
ENCODING 8719
SWIDTH 823 0
DWIDTH 19 0
BBX 17 21 1 -3
BITMAP
FFFF80
300600
300600
300600
300600
300600
300600
300600
300600
300600
300600
300600
300600
300600
300600
300600
300600
300600
300600
300600
FC1F80
ENDCHAR
STARTCHAR summation
ENCODING 8721
SWIDTH 713 0
DWIDTH 18 0
BBX 14 20 2 -2
BITMAP
FFF8
E018
7008
3800
1C00
0E00
0700
0380
01C0
00C0
0180
0300
0600
0C00
1800
3004
6004
C00C
FFFC
FFFC
ENDCHAR
STARTCHAR minus
ENCODING 8722
SWIDTH 564 0
DWIDTH 14 0
BBX 12 2 1 6
BITMAP
FFF0
FFF0
ENDCHAR
STARTCHAR fraction
ENCODING 8725
SWIDTH 167 0
DWIDTH 9 0
BBX 11 17 -1 0
BITMAP
0060
0060
00C0
0180
0180
0300
0300
0600
0C00
0C00
1800
1800
3000
6000
6000
C000
C000
ENDCHAR
STARTCHAR asteriskmath
ENCODING 8727
SWIDTH 500 0
DWIDTH 12 0
BBX 8 10 2 7
BITMAP
18
18
C3
E7
18
18
E7
C3
18
18
ENDCHAR
STARTCHAR periodcentered
ENCODING 8729
SWIDTH 250 0
DWIDTH 6 0
BBX 2 2 2 6
BITMAP
C0
C0
ENDCHAR
STARTCHAR radical
ENCODING 8730
SWIDTH 549 0
DWIDTH 14 0
BBX 14 23 0 0
BITMAP
0004
0004
0004
000C
000C
0008
0008
0008
0018
3018
7010
D810
1810
0C30
0C30
0620
0620
0320
0360
01C0
01C0
00C0
00C0
ENDCHAR
STARTCHAR proportional
ENCODING 8733
SWIDTH 713 0
DWIDTH 16 0
BBX 14 7 1 4
BITMAP
3838
7C7C
C6C0
C380
C7C0
7C7C
3838
ENDCHAR
STARTCHAR infinity
ENCODING 8734
SWIDTH 713 0
DWIDTH 17 0
BBX 15 7 1 4
BITMAP
3838
7E7C
C7C6
C386
C6C6
7C7C
3838
ENDCHAR
STARTCHAR angle
ENCODING 8736
SWIDTH 768 0
DWIDTH 19 0
BBX 17 16 1 0
BITMAP
000180
000300
000600
000C00
001800
003000
006000
00C000
018000
030000
060000
0C0000
180000
300000
7FFF80
FFFF80
ENDCHAR
STARTCHAR logicaland
ENCODING 8743
SWIDTH 603 0
DWIDTH 15 0
BBX 13 12 1 0
BITMAP
0700
0700
0D80
0D80
18C0
18C0
3060
3060
6030
6030
C018
C018
ENDCHAR
STARTCHAR logicalor
ENCODING 8744
SWIDTH 603 0
DWIDTH 15 0
BBX 13 12 1 0
BITMAP
C018
C018
6030
6030
3060
3060
18C0
18C0
0D80
0D80
0700
0700
ENDCHAR
STARTCHAR intersection
ENCODING 8745
SWIDTH 768 0
DWIDTH 18 0
BBX 16 13 1 0
BITMAP
07E0
1FF8
381C
6006
6006
C003
C003
C003
C003
C003
C003
C003
C003
ENDCHAR
STARTCHAR union
ENCODING 8746
SWIDTH 768 0
DWIDTH 18 0
BBX 16 13 1 0
BITMAP
C003
C003
C003
C003
C003
C003
C003
C003
6006
6006
381C
1FF8
07E0
ENDCHAR
STARTCHAR integral
ENCODING 8747
SWIDTH 274 0
DWIDTH 8 0
BBX 8 28 0 -5
BITMAP
07
0F
1B
18
18
18
18
18
18
18
18
18
18
18
18
18
18
18
18
18
18
18
18
18
18
D8
F0
E0
ENDCHAR
STARTCHAR therefore
ENCODING 8756
SWIDTH 863 0
DWIDTH 18 0
BBX 12 10 3 0
BITMAP
0600
0600
0600
0000
0000
0000
0000
C030
C030
C030
ENDCHAR
STARTCHAR uni2235
ENCODING 8757
SWIDTH 863 0
DWIDTH 18 0
BBX 12 10 3 0
BITMAP
C030
C030
C030
0000
0000
0000
0000
0600
0600
0600
ENDCHAR
STARTCHAR uni2236
ENCODING 8758
SWIDTH 278 0
DWIDTH 6 0
BBX 2 11 2 0
BITMAP
C0
C0
00
00
00
00
00
00
00
C0
C0
ENDCHAR
STARTCHAR similar
ENCODING 8764
SWIDTH 549 0
DWIDTH 13 0
BBX 11 4 1 5
BITMAP
3820
7C60
C7C0
8380
ENDCHAR
STARTCHAR uni2241
ENCODING 8769
SWIDTH 549 0
DWIDTH 13 0
BBX 11 20 1 -3
BITMAP
00C0
00C0
00C0
0180
0180
0100
0300
0300
3A20
7E60
C7C0
8780
0C00
0C00
0800
1800
1800
3000
3000
3000
ENDCHAR
STARTCHAR congruent
ENCODING 8773
SWIDTH 549 0
DWIDTH 13 0
BBX 11 12 1 1
BITMAP
3820
7C60
C7C0
8380
0000
0000
FFE0
FFE0
0000
0000
FFE0
FFE0
ENDCHAR
STARTCHAR uni2247
ENCODING 8775
SWIDTH 549 0
DWIDTH 13 0
BBX 11 20 1 -3
BITMAP
00C0
00C0
00C0
0180
39A0
7D60
C7C0
8380
0200
0600
FFE0
FFE0
0C00
0C00
FFE0
FFE0
1800
3000
3000
3000
ENDCHAR
STARTCHAR approxequal
ENCODING 8776
SWIDTH 549 0
DWIDTH 13 0
BBX 11 8 1 3
BITMAP
3820
7C60
C7C0
8380
3820
7C60
C7C0
8380
ENDCHAR
STARTCHAR uni2249
ENCODING 8777
SWIDTH 549 0
DWIDTH 13 0
BBX 11 20 1 -3
BITMAP
00C0
00C0
00C0
0180
0180
0100
3B20
7F60
C7C0
8780
3E20
7C60
CFC0
8F80
0800
1800
1800
3000
3000
3000
ENDCHAR
STARTCHAR uni2259
ENCODING 8793
SWIDTH 564 0
DWIDTH 14 0
BBX 12 11 1 4
BITMAP
0600
0F00
0900
1080
0000
FFF0
FFF0
0000
0000
FFF0
FFF0
ENDCHAR
STARTCHAR uni225A
ENCODING 8794
SWIDTH 564 0
DWIDTH 14 0
BBX 12 11 1 4
BITMAP
1080
0900
0F00
0600
0000
FFF0
FFF0
0000
0000
FFF0
FFF0
ENDCHAR
STARTCHAR notequal
ENCODING 8800
SWIDTH 549 0
DWIDTH 14 0
BBX 10 13 2 0
BITMAP
0180
0180
0300
0300
FFC0
FFC0
0C00
FFC0
FFC0
3000
3000
6000
6000
ENDCHAR
STARTCHAR equivalence
ENCODING 8801
SWIDTH 549 0
DWIDTH 13 0
BBX 11 8 1 3
BITMAP
FFE0
FFE0
0000
FFE0
FFE0
0000
FFE0
FFE0
ENDCHAR
STARTCHAR uni2262
ENCODING 8802
SWIDTH 549 0
DWIDTH 13 0
BBX 11 20 1 -3
BITMAP
00C0
00C0
00C0
0180
0180
0100
FFE0
FFE0
0200
FFE0
FFE0
0400
FFE0
FFE0
0800
1800
1800
3000
3000
3000
ENDCHAR
STARTCHAR lessequal
ENCODING 8804
SWIDTH 549 0
DWIDTH 14 0
BBX 12 15 0 0
BITMAP
0070
01E0
0780
1E00
7800
E000
E000
7800
1E00
03C0
00F0
0030
0000
FFF0
FFF0
ENDCHAR
STARTCHAR greaterequal
ENCODING 8805
SWIDTH 549 0
DWIDTH 14 0
BBX 12 15 0 0
BITMAP
E000
7800
1E00
0780
01E0
0070
0070
01E0
0780
3E00
F000
C000
0000
FFF0
FFF0
ENDCHAR
STARTCHAR uni226E
ENCODING 8814
SWIDTH 564 0
DWIDTH 13 0
BBX 11 20 1 -3
BITMAP
00C0
00C0
00C0
0180
0180
0160
03C0
0700
1E00
7600
C600
7400
1C00
0F00
09C0
1860
1800
3000
3000
3000
ENDCHAR
STARTCHAR uni226F
ENCODING 8815
SWIDTH 564 0
DWIDTH 13 0
BBX 11 20 1 -3
BITMAP
00C0
00C0
00C0
0180
0180
C100
7300
1F00
0700
07C0
0660
05C0
0F00
1C00
7800
D800
1800
3000
3000
3000
ENDCHAR
STARTCHAR uni2270
ENCODING 8816
SWIDTH 549 0
DWIDTH 14 0
BBX 12 20 0 -2
BITMAP
00C0
00C0
00C0
01F0
01E0
0780
1F00
7B00
E200
E600
7E00
1E00
0FC0
0CF0
0830
1800
FFF0
FFF0
3000
3000
ENDCHAR
STARTCHAR uni2271
ENCODING 8817
SWIDTH 549 0
DWIDTH 14 0
BBX 12 20 0 -2
BITMAP
00C0
00C0
00C0
E180
7980
1F00
0780
03E0
0270
0670
07E0
0780
3E00
FC00
C800
1800
FFF0
FFF0
3000
3000
ENDCHAR
STARTCHAR propersubset
ENCODING 8834
SWIDTH 713 0
DWIDTH 17 0
BBX 15 12 1 0
BITMAP
0FFE
3FFE
7000
6000
C000
C000
C000
C000
6000
7000
3FFE
0FFE
ENDCHAR
STARTCHAR propersuperset
ENCODING 8835
SWIDTH 713 0
DWIDTH 17 0
BBX 15 12 1 0
BITMAP
FFE0
FFF8
001C
000C
0006
0006
0006
0006
000C
001C
FFF8
FFE0
ENDCHAR
STARTCHAR notsubset
ENCODING 8836
SWIDTH 713 0
DWIDTH 17 0
BBX 15 16 1 -2
BITMAP
000C
000C
0FFE
3FFE
7030
6030
C060
C060
C0C0
C0C0
6180
7180
3FFE
0FFE
0600
0600
ENDCHAR
STARTCHAR uni2285
ENCODING 8837
SWIDTH 713 0
DWIDTH 17 0
BBX 15 20 1 -4
BITMAP
0030
0030
0030
0060
FFE0
FFF8
00DC
00CC
0086
0186
0186
0106
030C
031C
FFF8
FFE0
0600
0C00
0C00
0C00
ENDCHAR
STARTCHAR reflexsubset
ENCODING 8838
SWIDTH 713 0
DWIDTH 17 0
BBX 15 15 1 -3
BITMAP
0FFE
3FFE
7000
6000
C000
C000
C000
C000
6000
7000
3FFE
0FFE
0000
FFFE
FFFE
ENDCHAR
STARTCHAR reflexsuperset
ENCODING 8839
SWIDTH 713 0
DWIDTH 17 0
BBX 15 15 1 -3
BITMAP
FFE0
FFF8
001C
000C
0006
0006
0006
0006
000C
001C
FFF8
FFE0
0000
FFFE
FFFE
ENDCHAR
STARTCHAR uni2288
ENCODING 8840
SWIDTH 713 0
DWIDTH 17 0
BBX 15 20 1 -5
BITMAP
0030
0030
0030
0FFE
3FFE
7040
60C0
C0C0
C080
C180
C180
6100
7300
3FFE
0FFE
0600
FFFE
FFFE
0C00
0C00
ENDCHAR
STARTCHAR uni2289
ENCODING 8841
SWIDTH 713 0
DWIDTH 17 0
BBX 15 20 1 -5
BITMAP
0030
0030
0030
FFE0
FFF8
005C
00CC
00C6
0086
0186
0186
010C
031C
FFF8
FFE0
0600
FFFE
FFFE
0C00
0C00
ENDCHAR
STARTCHAR circleplus
ENCODING 8853
SWIDTH 768 0
DWIDTH 18 0
BBX 16 17 1 0
BITMAP
07E0
1E78
381C
6186
6186
C183
C183
DFFB
DFFB
C183
C183
C183
6186
6006
381C
1E78
07E0
ENDCHAR
STARTCHAR circlemultiply
ENCODING 8855
SWIDTH 768 0
DWIDTH 18 0
BBX 16 17 1 0
BITMAP
07E0
1E78
381C
6006
6816
CC33
C663
C3C3
C183
C3C3
C663
CC33
6816
6006
381C
1E78
07E0
ENDCHAR
STARTCHAR uni22A4
ENCODING 8868
SWIDTH 658 0
DWIDTH 16 0
BBX 14 17 1 0
BITMAP
FFFC
FFFC
0300
0300
0300
0300
0300
0300
0300
0300
0300
0300
0300
0300
0300
0300
0300
ENDCHAR
STARTCHAR perpendicular
ENCODING 8869
SWIDTH 658 0
DWIDTH 16 0
BBX 14 17 1 0
BITMAP
0300
0300
0300
0300
0300
0300
0300
0300
0300
0300
0300
0300
0300
0300
0300
FFFC
FFFC
ENDCHAR
STARTCHAR dotmath
ENCODING 8901
SWIDTH 250 0
DWIDTH 6 0
BBX 2 3 2 6
BITMAP
C0
C0
C0
ENDCHAR
STARTCHAR integraltp
ENCODING 8992
SWIDTH 686 0
DWIDTH 17 0
BBX 8 31 8 -8
BITMAP
0E
1B
33
20
60
40
C0
C0
C0
C0
C0
C0
C0
C0
C0
C0
C0
C0
C0
C0
C0
C0
C0
C0
C0
C0
C0
C0
C0
C0
C0
ENDCHAR
STARTCHAR integralbt
ENCODING 8993
SWIDTH 686 0
DWIDTH 17 0
BBX 8 26 2 -2
BITMAP
03
03
03
03
03
03
03
03
03
03
03
03
03
03
03
03
03
03
03
03
03
02
06
CC
D8
70
ENDCHAR
STARTCHAR angleleft
ENCODING 9001
SWIDTH 329 0
DWIDTH 8 0
BBX 7 22 0 -5
BITMAP
06
06
0C
0C
18
18
30
30
60
60
C0
C0
60
60
30
30
18
18
0C
0C
06
06
ENDCHAR
STARTCHAR angleright
ENCODING 9002
SWIDTH 329 0
DWIDTH 8 0
BBX 7 22 1 -5
BITMAP
C0
C0
60
60
30
30
18
18
0C
0C
06
06
0C
0C
18
18
30
30
60
60
C0
C0
ENDCHAR
STARTCHAR lozenge
ENCODING 9674
SWIDTH 494 0
DWIDTH 12 0
BBX 10 18 1 0
BITMAP
0C00
0C00
1E00
3300
3300
6180
6180
C0C0
C0C0
C0C0
C0C0
6180
6180
3300
3300
1E00
0C00
0C00
ENDCHAR
STARTCHAR spade
ENCODING 9824
SWIDTH 753 0
DWIDTH 18 0
BBX 12 13 3 0
BITMAP
0600
0600
0F00
1F80
3FC0
7FE0
7FE0
FFF0
FFF0
F6F0
6660
0600
0F00
ENDCHAR
STARTCHAR club
ENCODING 9827
SWIDTH 753 0
DWIDTH 18 0
BBX 14 13 2 0
BITMAP
0780
0FC0
0FC0
0FC0
0FC0
77B8
FB7C
FFFC
FFFC
FB7C
7338
0300
0780
ENDCHAR
STARTCHAR heart
ENCODING 9829
SWIDTH 753 0
DWIDTH 18 0
BBX 12 13 3 0
BITMAP
70E0
F9F0
F9F0
FFF0
FFF0
FFF0
7FE0
7FE0
3FC0
1F80
0F00
0F00
0600
ENDCHAR
STARTCHAR diamond
ENCODING 9830
SWIDTH 753 0
DWIDTH 18 0
BBX 10 13 4 0
BITMAP
0C00
0C00
1E00
3F00
3F00
7F80
FFC0
7F80
3F00
3F00
1E00
0C00
0C00
ENDCHAR
STARTCHAR fi
ENCODING -1
SWIDTH 556 0
DWIDTH 12 0
BBX 11 17 0 0
BITMAP
0FC0
18C0
3000
3000
3000
FFC0
30C0
30C0
30C0
30C0
30C0
30C0
30C0
30C0
30C0
30C0
79E0
ENDCHAR
STARTCHAR fl
ENCODING -1
SWIDTH 556 0
DWIDTH 12 0
BBX 11 17 0 0
BITMAP
0FC0
19C0
30C0
30C0
30C0
FFC0
30C0
30C0
30C0
30C0
30C0
30C0
30C0
30C0
30C0
30C0
79E0
ENDCHAR
ENDFONT
